G04 #@! TF.FileFunction,Copper,L1,Top,Signal*
%FSLAX46Y46*%
G04 Gerber Fmt 4.6, Leading zero omitted, Abs format (unit mm)*
G04 Created by KiCad (PCBNEW 4.0.7) date 10/23/17 21:59:23*
%MOMM*%
%LPD*%
G01*
G04 APERTURE LIST*
%ADD10C,0.100000*%
%ADD11R,2.499360X4.500880*%
%ADD12O,2.499360X4.500880*%
%ADD13O,2.032000X1.727200*%
%ADD14R,2.032000X1.727200*%
%ADD15R,2.032000X2.032000*%
%ADD16O,2.032000X2.032000*%
%ADD17C,1.998980*%
%ADD18R,2.286000X1.574800*%
%ADD19O,2.286000X1.574800*%
%ADD20C,0.250000*%
%ADD21C,1.000000*%
%ADD22C,0.254000*%
G04 APERTURE END LIST*
D10*
D11*
X119305080Y-86060000D03*
D12*
X108129080Y-86060000D03*
D13*
X117120000Y-96570000D03*
X109520000Y-96570000D03*
X107020000Y-78970000D03*
D14*
X119620000Y-79010000D03*
D15*
X117470000Y-72810000D03*
D16*
X120010000Y-72810000D03*
D15*
X107070000Y-72920000D03*
D16*
X109610000Y-72920000D03*
D15*
X109630000Y-104570000D03*
D16*
X107090000Y-104570000D03*
D14*
X154880000Y-100000000D03*
D13*
X154880000Y-97460000D03*
X154880000Y-94920000D03*
X154880000Y-92380000D03*
X154880000Y-89840000D03*
X154880000Y-87300000D03*
X154880000Y-84760000D03*
X154880000Y-82220000D03*
D17*
X145790000Y-78570000D03*
X138170000Y-78570000D03*
X145770000Y-83550000D03*
X138150000Y-83550000D03*
X145800000Y-88550000D03*
X138180000Y-88550000D03*
X145920000Y-93740000D03*
X138300000Y-93740000D03*
X145880000Y-98820000D03*
X138260000Y-98820000D03*
D18*
X126900000Y-72200000D03*
D19*
X126940000Y-74700000D03*
X126940000Y-77240000D03*
X126940000Y-79780000D03*
X126940000Y-82320000D03*
X126940000Y-84860000D03*
X126940000Y-87400000D03*
X126940000Y-89940000D03*
X126940000Y-92480000D03*
X126940000Y-95020000D03*
X126940000Y-97560000D03*
X126940000Y-100100000D03*
X126940000Y-102640000D03*
X126940000Y-105180000D03*
X126940000Y-107720000D03*
X142180000Y-107720000D03*
X142180000Y-105180000D03*
X142180000Y-102640000D03*
X142180000Y-100100000D03*
X142180000Y-97560000D03*
X142180000Y-95020000D03*
X142180000Y-92480000D03*
X142180000Y-89940000D03*
X142180000Y-87400000D03*
X142180000Y-84860000D03*
X142180000Y-82320000D03*
X142180000Y-79780000D03*
X142180000Y-77240000D03*
X142180000Y-74700000D03*
X142180000Y-72160000D03*
D20*
X177980000Y-92310000D02*
X177980000Y-92180000D01*
D21*
X119305080Y-86060000D02*
X119305080Y-79324920D01*
X119305080Y-79324920D02*
X119620000Y-79010000D01*
X120010000Y-72810000D02*
X120010000Y-74410000D01*
X120010000Y-74410000D02*
X108360000Y-86060000D01*
X108360000Y-86060000D02*
X108129080Y-86060000D01*
X109610000Y-72920000D02*
X117360000Y-72920000D01*
X117360000Y-72920000D02*
X117470000Y-72810000D01*
D20*
X145880000Y-98820000D02*
X145880000Y-98630000D01*
X145880000Y-98630000D02*
X152130000Y-92380000D01*
X152130000Y-92380000D02*
X154880000Y-92380000D01*
X154140000Y-92070000D02*
X154880000Y-92070000D01*
X145920000Y-93740000D02*
X146170000Y-93740000D01*
X146170000Y-93740000D02*
X150070000Y-89840000D01*
X150070000Y-89840000D02*
X154880000Y-89840000D01*
X145800000Y-88550000D02*
X145800000Y-88450000D01*
X145800000Y-88450000D02*
X146950000Y-87300000D01*
X146950000Y-87300000D02*
X154880000Y-87300000D01*
X154660000Y-87210000D02*
X154880000Y-86990000D01*
X145770000Y-83550000D02*
X145770000Y-83800000D01*
X145770000Y-83800000D02*
X146730000Y-84760000D01*
X146730000Y-84760000D02*
X154880000Y-84760000D01*
D21*
X145790000Y-78570000D02*
X152670000Y-78570000D01*
X154880000Y-80780000D02*
X154880000Y-82220000D01*
X152670000Y-78570000D02*
X154880000Y-80780000D01*
X138170000Y-78570000D02*
X138170000Y-79440000D01*
X138170000Y-79440000D02*
X141050000Y-82320000D01*
X141050000Y-82320000D02*
X142180000Y-82320000D01*
D20*
X138150000Y-83550000D02*
X139660000Y-85060000D01*
X139660000Y-85060000D02*
X141980000Y-85060000D01*
X141980000Y-85060000D02*
X142180000Y-84860000D01*
X138180000Y-88550000D02*
X138510000Y-88550000D01*
X138510000Y-88550000D02*
X139660000Y-87400000D01*
X139660000Y-87400000D02*
X142180000Y-87400000D01*
X138300000Y-93740000D02*
X138380000Y-93740000D01*
X138380000Y-93740000D02*
X142180000Y-89940000D01*
X138260000Y-98820000D02*
X138260000Y-96400000D01*
X138260000Y-96400000D02*
X142180000Y-92480000D01*
D22*
G36*
X159223000Y-107173000D02*
X143882774Y-107173000D01*
X143576222Y-106714211D01*
X143180801Y-106450000D01*
X143576222Y-106185789D01*
X143884559Y-105724329D01*
X143992833Y-105180000D01*
X143884559Y-104635671D01*
X143576222Y-104174211D01*
X143180801Y-103910000D01*
X143576222Y-103645789D01*
X143884559Y-103184329D01*
X143992833Y-102640000D01*
X143884559Y-102095671D01*
X143576222Y-101634211D01*
X143180801Y-101370000D01*
X143576222Y-101105789D01*
X143884559Y-100644329D01*
X143992833Y-100100000D01*
X143884559Y-99555671D01*
X143576222Y-99094211D01*
X143180801Y-98830000D01*
X143576222Y-98565789D01*
X143884559Y-98104329D01*
X143992833Y-97560000D01*
X143884559Y-97015671D01*
X143576222Y-96554211D01*
X143180801Y-96290000D01*
X143576222Y-96025789D01*
X143884559Y-95564329D01*
X143992833Y-95020000D01*
X143884559Y-94475671D01*
X143576222Y-94014211D01*
X143180801Y-93750000D01*
X143576222Y-93485789D01*
X143884559Y-93024329D01*
X143992833Y-92480000D01*
X143884559Y-91935671D01*
X143576222Y-91474211D01*
X143180801Y-91210000D01*
X143576222Y-90945789D01*
X143884559Y-90484329D01*
X143992833Y-89940000D01*
X143884559Y-89395671D01*
X143576222Y-88934211D01*
X143180801Y-88670000D01*
X143576222Y-88405789D01*
X143884559Y-87944329D01*
X143992833Y-87400000D01*
X143884559Y-86855671D01*
X143576222Y-86394211D01*
X143180801Y-86130000D01*
X143576222Y-85865789D01*
X143884559Y-85404329D01*
X143992833Y-84860000D01*
X143884559Y-84315671D01*
X143589241Y-83873694D01*
X144135226Y-83873694D01*
X144383538Y-84474655D01*
X144842927Y-84934846D01*
X145443453Y-85184206D01*
X146079960Y-85184762D01*
X146192599Y-85297401D01*
X146439161Y-85462148D01*
X146730000Y-85520000D01*
X153435352Y-85520000D01*
X153635585Y-85819670D01*
X153950366Y-86030000D01*
X153635585Y-86240330D01*
X153435352Y-86540000D01*
X146950000Y-86540000D01*
X146659161Y-86597852D01*
X146412599Y-86762599D01*
X146220423Y-86954775D01*
X146126547Y-86915794D01*
X145476306Y-86915226D01*
X144875345Y-87163538D01*
X144415154Y-87622927D01*
X144165794Y-88223453D01*
X144165226Y-88873694D01*
X144413538Y-89474655D01*
X144872927Y-89934846D01*
X145473453Y-90184206D01*
X146123694Y-90184774D01*
X146724655Y-89936462D01*
X147184846Y-89477073D01*
X147434206Y-88876547D01*
X147434774Y-88226306D01*
X147366058Y-88060000D01*
X153435352Y-88060000D01*
X153635585Y-88359670D01*
X153950366Y-88570000D01*
X153635585Y-88780330D01*
X153435352Y-89080000D01*
X150070000Y-89080000D01*
X149779161Y-89137852D01*
X149532599Y-89302599D01*
X146587732Y-92247466D01*
X146246547Y-92105794D01*
X145596306Y-92105226D01*
X144995345Y-92353538D01*
X144535154Y-92812927D01*
X144285794Y-93413453D01*
X144285226Y-94063694D01*
X144533538Y-94664655D01*
X144992927Y-95124846D01*
X145593453Y-95374206D01*
X146243694Y-95374774D01*
X146844655Y-95126462D01*
X147304846Y-94667073D01*
X147554206Y-94066547D01*
X147554762Y-93430040D01*
X150384802Y-90600000D01*
X153435352Y-90600000D01*
X153635585Y-90899670D01*
X153950366Y-91110000D01*
X153635585Y-91320330D01*
X153435352Y-91620000D01*
X152130000Y-91620000D01*
X151839161Y-91677852D01*
X151592599Y-91842599D01*
X146236830Y-97198368D01*
X146206547Y-97185794D01*
X145556306Y-97185226D01*
X144955345Y-97433538D01*
X144495154Y-97892927D01*
X144245794Y-98493453D01*
X144245226Y-99143694D01*
X144493538Y-99744655D01*
X144952927Y-100204846D01*
X145553453Y-100454206D01*
X146203694Y-100454774D01*
X146612763Y-100285750D01*
X153229000Y-100285750D01*
X153229000Y-100989910D01*
X153325673Y-101223299D01*
X153504302Y-101401927D01*
X153737691Y-101498600D01*
X154594250Y-101498600D01*
X154753000Y-101339850D01*
X154753000Y-100127000D01*
X155007000Y-100127000D01*
X155007000Y-101339850D01*
X155165750Y-101498600D01*
X156022309Y-101498600D01*
X156255698Y-101401927D01*
X156434327Y-101223299D01*
X156531000Y-100989910D01*
X156531000Y-100285750D01*
X156372250Y-100127000D01*
X155007000Y-100127000D01*
X154753000Y-100127000D01*
X153387750Y-100127000D01*
X153229000Y-100285750D01*
X146612763Y-100285750D01*
X146804655Y-100206462D01*
X147264846Y-99747073D01*
X147514206Y-99146547D01*
X147514774Y-98496306D01*
X147390138Y-98194664D01*
X152444802Y-93140000D01*
X153435352Y-93140000D01*
X153635585Y-93439670D01*
X153950366Y-93650000D01*
X153635585Y-93860330D01*
X153310729Y-94346511D01*
X153196655Y-94920000D01*
X153310729Y-95493489D01*
X153635585Y-95979670D01*
X153950366Y-96190000D01*
X153635585Y-96400330D01*
X153310729Y-96886511D01*
X153196655Y-97460000D01*
X153310729Y-98033489D01*
X153635585Y-98519670D01*
X153657780Y-98534500D01*
X153504302Y-98598073D01*
X153325673Y-98776701D01*
X153229000Y-99010090D01*
X153229000Y-99714250D01*
X153387750Y-99873000D01*
X154753000Y-99873000D01*
X154753000Y-99853000D01*
X155007000Y-99853000D01*
X155007000Y-99873000D01*
X156372250Y-99873000D01*
X156531000Y-99714250D01*
X156531000Y-99010090D01*
X156434327Y-98776701D01*
X156255698Y-98598073D01*
X156102220Y-98534500D01*
X156124415Y-98519670D01*
X156449271Y-98033489D01*
X156563345Y-97460000D01*
X156449271Y-96886511D01*
X156124415Y-96400330D01*
X155809634Y-96190000D01*
X156124415Y-95979670D01*
X156449271Y-95493489D01*
X156563345Y-94920000D01*
X156449271Y-94346511D01*
X156124415Y-93860330D01*
X155809634Y-93650000D01*
X156124415Y-93439670D01*
X156449271Y-92953489D01*
X156563345Y-92380000D01*
X156449271Y-91806511D01*
X156124415Y-91320330D01*
X155809634Y-91110000D01*
X156124415Y-90899670D01*
X156449271Y-90413489D01*
X156563345Y-89840000D01*
X156449271Y-89266511D01*
X156124415Y-88780330D01*
X155809634Y-88570000D01*
X156124415Y-88359670D01*
X156449271Y-87873489D01*
X156563345Y-87300000D01*
X156449271Y-86726511D01*
X156124415Y-86240330D01*
X155809634Y-86030000D01*
X156124415Y-85819670D01*
X156449271Y-85333489D01*
X156563345Y-84760000D01*
X156449271Y-84186511D01*
X156124415Y-83700330D01*
X155809634Y-83490000D01*
X156124415Y-83279670D01*
X156449271Y-82793489D01*
X156563345Y-82220000D01*
X156449271Y-81646511D01*
X156124415Y-81160330D01*
X156015000Y-81087221D01*
X156015000Y-80780000D01*
X155928603Y-80345654D01*
X155682566Y-79977434D01*
X153472566Y-77767434D01*
X153104346Y-77521397D01*
X152670000Y-77435000D01*
X146966484Y-77435000D01*
X146717073Y-77185154D01*
X146116547Y-76935794D01*
X145466306Y-76935226D01*
X144865345Y-77183538D01*
X144405154Y-77642927D01*
X144155794Y-78243453D01*
X144155226Y-78893694D01*
X144403538Y-79494655D01*
X144862927Y-79954846D01*
X145463453Y-80204206D01*
X146113694Y-80204774D01*
X146714655Y-79956462D01*
X146966556Y-79705000D01*
X152199868Y-79705000D01*
X153647342Y-81152474D01*
X153635585Y-81160330D01*
X153310729Y-81646511D01*
X153196655Y-82220000D01*
X153310729Y-82793489D01*
X153635585Y-83279670D01*
X153950366Y-83490000D01*
X153635585Y-83700330D01*
X153435352Y-84000000D01*
X147352944Y-84000000D01*
X147404206Y-83876547D01*
X147404774Y-83226306D01*
X147156462Y-82625345D01*
X146697073Y-82165154D01*
X146096547Y-81915794D01*
X145446306Y-81915226D01*
X144845345Y-82163538D01*
X144385154Y-82622927D01*
X144135794Y-83223453D01*
X144135226Y-83873694D01*
X143589241Y-83873694D01*
X143576222Y-83854211D01*
X143180801Y-83590000D01*
X143576222Y-83325789D01*
X143884559Y-82864329D01*
X143992833Y-82320000D01*
X143884559Y-81775671D01*
X143576222Y-81314211D01*
X143180801Y-81050000D01*
X143576222Y-80785789D01*
X143884559Y-80324329D01*
X143992833Y-79780000D01*
X143884559Y-79235671D01*
X143576222Y-78774211D01*
X143180801Y-78510000D01*
X143576222Y-78245789D01*
X143884559Y-77784329D01*
X143992833Y-77240000D01*
X143884559Y-76695671D01*
X143576222Y-76234211D01*
X143180801Y-75970000D01*
X143576222Y-75705789D01*
X143884559Y-75244329D01*
X143992833Y-74700000D01*
X143884559Y-74155671D01*
X143576222Y-73694211D01*
X143180801Y-73430000D01*
X143576222Y-73165789D01*
X143884559Y-72704329D01*
X143992833Y-72160000D01*
X143884559Y-71615671D01*
X143576222Y-71154211D01*
X143114762Y-70845874D01*
X142570433Y-70737600D01*
X141789567Y-70737600D01*
X141245238Y-70845874D01*
X140783778Y-71154211D01*
X140475441Y-71615671D01*
X140367167Y-72160000D01*
X140475441Y-72704329D01*
X140783778Y-73165789D01*
X141179199Y-73430000D01*
X140783778Y-73694211D01*
X140475441Y-74155671D01*
X140367167Y-74700000D01*
X140475441Y-75244329D01*
X140783778Y-75705789D01*
X141179199Y-75970000D01*
X140783778Y-76234211D01*
X140475441Y-76695671D01*
X140367167Y-77240000D01*
X140475441Y-77784329D01*
X140783778Y-78245789D01*
X141179199Y-78510000D01*
X140783778Y-78774211D01*
X140475441Y-79235671D01*
X140367167Y-79780000D01*
X140429748Y-80094616D01*
X139636224Y-79301092D01*
X139804206Y-78896547D01*
X139804774Y-78246306D01*
X139556462Y-77645345D01*
X139097073Y-77185154D01*
X138496547Y-76935794D01*
X137846306Y-76935226D01*
X137245345Y-77183538D01*
X136785154Y-77642927D01*
X136535794Y-78243453D01*
X136535226Y-78893694D01*
X136783538Y-79494655D01*
X137111152Y-79822841D01*
X137121397Y-79874346D01*
X137289206Y-80125490D01*
X137367434Y-80242566D01*
X140247434Y-83122566D01*
X140615654Y-83368603D01*
X140946279Y-83434369D01*
X141179199Y-83590000D01*
X140783778Y-83854211D01*
X140485912Y-84300000D01*
X139974802Y-84300000D01*
X139715885Y-84041083D01*
X139784206Y-83876547D01*
X139784774Y-83226306D01*
X139536462Y-82625345D01*
X139077073Y-82165154D01*
X138476547Y-81915794D01*
X137826306Y-81915226D01*
X137225345Y-82163538D01*
X136765154Y-82622927D01*
X136515794Y-83223453D01*
X136515226Y-83873694D01*
X136763538Y-84474655D01*
X137222927Y-84934846D01*
X137823453Y-85184206D01*
X138473694Y-85184774D01*
X138640889Y-85115691D01*
X139122599Y-85597401D01*
X139369160Y-85762148D01*
X139417414Y-85771746D01*
X139660000Y-85820000D01*
X140753183Y-85820000D01*
X140783778Y-85865789D01*
X141179199Y-86130000D01*
X140783778Y-86394211D01*
X140619547Y-86640000D01*
X139660000Y-86640000D01*
X139369161Y-86697852D01*
X139122599Y-86862599D01*
X138904259Y-87080939D01*
X138506547Y-86915794D01*
X137856306Y-86915226D01*
X137255345Y-87163538D01*
X136795154Y-87622927D01*
X136545794Y-88223453D01*
X136545226Y-88873694D01*
X136793538Y-89474655D01*
X137252927Y-89934846D01*
X137853453Y-90184206D01*
X138503694Y-90184774D01*
X139104655Y-89936462D01*
X139564846Y-89477073D01*
X139814206Y-88876547D01*
X139814692Y-88320110D01*
X139974802Y-88160000D01*
X140619547Y-88160000D01*
X140783778Y-88405789D01*
X141179199Y-88670000D01*
X140783778Y-88934211D01*
X140475441Y-89395671D01*
X140367167Y-89940000D01*
X140475441Y-90484329D01*
X140509659Y-90535539D01*
X138847610Y-92197588D01*
X138626547Y-92105794D01*
X137976306Y-92105226D01*
X137375345Y-92353538D01*
X136915154Y-92812927D01*
X136665794Y-93413453D01*
X136665226Y-94063694D01*
X136913538Y-94664655D01*
X137372927Y-95124846D01*
X137973453Y-95374206D01*
X138210785Y-95374413D01*
X137722599Y-95862599D01*
X137557852Y-96109161D01*
X137500000Y-96400000D01*
X137500000Y-97365504D01*
X137335345Y-97433538D01*
X136875154Y-97892927D01*
X136625794Y-98493453D01*
X136625226Y-99143694D01*
X136873538Y-99744655D01*
X137332927Y-100204846D01*
X137933453Y-100454206D01*
X138583694Y-100454774D01*
X139184655Y-100206462D01*
X139644846Y-99747073D01*
X139894206Y-99146547D01*
X139894774Y-98496306D01*
X139646462Y-97895345D01*
X139187073Y-97435154D01*
X139020000Y-97365779D01*
X139020000Y-96714802D01*
X140424843Y-95309959D01*
X140475441Y-95564329D01*
X140783778Y-96025789D01*
X141179199Y-96290000D01*
X140783778Y-96554211D01*
X140475441Y-97015671D01*
X140367167Y-97560000D01*
X140475441Y-98104329D01*
X140783778Y-98565789D01*
X141179199Y-98830000D01*
X140783778Y-99094211D01*
X140475441Y-99555671D01*
X140367167Y-100100000D01*
X140475441Y-100644329D01*
X140783778Y-101105789D01*
X141179199Y-101370000D01*
X140783778Y-101634211D01*
X140475441Y-102095671D01*
X140367167Y-102640000D01*
X140475441Y-103184329D01*
X140783778Y-103645789D01*
X141179199Y-103910000D01*
X140783778Y-104174211D01*
X140475441Y-104635671D01*
X140367167Y-105180000D01*
X140475441Y-105724329D01*
X140783778Y-106185789D01*
X141179199Y-106450000D01*
X140783778Y-106714211D01*
X140477226Y-107173000D01*
X128642774Y-107173000D01*
X128336222Y-106714211D01*
X127940801Y-106450000D01*
X128336222Y-106185789D01*
X128644559Y-105724329D01*
X128752833Y-105180000D01*
X128644559Y-104635671D01*
X128336222Y-104174211D01*
X127940801Y-103910000D01*
X128336222Y-103645789D01*
X128644559Y-103184329D01*
X128752833Y-102640000D01*
X128644559Y-102095671D01*
X128336222Y-101634211D01*
X127941170Y-101370246D01*
X127957262Y-101365525D01*
X128391191Y-101015986D01*
X128658327Y-100526996D01*
X128675010Y-100447060D01*
X128552852Y-100227000D01*
X127067000Y-100227000D01*
X127067000Y-100247000D01*
X126813000Y-100247000D01*
X126813000Y-100227000D01*
X125327148Y-100227000D01*
X125204990Y-100447060D01*
X125221673Y-100526996D01*
X125488809Y-101015986D01*
X125922738Y-101365525D01*
X125938830Y-101370246D01*
X125543778Y-101634211D01*
X125235441Y-102095671D01*
X125127167Y-102640000D01*
X125235441Y-103184329D01*
X125543778Y-103645789D01*
X125939199Y-103910000D01*
X125543778Y-104174211D01*
X125235441Y-104635671D01*
X125127167Y-105180000D01*
X125235441Y-105724329D01*
X125543778Y-106185789D01*
X125939199Y-106450000D01*
X125543778Y-106714211D01*
X125237226Y-107173000D01*
X102477000Y-107173000D01*
X102477000Y-104537655D01*
X105439000Y-104537655D01*
X105439000Y-104602345D01*
X105564675Y-105234155D01*
X105922567Y-105769778D01*
X106458190Y-106127670D01*
X107090000Y-106253345D01*
X107721810Y-106127670D01*
X108061792Y-105900501D01*
X108149910Y-106037441D01*
X108362110Y-106182431D01*
X108614000Y-106233440D01*
X110646000Y-106233440D01*
X110881317Y-106189162D01*
X111097441Y-106050090D01*
X111242431Y-105837890D01*
X111293440Y-105586000D01*
X111293440Y-103554000D01*
X111249162Y-103318683D01*
X111110090Y-103102559D01*
X110897890Y-102957569D01*
X110646000Y-102906560D01*
X108614000Y-102906560D01*
X108378683Y-102950838D01*
X108162559Y-103089910D01*
X108060802Y-103238837D01*
X107721810Y-103012330D01*
X107090000Y-102886655D01*
X106458190Y-103012330D01*
X105922567Y-103370222D01*
X105564675Y-103905845D01*
X105439000Y-104537655D01*
X102477000Y-104537655D01*
X102477000Y-96929026D01*
X107912642Y-96929026D01*
X107915291Y-96944791D01*
X108169268Y-97472036D01*
X108605680Y-97861954D01*
X109158087Y-98055184D01*
X109393000Y-97910924D01*
X109393000Y-96697000D01*
X109647000Y-96697000D01*
X109647000Y-97910924D01*
X109881913Y-98055184D01*
X110434320Y-97861954D01*
X110870732Y-97472036D01*
X111124709Y-96944791D01*
X111127358Y-96929026D01*
X111006217Y-96697000D01*
X109647000Y-96697000D01*
X109393000Y-96697000D01*
X108033783Y-96697000D01*
X107912642Y-96929026D01*
X102477000Y-96929026D01*
X102477000Y-96570000D01*
X115436655Y-96570000D01*
X115550729Y-97143489D01*
X115875585Y-97629670D01*
X116361766Y-97954526D01*
X116935255Y-98068600D01*
X117304745Y-98068600D01*
X117878234Y-97954526D01*
X118364415Y-97629670D01*
X118689271Y-97143489D01*
X118803345Y-96570000D01*
X118689271Y-95996511D01*
X118364415Y-95510330D01*
X117878234Y-95185474D01*
X117304745Y-95071400D01*
X116935255Y-95071400D01*
X116361766Y-95185474D01*
X115875585Y-95510330D01*
X115550729Y-95996511D01*
X115436655Y-96570000D01*
X102477000Y-96570000D01*
X102477000Y-96210974D01*
X107912642Y-96210974D01*
X108033783Y-96443000D01*
X109393000Y-96443000D01*
X109393000Y-95229076D01*
X109647000Y-95229076D01*
X109647000Y-96443000D01*
X111006217Y-96443000D01*
X111127358Y-96210974D01*
X111124709Y-96195209D01*
X110870732Y-95667964D01*
X110434320Y-95278046D01*
X109881913Y-95084816D01*
X109647000Y-95229076D01*
X109393000Y-95229076D01*
X109158087Y-95084816D01*
X108605680Y-95278046D01*
X108169268Y-95667964D01*
X107915291Y-96195209D01*
X107912642Y-96210974D01*
X102477000Y-96210974D01*
X102477000Y-78970000D01*
X105336655Y-78970000D01*
X105450729Y-79543489D01*
X105775585Y-80029670D01*
X106261766Y-80354526D01*
X106835255Y-80468600D01*
X107204745Y-80468600D01*
X107778234Y-80354526D01*
X108264415Y-80029670D01*
X108589271Y-79543489D01*
X108703345Y-78970000D01*
X108589271Y-78396511D01*
X108264415Y-77910330D01*
X107778234Y-77585474D01*
X107204745Y-77471400D01*
X106835255Y-77471400D01*
X106261766Y-77585474D01*
X105775585Y-77910330D01*
X105450729Y-78396511D01*
X105336655Y-78970000D01*
X102477000Y-78970000D01*
X102477000Y-71904000D01*
X105406560Y-71904000D01*
X105406560Y-73936000D01*
X105450838Y-74171317D01*
X105589910Y-74387441D01*
X105802110Y-74532431D01*
X106054000Y-74583440D01*
X108086000Y-74583440D01*
X108321317Y-74539162D01*
X108537441Y-74400090D01*
X108639198Y-74251163D01*
X108978190Y-74477670D01*
X109610000Y-74603345D01*
X110241810Y-74477670D01*
X110777433Y-74119778D01*
X110820716Y-74055000D01*
X115849649Y-74055000D01*
X115850838Y-74061317D01*
X115989910Y-74277441D01*
X116202110Y-74422431D01*
X116454000Y-74473440D01*
X118341428Y-74473440D01*
X109271769Y-83543099D01*
X108850316Y-83261494D01*
X108129080Y-83118031D01*
X107407844Y-83261494D01*
X106796410Y-83670041D01*
X106387863Y-84281475D01*
X106244400Y-85002711D01*
X106244400Y-87117289D01*
X106387863Y-87838525D01*
X106796410Y-88449959D01*
X107407844Y-88858506D01*
X108129080Y-89001969D01*
X108850316Y-88858506D01*
X109461750Y-88449959D01*
X109870297Y-87838525D01*
X110013760Y-87117289D01*
X110013760Y-86011372D01*
X117976323Y-78048809D01*
X117956560Y-78146400D01*
X117956560Y-79873600D01*
X118000838Y-80108917D01*
X118139910Y-80325041D01*
X118170080Y-80345655D01*
X118170080Y-83162120D01*
X118055400Y-83162120D01*
X117820083Y-83206398D01*
X117603959Y-83345470D01*
X117458969Y-83557670D01*
X117407960Y-83809560D01*
X117407960Y-88310440D01*
X117452238Y-88545757D01*
X117591310Y-88761881D01*
X117803510Y-88906871D01*
X118055400Y-88957880D01*
X120554760Y-88957880D01*
X120790077Y-88913602D01*
X121006201Y-88774530D01*
X121151191Y-88562330D01*
X121202200Y-88310440D01*
X121202200Y-83809560D01*
X121157922Y-83574243D01*
X121018850Y-83358119D01*
X120806650Y-83213129D01*
X120554760Y-83162120D01*
X120440080Y-83162120D01*
X120440080Y-80521040D01*
X120636000Y-80521040D01*
X120871317Y-80476762D01*
X121087441Y-80337690D01*
X121232431Y-80125490D01*
X121283440Y-79873600D01*
X121283440Y-78146400D01*
X121239162Y-77911083D01*
X121100090Y-77694959D01*
X120887890Y-77549969D01*
X120636000Y-77498960D01*
X118604000Y-77498960D01*
X118508133Y-77516999D01*
X120812566Y-75212566D01*
X121058603Y-74844346D01*
X121145000Y-74410000D01*
X121145000Y-74031449D01*
X121177433Y-74009778D01*
X121535325Y-73474155D01*
X121661000Y-72842345D01*
X121661000Y-72777655D01*
X121535325Y-72145845D01*
X121177433Y-71610222D01*
X120881671Y-71412600D01*
X125109560Y-71412600D01*
X125109560Y-72987400D01*
X125153838Y-73222717D01*
X125292910Y-73438841D01*
X125505110Y-73583831D01*
X125661559Y-73615513D01*
X125543778Y-73694211D01*
X125235441Y-74155671D01*
X125127167Y-74700000D01*
X125235441Y-75244329D01*
X125543778Y-75705789D01*
X125939199Y-75970000D01*
X125543778Y-76234211D01*
X125235441Y-76695671D01*
X125127167Y-77240000D01*
X125235441Y-77784329D01*
X125543778Y-78245789D01*
X125939199Y-78510000D01*
X125543778Y-78774211D01*
X125235441Y-79235671D01*
X125127167Y-79780000D01*
X125235441Y-80324329D01*
X125543778Y-80785789D01*
X125939199Y-81050000D01*
X125543778Y-81314211D01*
X125235441Y-81775671D01*
X125127167Y-82320000D01*
X125235441Y-82864329D01*
X125543778Y-83325789D01*
X125939199Y-83590000D01*
X125543778Y-83854211D01*
X125235441Y-84315671D01*
X125127167Y-84860000D01*
X125235441Y-85404329D01*
X125543778Y-85865789D01*
X125939199Y-86130000D01*
X125543778Y-86394211D01*
X125235441Y-86855671D01*
X125127167Y-87400000D01*
X125235441Y-87944329D01*
X125543778Y-88405789D01*
X125939199Y-88670000D01*
X125543778Y-88934211D01*
X125235441Y-89395671D01*
X125127167Y-89940000D01*
X125235441Y-90484329D01*
X125543778Y-90945789D01*
X125939199Y-91210000D01*
X125543778Y-91474211D01*
X125235441Y-91935671D01*
X125127167Y-92480000D01*
X125235441Y-93024329D01*
X125543778Y-93485789D01*
X125939199Y-93750000D01*
X125543778Y-94014211D01*
X125235441Y-94475671D01*
X125127167Y-95020000D01*
X125235441Y-95564329D01*
X125543778Y-96025789D01*
X125939199Y-96290000D01*
X125543778Y-96554211D01*
X125235441Y-97015671D01*
X125127167Y-97560000D01*
X125235441Y-98104329D01*
X125543778Y-98565789D01*
X125938830Y-98829754D01*
X125922738Y-98834475D01*
X125488809Y-99184014D01*
X125221673Y-99673004D01*
X125204990Y-99752940D01*
X125327148Y-99973000D01*
X126813000Y-99973000D01*
X126813000Y-99953000D01*
X127067000Y-99953000D01*
X127067000Y-99973000D01*
X128552852Y-99973000D01*
X128675010Y-99752940D01*
X128658327Y-99673004D01*
X128391191Y-99184014D01*
X127957262Y-98834475D01*
X127941170Y-98829754D01*
X128336222Y-98565789D01*
X128644559Y-98104329D01*
X128752833Y-97560000D01*
X128644559Y-97015671D01*
X128336222Y-96554211D01*
X127940801Y-96290000D01*
X128336222Y-96025789D01*
X128644559Y-95564329D01*
X128752833Y-95020000D01*
X128644559Y-94475671D01*
X128336222Y-94014211D01*
X127940801Y-93750000D01*
X128336222Y-93485789D01*
X128644559Y-93024329D01*
X128752833Y-92480000D01*
X128644559Y-91935671D01*
X128336222Y-91474211D01*
X127940801Y-91210000D01*
X128336222Y-90945789D01*
X128644559Y-90484329D01*
X128752833Y-89940000D01*
X128644559Y-89395671D01*
X128336222Y-88934211D01*
X127940801Y-88670000D01*
X128336222Y-88405789D01*
X128644559Y-87944329D01*
X128752833Y-87400000D01*
X128644559Y-86855671D01*
X128336222Y-86394211D01*
X127940801Y-86130000D01*
X128336222Y-85865789D01*
X128644559Y-85404329D01*
X128752833Y-84860000D01*
X128644559Y-84315671D01*
X128336222Y-83854211D01*
X127940801Y-83590000D01*
X128336222Y-83325789D01*
X128644559Y-82864329D01*
X128752833Y-82320000D01*
X128644559Y-81775671D01*
X128336222Y-81314211D01*
X127940801Y-81050000D01*
X128336222Y-80785789D01*
X128644559Y-80324329D01*
X128752833Y-79780000D01*
X128644559Y-79235671D01*
X128336222Y-78774211D01*
X127940801Y-78510000D01*
X128336222Y-78245789D01*
X128644559Y-77784329D01*
X128752833Y-77240000D01*
X128644559Y-76695671D01*
X128336222Y-76234211D01*
X127940801Y-75970000D01*
X128336222Y-75705789D01*
X128644559Y-75244329D01*
X128752833Y-74700000D01*
X128644559Y-74155671D01*
X128336222Y-73694211D01*
X128202461Y-73604835D01*
X128278317Y-73590562D01*
X128494441Y-73451490D01*
X128639431Y-73239290D01*
X128690440Y-72987400D01*
X128690440Y-71412600D01*
X128646162Y-71177283D01*
X128507090Y-70961159D01*
X128294890Y-70816169D01*
X128043000Y-70765160D01*
X125757000Y-70765160D01*
X125521683Y-70809438D01*
X125305559Y-70948510D01*
X125160569Y-71160710D01*
X125109560Y-71412600D01*
X120881671Y-71412600D01*
X120641810Y-71252330D01*
X120010000Y-71126655D01*
X119378190Y-71252330D01*
X119038208Y-71479499D01*
X118950090Y-71342559D01*
X118737890Y-71197569D01*
X118486000Y-71146560D01*
X116454000Y-71146560D01*
X116218683Y-71190838D01*
X116002559Y-71329910D01*
X115857569Y-71542110D01*
X115808383Y-71785000D01*
X110820716Y-71785000D01*
X110777433Y-71720222D01*
X110241810Y-71362330D01*
X109610000Y-71236655D01*
X108978190Y-71362330D01*
X108638208Y-71589499D01*
X108550090Y-71452559D01*
X108337890Y-71307569D01*
X108086000Y-71256560D01*
X106054000Y-71256560D01*
X105818683Y-71300838D01*
X105602559Y-71439910D01*
X105457569Y-71652110D01*
X105406560Y-71904000D01*
X102477000Y-71904000D01*
X102477000Y-70427000D01*
X159223000Y-70427000D01*
X159223000Y-107173000D01*
X159223000Y-107173000D01*
G37*
X159223000Y-107173000D02*
X143882774Y-107173000D01*
X143576222Y-106714211D01*
X143180801Y-106450000D01*
X143576222Y-106185789D01*
X143884559Y-105724329D01*
X143992833Y-105180000D01*
X143884559Y-104635671D01*
X143576222Y-104174211D01*
X143180801Y-103910000D01*
X143576222Y-103645789D01*
X143884559Y-103184329D01*
X143992833Y-102640000D01*
X143884559Y-102095671D01*
X143576222Y-101634211D01*
X143180801Y-101370000D01*
X143576222Y-101105789D01*
X143884559Y-100644329D01*
X143992833Y-100100000D01*
X143884559Y-99555671D01*
X143576222Y-99094211D01*
X143180801Y-98830000D01*
X143576222Y-98565789D01*
X143884559Y-98104329D01*
X143992833Y-97560000D01*
X143884559Y-97015671D01*
X143576222Y-96554211D01*
X143180801Y-96290000D01*
X143576222Y-96025789D01*
X143884559Y-95564329D01*
X143992833Y-95020000D01*
X143884559Y-94475671D01*
X143576222Y-94014211D01*
X143180801Y-93750000D01*
X143576222Y-93485789D01*
X143884559Y-93024329D01*
X143992833Y-92480000D01*
X143884559Y-91935671D01*
X143576222Y-91474211D01*
X143180801Y-91210000D01*
X143576222Y-90945789D01*
X143884559Y-90484329D01*
X143992833Y-89940000D01*
X143884559Y-89395671D01*
X143576222Y-88934211D01*
X143180801Y-88670000D01*
X143576222Y-88405789D01*
X143884559Y-87944329D01*
X143992833Y-87400000D01*
X143884559Y-86855671D01*
X143576222Y-86394211D01*
X143180801Y-86130000D01*
X143576222Y-85865789D01*
X143884559Y-85404329D01*
X143992833Y-84860000D01*
X143884559Y-84315671D01*
X143589241Y-83873694D01*
X144135226Y-83873694D01*
X144383538Y-84474655D01*
X144842927Y-84934846D01*
X145443453Y-85184206D01*
X146079960Y-85184762D01*
X146192599Y-85297401D01*
X146439161Y-85462148D01*
X146730000Y-85520000D01*
X153435352Y-85520000D01*
X153635585Y-85819670D01*
X153950366Y-86030000D01*
X153635585Y-86240330D01*
X153435352Y-86540000D01*
X146950000Y-86540000D01*
X146659161Y-86597852D01*
X146412599Y-86762599D01*
X146220423Y-86954775D01*
X146126547Y-86915794D01*
X145476306Y-86915226D01*
X144875345Y-87163538D01*
X144415154Y-87622927D01*
X144165794Y-88223453D01*
X144165226Y-88873694D01*
X144413538Y-89474655D01*
X144872927Y-89934846D01*
X145473453Y-90184206D01*
X146123694Y-90184774D01*
X146724655Y-89936462D01*
X147184846Y-89477073D01*
X147434206Y-88876547D01*
X147434774Y-88226306D01*
X147366058Y-88060000D01*
X153435352Y-88060000D01*
X153635585Y-88359670D01*
X153950366Y-88570000D01*
X153635585Y-88780330D01*
X153435352Y-89080000D01*
X150070000Y-89080000D01*
X149779161Y-89137852D01*
X149532599Y-89302599D01*
X146587732Y-92247466D01*
X146246547Y-92105794D01*
X145596306Y-92105226D01*
X144995345Y-92353538D01*
X144535154Y-92812927D01*
X144285794Y-93413453D01*
X144285226Y-94063694D01*
X144533538Y-94664655D01*
X144992927Y-95124846D01*
X145593453Y-95374206D01*
X146243694Y-95374774D01*
X146844655Y-95126462D01*
X147304846Y-94667073D01*
X147554206Y-94066547D01*
X147554762Y-93430040D01*
X150384802Y-90600000D01*
X153435352Y-90600000D01*
X153635585Y-90899670D01*
X153950366Y-91110000D01*
X153635585Y-91320330D01*
X153435352Y-91620000D01*
X152130000Y-91620000D01*
X151839161Y-91677852D01*
X151592599Y-91842599D01*
X146236830Y-97198368D01*
X146206547Y-97185794D01*
X145556306Y-97185226D01*
X144955345Y-97433538D01*
X144495154Y-97892927D01*
X144245794Y-98493453D01*
X144245226Y-99143694D01*
X144493538Y-99744655D01*
X144952927Y-100204846D01*
X145553453Y-100454206D01*
X146203694Y-100454774D01*
X146612763Y-100285750D01*
X153229000Y-100285750D01*
X153229000Y-100989910D01*
X153325673Y-101223299D01*
X153504302Y-101401927D01*
X153737691Y-101498600D01*
X154594250Y-101498600D01*
X154753000Y-101339850D01*
X154753000Y-100127000D01*
X155007000Y-100127000D01*
X155007000Y-101339850D01*
X155165750Y-101498600D01*
X156022309Y-101498600D01*
X156255698Y-101401927D01*
X156434327Y-101223299D01*
X156531000Y-100989910D01*
X156531000Y-100285750D01*
X156372250Y-100127000D01*
X155007000Y-100127000D01*
X154753000Y-100127000D01*
X153387750Y-100127000D01*
X153229000Y-100285750D01*
X146612763Y-100285750D01*
X146804655Y-100206462D01*
X147264846Y-99747073D01*
X147514206Y-99146547D01*
X147514774Y-98496306D01*
X147390138Y-98194664D01*
X152444802Y-93140000D01*
X153435352Y-93140000D01*
X153635585Y-93439670D01*
X153950366Y-93650000D01*
X153635585Y-93860330D01*
X153310729Y-94346511D01*
X153196655Y-94920000D01*
X153310729Y-95493489D01*
X153635585Y-95979670D01*
X153950366Y-96190000D01*
X153635585Y-96400330D01*
X153310729Y-96886511D01*
X153196655Y-97460000D01*
X153310729Y-98033489D01*
X153635585Y-98519670D01*
X153657780Y-98534500D01*
X153504302Y-98598073D01*
X153325673Y-98776701D01*
X153229000Y-99010090D01*
X153229000Y-99714250D01*
X153387750Y-99873000D01*
X154753000Y-99873000D01*
X154753000Y-99853000D01*
X155007000Y-99853000D01*
X155007000Y-99873000D01*
X156372250Y-99873000D01*
X156531000Y-99714250D01*
X156531000Y-99010090D01*
X156434327Y-98776701D01*
X156255698Y-98598073D01*
X156102220Y-98534500D01*
X156124415Y-98519670D01*
X156449271Y-98033489D01*
X156563345Y-97460000D01*
X156449271Y-96886511D01*
X156124415Y-96400330D01*
X155809634Y-96190000D01*
X156124415Y-95979670D01*
X156449271Y-95493489D01*
X156563345Y-94920000D01*
X156449271Y-94346511D01*
X156124415Y-93860330D01*
X155809634Y-93650000D01*
X156124415Y-93439670D01*
X156449271Y-92953489D01*
X156563345Y-92380000D01*
X156449271Y-91806511D01*
X156124415Y-91320330D01*
X155809634Y-91110000D01*
X156124415Y-90899670D01*
X156449271Y-90413489D01*
X156563345Y-89840000D01*
X156449271Y-89266511D01*
X156124415Y-88780330D01*
X155809634Y-88570000D01*
X156124415Y-88359670D01*
X156449271Y-87873489D01*
X156563345Y-87300000D01*
X156449271Y-86726511D01*
X156124415Y-86240330D01*
X155809634Y-86030000D01*
X156124415Y-85819670D01*
X156449271Y-85333489D01*
X156563345Y-84760000D01*
X156449271Y-84186511D01*
X156124415Y-83700330D01*
X155809634Y-83490000D01*
X156124415Y-83279670D01*
X156449271Y-82793489D01*
X156563345Y-82220000D01*
X156449271Y-81646511D01*
X156124415Y-81160330D01*
X156015000Y-81087221D01*
X156015000Y-80780000D01*
X155928603Y-80345654D01*
X155682566Y-79977434D01*
X153472566Y-77767434D01*
X153104346Y-77521397D01*
X152670000Y-77435000D01*
X146966484Y-77435000D01*
X146717073Y-77185154D01*
X146116547Y-76935794D01*
X145466306Y-76935226D01*
X144865345Y-77183538D01*
X144405154Y-77642927D01*
X144155794Y-78243453D01*
X144155226Y-78893694D01*
X144403538Y-79494655D01*
X144862927Y-79954846D01*
X145463453Y-80204206D01*
X146113694Y-80204774D01*
X146714655Y-79956462D01*
X146966556Y-79705000D01*
X152199868Y-79705000D01*
X153647342Y-81152474D01*
X153635585Y-81160330D01*
X153310729Y-81646511D01*
X153196655Y-82220000D01*
X153310729Y-82793489D01*
X153635585Y-83279670D01*
X153950366Y-83490000D01*
X153635585Y-83700330D01*
X153435352Y-84000000D01*
X147352944Y-84000000D01*
X147404206Y-83876547D01*
X147404774Y-83226306D01*
X147156462Y-82625345D01*
X146697073Y-82165154D01*
X146096547Y-81915794D01*
X145446306Y-81915226D01*
X144845345Y-82163538D01*
X144385154Y-82622927D01*
X144135794Y-83223453D01*
X144135226Y-83873694D01*
X143589241Y-83873694D01*
X143576222Y-83854211D01*
X143180801Y-83590000D01*
X143576222Y-83325789D01*
X143884559Y-82864329D01*
X143992833Y-82320000D01*
X143884559Y-81775671D01*
X143576222Y-81314211D01*
X143180801Y-81050000D01*
X143576222Y-80785789D01*
X143884559Y-80324329D01*
X143992833Y-79780000D01*
X143884559Y-79235671D01*
X143576222Y-78774211D01*
X143180801Y-78510000D01*
X143576222Y-78245789D01*
X143884559Y-77784329D01*
X143992833Y-77240000D01*
X143884559Y-76695671D01*
X143576222Y-76234211D01*
X143180801Y-75970000D01*
X143576222Y-75705789D01*
X143884559Y-75244329D01*
X143992833Y-74700000D01*
X143884559Y-74155671D01*
X143576222Y-73694211D01*
X143180801Y-73430000D01*
X143576222Y-73165789D01*
X143884559Y-72704329D01*
X143992833Y-72160000D01*
X143884559Y-71615671D01*
X143576222Y-71154211D01*
X143114762Y-70845874D01*
X142570433Y-70737600D01*
X141789567Y-70737600D01*
X141245238Y-70845874D01*
X140783778Y-71154211D01*
X140475441Y-71615671D01*
X140367167Y-72160000D01*
X140475441Y-72704329D01*
X140783778Y-73165789D01*
X141179199Y-73430000D01*
X140783778Y-73694211D01*
X140475441Y-74155671D01*
X140367167Y-74700000D01*
X140475441Y-75244329D01*
X140783778Y-75705789D01*
X141179199Y-75970000D01*
X140783778Y-76234211D01*
X140475441Y-76695671D01*
X140367167Y-77240000D01*
X140475441Y-77784329D01*
X140783778Y-78245789D01*
X141179199Y-78510000D01*
X140783778Y-78774211D01*
X140475441Y-79235671D01*
X140367167Y-79780000D01*
X140429748Y-80094616D01*
X139636224Y-79301092D01*
X139804206Y-78896547D01*
X139804774Y-78246306D01*
X139556462Y-77645345D01*
X139097073Y-77185154D01*
X138496547Y-76935794D01*
X137846306Y-76935226D01*
X137245345Y-77183538D01*
X136785154Y-77642927D01*
X136535794Y-78243453D01*
X136535226Y-78893694D01*
X136783538Y-79494655D01*
X137111152Y-79822841D01*
X137121397Y-79874346D01*
X137289206Y-80125490D01*
X137367434Y-80242566D01*
X140247434Y-83122566D01*
X140615654Y-83368603D01*
X140946279Y-83434369D01*
X141179199Y-83590000D01*
X140783778Y-83854211D01*
X140485912Y-84300000D01*
X139974802Y-84300000D01*
X139715885Y-84041083D01*
X139784206Y-83876547D01*
X139784774Y-83226306D01*
X139536462Y-82625345D01*
X139077073Y-82165154D01*
X138476547Y-81915794D01*
X137826306Y-81915226D01*
X137225345Y-82163538D01*
X136765154Y-82622927D01*
X136515794Y-83223453D01*
X136515226Y-83873694D01*
X136763538Y-84474655D01*
X137222927Y-84934846D01*
X137823453Y-85184206D01*
X138473694Y-85184774D01*
X138640889Y-85115691D01*
X139122599Y-85597401D01*
X139369160Y-85762148D01*
X139417414Y-85771746D01*
X139660000Y-85820000D01*
X140753183Y-85820000D01*
X140783778Y-85865789D01*
X141179199Y-86130000D01*
X140783778Y-86394211D01*
X140619547Y-86640000D01*
X139660000Y-86640000D01*
X139369161Y-86697852D01*
X139122599Y-86862599D01*
X138904259Y-87080939D01*
X138506547Y-86915794D01*
X137856306Y-86915226D01*
X137255345Y-87163538D01*
X136795154Y-87622927D01*
X136545794Y-88223453D01*
X136545226Y-88873694D01*
X136793538Y-89474655D01*
X137252927Y-89934846D01*
X137853453Y-90184206D01*
X138503694Y-90184774D01*
X139104655Y-89936462D01*
X139564846Y-89477073D01*
X139814206Y-88876547D01*
X139814692Y-88320110D01*
X139974802Y-88160000D01*
X140619547Y-88160000D01*
X140783778Y-88405789D01*
X141179199Y-88670000D01*
X140783778Y-88934211D01*
X140475441Y-89395671D01*
X140367167Y-89940000D01*
X140475441Y-90484329D01*
X140509659Y-90535539D01*
X138847610Y-92197588D01*
X138626547Y-92105794D01*
X137976306Y-92105226D01*
X137375345Y-92353538D01*
X136915154Y-92812927D01*
X136665794Y-93413453D01*
X136665226Y-94063694D01*
X136913538Y-94664655D01*
X137372927Y-95124846D01*
X137973453Y-95374206D01*
X138210785Y-95374413D01*
X137722599Y-95862599D01*
X137557852Y-96109161D01*
X137500000Y-96400000D01*
X137500000Y-97365504D01*
X137335345Y-97433538D01*
X136875154Y-97892927D01*
X136625794Y-98493453D01*
X136625226Y-99143694D01*
X136873538Y-99744655D01*
X137332927Y-100204846D01*
X137933453Y-100454206D01*
X138583694Y-100454774D01*
X139184655Y-100206462D01*
X139644846Y-99747073D01*
X139894206Y-99146547D01*
X139894774Y-98496306D01*
X139646462Y-97895345D01*
X139187073Y-97435154D01*
X139020000Y-97365779D01*
X139020000Y-96714802D01*
X140424843Y-95309959D01*
X140475441Y-95564329D01*
X140783778Y-96025789D01*
X141179199Y-96290000D01*
X140783778Y-96554211D01*
X140475441Y-97015671D01*
X140367167Y-97560000D01*
X140475441Y-98104329D01*
X140783778Y-98565789D01*
X141179199Y-98830000D01*
X140783778Y-99094211D01*
X140475441Y-99555671D01*
X140367167Y-100100000D01*
X140475441Y-100644329D01*
X140783778Y-101105789D01*
X141179199Y-101370000D01*
X140783778Y-101634211D01*
X140475441Y-102095671D01*
X140367167Y-102640000D01*
X140475441Y-103184329D01*
X140783778Y-103645789D01*
X141179199Y-103910000D01*
X140783778Y-104174211D01*
X140475441Y-104635671D01*
X140367167Y-105180000D01*
X140475441Y-105724329D01*
X140783778Y-106185789D01*
X141179199Y-106450000D01*
X140783778Y-106714211D01*
X140477226Y-107173000D01*
X128642774Y-107173000D01*
X128336222Y-106714211D01*
X127940801Y-106450000D01*
X128336222Y-106185789D01*
X128644559Y-105724329D01*
X128752833Y-105180000D01*
X128644559Y-104635671D01*
X128336222Y-104174211D01*
X127940801Y-103910000D01*
X128336222Y-103645789D01*
X128644559Y-103184329D01*
X128752833Y-102640000D01*
X128644559Y-102095671D01*
X128336222Y-101634211D01*
X127941170Y-101370246D01*
X127957262Y-101365525D01*
X128391191Y-101015986D01*
X128658327Y-100526996D01*
X128675010Y-100447060D01*
X128552852Y-100227000D01*
X127067000Y-100227000D01*
X127067000Y-100247000D01*
X126813000Y-100247000D01*
X126813000Y-100227000D01*
X125327148Y-100227000D01*
X125204990Y-100447060D01*
X125221673Y-100526996D01*
X125488809Y-101015986D01*
X125922738Y-101365525D01*
X125938830Y-101370246D01*
X125543778Y-101634211D01*
X125235441Y-102095671D01*
X125127167Y-102640000D01*
X125235441Y-103184329D01*
X125543778Y-103645789D01*
X125939199Y-103910000D01*
X125543778Y-104174211D01*
X125235441Y-104635671D01*
X125127167Y-105180000D01*
X125235441Y-105724329D01*
X125543778Y-106185789D01*
X125939199Y-106450000D01*
X125543778Y-106714211D01*
X125237226Y-107173000D01*
X102477000Y-107173000D01*
X102477000Y-104537655D01*
X105439000Y-104537655D01*
X105439000Y-104602345D01*
X105564675Y-105234155D01*
X105922567Y-105769778D01*
X106458190Y-106127670D01*
X107090000Y-106253345D01*
X107721810Y-106127670D01*
X108061792Y-105900501D01*
X108149910Y-106037441D01*
X108362110Y-106182431D01*
X108614000Y-106233440D01*
X110646000Y-106233440D01*
X110881317Y-106189162D01*
X111097441Y-106050090D01*
X111242431Y-105837890D01*
X111293440Y-105586000D01*
X111293440Y-103554000D01*
X111249162Y-103318683D01*
X111110090Y-103102559D01*
X110897890Y-102957569D01*
X110646000Y-102906560D01*
X108614000Y-102906560D01*
X108378683Y-102950838D01*
X108162559Y-103089910D01*
X108060802Y-103238837D01*
X107721810Y-103012330D01*
X107090000Y-102886655D01*
X106458190Y-103012330D01*
X105922567Y-103370222D01*
X105564675Y-103905845D01*
X105439000Y-104537655D01*
X102477000Y-104537655D01*
X102477000Y-96929026D01*
X107912642Y-96929026D01*
X107915291Y-96944791D01*
X108169268Y-97472036D01*
X108605680Y-97861954D01*
X109158087Y-98055184D01*
X109393000Y-97910924D01*
X109393000Y-96697000D01*
X109647000Y-96697000D01*
X109647000Y-97910924D01*
X109881913Y-98055184D01*
X110434320Y-97861954D01*
X110870732Y-97472036D01*
X111124709Y-96944791D01*
X111127358Y-96929026D01*
X111006217Y-96697000D01*
X109647000Y-96697000D01*
X109393000Y-96697000D01*
X108033783Y-96697000D01*
X107912642Y-96929026D01*
X102477000Y-96929026D01*
X102477000Y-96570000D01*
X115436655Y-96570000D01*
X115550729Y-97143489D01*
X115875585Y-97629670D01*
X116361766Y-97954526D01*
X116935255Y-98068600D01*
X117304745Y-98068600D01*
X117878234Y-97954526D01*
X118364415Y-97629670D01*
X118689271Y-97143489D01*
X118803345Y-96570000D01*
X118689271Y-95996511D01*
X118364415Y-95510330D01*
X117878234Y-95185474D01*
X117304745Y-95071400D01*
X116935255Y-95071400D01*
X116361766Y-95185474D01*
X115875585Y-95510330D01*
X115550729Y-95996511D01*
X115436655Y-96570000D01*
X102477000Y-96570000D01*
X102477000Y-96210974D01*
X107912642Y-96210974D01*
X108033783Y-96443000D01*
X109393000Y-96443000D01*
X109393000Y-95229076D01*
X109647000Y-95229076D01*
X109647000Y-96443000D01*
X111006217Y-96443000D01*
X111127358Y-96210974D01*
X111124709Y-96195209D01*
X110870732Y-95667964D01*
X110434320Y-95278046D01*
X109881913Y-95084816D01*
X109647000Y-95229076D01*
X109393000Y-95229076D01*
X109158087Y-95084816D01*
X108605680Y-95278046D01*
X108169268Y-95667964D01*
X107915291Y-96195209D01*
X107912642Y-96210974D01*
X102477000Y-96210974D01*
X102477000Y-78970000D01*
X105336655Y-78970000D01*
X105450729Y-79543489D01*
X105775585Y-80029670D01*
X106261766Y-80354526D01*
X106835255Y-80468600D01*
X107204745Y-80468600D01*
X107778234Y-80354526D01*
X108264415Y-80029670D01*
X108589271Y-79543489D01*
X108703345Y-78970000D01*
X108589271Y-78396511D01*
X108264415Y-77910330D01*
X107778234Y-77585474D01*
X107204745Y-77471400D01*
X106835255Y-77471400D01*
X106261766Y-77585474D01*
X105775585Y-77910330D01*
X105450729Y-78396511D01*
X105336655Y-78970000D01*
X102477000Y-78970000D01*
X102477000Y-71904000D01*
X105406560Y-71904000D01*
X105406560Y-73936000D01*
X105450838Y-74171317D01*
X105589910Y-74387441D01*
X105802110Y-74532431D01*
X106054000Y-74583440D01*
X108086000Y-74583440D01*
X108321317Y-74539162D01*
X108537441Y-74400090D01*
X108639198Y-74251163D01*
X108978190Y-74477670D01*
X109610000Y-74603345D01*
X110241810Y-74477670D01*
X110777433Y-74119778D01*
X110820716Y-74055000D01*
X115849649Y-74055000D01*
X115850838Y-74061317D01*
X115989910Y-74277441D01*
X116202110Y-74422431D01*
X116454000Y-74473440D01*
X118341428Y-74473440D01*
X109271769Y-83543099D01*
X108850316Y-83261494D01*
X108129080Y-83118031D01*
X107407844Y-83261494D01*
X106796410Y-83670041D01*
X106387863Y-84281475D01*
X106244400Y-85002711D01*
X106244400Y-87117289D01*
X106387863Y-87838525D01*
X106796410Y-88449959D01*
X107407844Y-88858506D01*
X108129080Y-89001969D01*
X108850316Y-88858506D01*
X109461750Y-88449959D01*
X109870297Y-87838525D01*
X110013760Y-87117289D01*
X110013760Y-86011372D01*
X117976323Y-78048809D01*
X117956560Y-78146400D01*
X117956560Y-79873600D01*
X118000838Y-80108917D01*
X118139910Y-80325041D01*
X118170080Y-80345655D01*
X118170080Y-83162120D01*
X118055400Y-83162120D01*
X117820083Y-83206398D01*
X117603959Y-83345470D01*
X117458969Y-83557670D01*
X117407960Y-83809560D01*
X117407960Y-88310440D01*
X117452238Y-88545757D01*
X117591310Y-88761881D01*
X117803510Y-88906871D01*
X118055400Y-88957880D01*
X120554760Y-88957880D01*
X120790077Y-88913602D01*
X121006201Y-88774530D01*
X121151191Y-88562330D01*
X121202200Y-88310440D01*
X121202200Y-83809560D01*
X121157922Y-83574243D01*
X121018850Y-83358119D01*
X120806650Y-83213129D01*
X120554760Y-83162120D01*
X120440080Y-83162120D01*
X120440080Y-80521040D01*
X120636000Y-80521040D01*
X120871317Y-80476762D01*
X121087441Y-80337690D01*
X121232431Y-80125490D01*
X121283440Y-79873600D01*
X121283440Y-78146400D01*
X121239162Y-77911083D01*
X121100090Y-77694959D01*
X120887890Y-77549969D01*
X120636000Y-77498960D01*
X118604000Y-77498960D01*
X118508133Y-77516999D01*
X120812566Y-75212566D01*
X121058603Y-74844346D01*
X121145000Y-74410000D01*
X121145000Y-74031449D01*
X121177433Y-74009778D01*
X121535325Y-73474155D01*
X121661000Y-72842345D01*
X121661000Y-72777655D01*
X121535325Y-72145845D01*
X121177433Y-71610222D01*
X120881671Y-71412600D01*
X125109560Y-71412600D01*
X125109560Y-72987400D01*
X125153838Y-73222717D01*
X125292910Y-73438841D01*
X125505110Y-73583831D01*
X125661559Y-73615513D01*
X125543778Y-73694211D01*
X125235441Y-74155671D01*
X125127167Y-74700000D01*
X125235441Y-75244329D01*
X125543778Y-75705789D01*
X125939199Y-75970000D01*
X125543778Y-76234211D01*
X125235441Y-76695671D01*
X125127167Y-77240000D01*
X125235441Y-77784329D01*
X125543778Y-78245789D01*
X125939199Y-78510000D01*
X125543778Y-78774211D01*
X125235441Y-79235671D01*
X125127167Y-79780000D01*
X125235441Y-80324329D01*
X125543778Y-80785789D01*
X125939199Y-81050000D01*
X125543778Y-81314211D01*
X125235441Y-81775671D01*
X125127167Y-82320000D01*
X125235441Y-82864329D01*
X125543778Y-83325789D01*
X125939199Y-83590000D01*
X125543778Y-83854211D01*
X125235441Y-84315671D01*
X125127167Y-84860000D01*
X125235441Y-85404329D01*
X125543778Y-85865789D01*
X125939199Y-86130000D01*
X125543778Y-86394211D01*
X125235441Y-86855671D01*
X125127167Y-87400000D01*
X125235441Y-87944329D01*
X125543778Y-88405789D01*
X125939199Y-88670000D01*
X125543778Y-88934211D01*
X125235441Y-89395671D01*
X125127167Y-89940000D01*
X125235441Y-90484329D01*
X125543778Y-90945789D01*
X125939199Y-91210000D01*
X125543778Y-91474211D01*
X125235441Y-91935671D01*
X125127167Y-92480000D01*
X125235441Y-93024329D01*
X125543778Y-93485789D01*
X125939199Y-93750000D01*
X125543778Y-94014211D01*
X125235441Y-94475671D01*
X125127167Y-95020000D01*
X125235441Y-95564329D01*
X125543778Y-96025789D01*
X125939199Y-96290000D01*
X125543778Y-96554211D01*
X125235441Y-97015671D01*
X125127167Y-97560000D01*
X125235441Y-98104329D01*
X125543778Y-98565789D01*
X125938830Y-98829754D01*
X125922738Y-98834475D01*
X125488809Y-99184014D01*
X125221673Y-99673004D01*
X125204990Y-99752940D01*
X125327148Y-99973000D01*
X126813000Y-99973000D01*
X126813000Y-99953000D01*
X127067000Y-99953000D01*
X127067000Y-99973000D01*
X128552852Y-99973000D01*
X128675010Y-99752940D01*
X128658327Y-99673004D01*
X128391191Y-99184014D01*
X127957262Y-98834475D01*
X127941170Y-98829754D01*
X128336222Y-98565789D01*
X128644559Y-98104329D01*
X128752833Y-97560000D01*
X128644559Y-97015671D01*
X128336222Y-96554211D01*
X127940801Y-96290000D01*
X128336222Y-96025789D01*
X128644559Y-95564329D01*
X128752833Y-95020000D01*
X128644559Y-94475671D01*
X128336222Y-94014211D01*
X127940801Y-93750000D01*
X128336222Y-93485789D01*
X128644559Y-93024329D01*
X128752833Y-92480000D01*
X128644559Y-91935671D01*
X128336222Y-91474211D01*
X127940801Y-91210000D01*
X128336222Y-90945789D01*
X128644559Y-90484329D01*
X128752833Y-89940000D01*
X128644559Y-89395671D01*
X128336222Y-88934211D01*
X127940801Y-88670000D01*
X128336222Y-88405789D01*
X128644559Y-87944329D01*
X128752833Y-87400000D01*
X128644559Y-86855671D01*
X128336222Y-86394211D01*
X127940801Y-86130000D01*
X128336222Y-85865789D01*
X128644559Y-85404329D01*
X128752833Y-84860000D01*
X128644559Y-84315671D01*
X128336222Y-83854211D01*
X127940801Y-83590000D01*
X128336222Y-83325789D01*
X128644559Y-82864329D01*
X128752833Y-82320000D01*
X128644559Y-81775671D01*
X128336222Y-81314211D01*
X127940801Y-81050000D01*
X128336222Y-80785789D01*
X128644559Y-80324329D01*
X128752833Y-79780000D01*
X128644559Y-79235671D01*
X128336222Y-78774211D01*
X127940801Y-78510000D01*
X128336222Y-78245789D01*
X128644559Y-77784329D01*
X128752833Y-77240000D01*
X128644559Y-76695671D01*
X128336222Y-76234211D01*
X127940801Y-75970000D01*
X128336222Y-75705789D01*
X128644559Y-75244329D01*
X128752833Y-74700000D01*
X128644559Y-74155671D01*
X128336222Y-73694211D01*
X128202461Y-73604835D01*
X128278317Y-73590562D01*
X128494441Y-73451490D01*
X128639431Y-73239290D01*
X128690440Y-72987400D01*
X128690440Y-71412600D01*
X128646162Y-71177283D01*
X128507090Y-70961159D01*
X128294890Y-70816169D01*
X128043000Y-70765160D01*
X125757000Y-70765160D01*
X125521683Y-70809438D01*
X125305559Y-70948510D01*
X125160569Y-71160710D01*
X125109560Y-71412600D01*
X120881671Y-71412600D01*
X120641810Y-71252330D01*
X120010000Y-71126655D01*
X119378190Y-71252330D01*
X119038208Y-71479499D01*
X118950090Y-71342559D01*
X118737890Y-71197569D01*
X118486000Y-71146560D01*
X116454000Y-71146560D01*
X116218683Y-71190838D01*
X116002559Y-71329910D01*
X115857569Y-71542110D01*
X115808383Y-71785000D01*
X110820716Y-71785000D01*
X110777433Y-71720222D01*
X110241810Y-71362330D01*
X109610000Y-71236655D01*
X108978190Y-71362330D01*
X108638208Y-71589499D01*
X108550090Y-71452559D01*
X108337890Y-71307569D01*
X108086000Y-71256560D01*
X106054000Y-71256560D01*
X105818683Y-71300838D01*
X105602559Y-71439910D01*
X105457569Y-71652110D01*
X105406560Y-71904000D01*
X102477000Y-71904000D01*
X102477000Y-70427000D01*
X159223000Y-70427000D01*
X159223000Y-107173000D01*
M02*
