G04 #@! TF.FileFunction,Legend,Bot*
%FSLAX46Y46*%
G04 Gerber Fmt 4.6, Leading zero omitted, Abs format (unit mm)*
G04 Created by KiCad (PCBNEW 4.0.7) date 10/23/17 21:59:23*
%MOMM*%
%LPD*%
G01*
G04 APERTURE LIST*
%ADD10C,0.100000*%
%ADD11C,0.150000*%
G04 APERTURE END LIST*
D10*
D11*
X114733080Y-86060000D02*
X117273080Y-86060000D01*
X112701080Y-86060000D02*
X110161080Y-86060000D01*
X114733080Y-86060000D02*
X112701080Y-84536000D01*
X112701080Y-84536000D02*
X112701080Y-87584000D01*
X112701080Y-87584000D02*
X114733080Y-86060000D01*
X114733080Y-84536000D02*
X114733080Y-87584000D01*
X105589080Y-88854000D02*
X105589080Y-83266000D01*
X105589080Y-83266000D02*
X121845080Y-83266000D01*
X121845080Y-83266000D02*
X121845080Y-88854000D01*
X121845080Y-88854000D02*
X105589080Y-88854000D01*
X144520000Y-77300000D02*
X139440000Y-77300000D01*
X139440000Y-77300000D02*
X139440000Y-79840000D01*
X139440000Y-79840000D02*
X144520000Y-79840000D01*
X144520000Y-79840000D02*
X144520000Y-77300000D01*
X144500000Y-82280000D02*
X139420000Y-82280000D01*
X139420000Y-82280000D02*
X139420000Y-84820000D01*
X139420000Y-84820000D02*
X144500000Y-84820000D01*
X144500000Y-84820000D02*
X144500000Y-82280000D01*
X144530000Y-87280000D02*
X139450000Y-87280000D01*
X139450000Y-87280000D02*
X139450000Y-89820000D01*
X139450000Y-89820000D02*
X144530000Y-89820000D01*
X144530000Y-89820000D02*
X144530000Y-87280000D01*
X144650000Y-92470000D02*
X139570000Y-92470000D01*
X139570000Y-92470000D02*
X139570000Y-95010000D01*
X139570000Y-95010000D02*
X144650000Y-95010000D01*
X144650000Y-95010000D02*
X144650000Y-92470000D01*
X144610000Y-97550000D02*
X139530000Y-97550000D01*
X139530000Y-97550000D02*
X139530000Y-100090000D01*
X139530000Y-100090000D02*
X144610000Y-100090000D01*
X144610000Y-100090000D02*
X144610000Y-97550000D01*
X116788095Y-82912381D02*
X116788095Y-81912381D01*
X116550000Y-81912381D01*
X116407142Y-81960000D01*
X116311904Y-82055238D01*
X116264285Y-82150476D01*
X116216666Y-82340952D01*
X116216666Y-82483810D01*
X116264285Y-82674286D01*
X116311904Y-82769524D01*
X116407142Y-82864762D01*
X116550000Y-82912381D01*
X116788095Y-82912381D01*
X115264285Y-82912381D02*
X115835714Y-82912381D01*
X115550000Y-82912381D02*
X115550000Y-81912381D01*
X115645238Y-82055238D01*
X115740476Y-82150476D01*
X115835714Y-82198095D01*
X111415175Y-87750667D02*
X110938984Y-87750667D01*
X111510413Y-88036381D02*
X111177080Y-87036381D01*
X110843746Y-88036381D01*
X148836666Y-79052381D02*
X149170000Y-78576190D01*
X149408095Y-79052381D02*
X149408095Y-78052381D01*
X149027142Y-78052381D01*
X148931904Y-78100000D01*
X148884285Y-78147619D01*
X148836666Y-78242857D01*
X148836666Y-78385714D01*
X148884285Y-78480952D01*
X148931904Y-78528571D01*
X149027142Y-78576190D01*
X149408095Y-78576190D01*
X147884285Y-79052381D02*
X148455714Y-79052381D01*
X148170000Y-79052381D02*
X148170000Y-78052381D01*
X148265238Y-78195238D01*
X148360476Y-78290476D01*
X148455714Y-78338095D01*
X136265714Y-78072381D02*
X135646666Y-78072381D01*
X135980000Y-78453333D01*
X135837142Y-78453333D01*
X135741904Y-78500952D01*
X135694285Y-78548571D01*
X135646666Y-78643810D01*
X135646666Y-78881905D01*
X135694285Y-78977143D01*
X135741904Y-79024762D01*
X135837142Y-79072381D01*
X136122857Y-79072381D01*
X136218095Y-79024762D01*
X136265714Y-78977143D01*
X135313333Y-78072381D02*
X134694285Y-78072381D01*
X135027619Y-78453333D01*
X134884761Y-78453333D01*
X134789523Y-78500952D01*
X134741904Y-78548571D01*
X134694285Y-78643810D01*
X134694285Y-78881905D01*
X134741904Y-78977143D01*
X134789523Y-79024762D01*
X134884761Y-79072381D01*
X135170476Y-79072381D01*
X135265714Y-79024762D01*
X135313333Y-78977143D01*
X134075238Y-78072381D02*
X133979999Y-78072381D01*
X133884761Y-78120000D01*
X133837142Y-78167619D01*
X133789523Y-78262857D01*
X133741904Y-78453333D01*
X133741904Y-78691429D01*
X133789523Y-78881905D01*
X133837142Y-78977143D01*
X133884761Y-79024762D01*
X133979999Y-79072381D01*
X134075238Y-79072381D01*
X134170476Y-79024762D01*
X134218095Y-78977143D01*
X134265714Y-78881905D01*
X134313333Y-78691429D01*
X134313333Y-78453333D01*
X134265714Y-78262857D01*
X134218095Y-78167619D01*
X134170476Y-78120000D01*
X134075238Y-78072381D01*
X148866666Y-84032381D02*
X149200000Y-83556190D01*
X149438095Y-84032381D02*
X149438095Y-83032381D01*
X149057142Y-83032381D01*
X148961904Y-83080000D01*
X148914285Y-83127619D01*
X148866666Y-83222857D01*
X148866666Y-83365714D01*
X148914285Y-83460952D01*
X148961904Y-83508571D01*
X149057142Y-83556190D01*
X149438095Y-83556190D01*
X148485714Y-83127619D02*
X148438095Y-83080000D01*
X148342857Y-83032381D01*
X148104761Y-83032381D01*
X148009523Y-83080000D01*
X147961904Y-83127619D01*
X147914285Y-83222857D01*
X147914285Y-83318095D01*
X147961904Y-83460952D01*
X148533333Y-84032381D01*
X147914285Y-84032381D01*
X135725238Y-83982381D02*
X136296667Y-83982381D01*
X136010953Y-83982381D02*
X136010953Y-82982381D01*
X136106191Y-83125238D01*
X136201429Y-83220476D01*
X136296667Y-83268095D01*
X135106191Y-82982381D02*
X135010952Y-82982381D01*
X134915714Y-83030000D01*
X134868095Y-83077619D01*
X134820476Y-83172857D01*
X134772857Y-83363333D01*
X134772857Y-83601429D01*
X134820476Y-83791905D01*
X134868095Y-83887143D01*
X134915714Y-83934762D01*
X135010952Y-83982381D01*
X135106191Y-83982381D01*
X135201429Y-83934762D01*
X135249048Y-83887143D01*
X135296667Y-83791905D01*
X135344286Y-83601429D01*
X135344286Y-83363333D01*
X135296667Y-83172857D01*
X135249048Y-83077619D01*
X135201429Y-83030000D01*
X135106191Y-82982381D01*
X134344286Y-83982381D02*
X134344286Y-82982381D01*
X134249048Y-83601429D02*
X133963333Y-83982381D01*
X133963333Y-83315714D02*
X134344286Y-83696667D01*
X148806666Y-89022381D02*
X149140000Y-88546190D01*
X149378095Y-89022381D02*
X149378095Y-88022381D01*
X148997142Y-88022381D01*
X148901904Y-88070000D01*
X148854285Y-88117619D01*
X148806666Y-88212857D01*
X148806666Y-88355714D01*
X148854285Y-88450952D01*
X148901904Y-88498571D01*
X148997142Y-88546190D01*
X149378095Y-88546190D01*
X148473333Y-88022381D02*
X147854285Y-88022381D01*
X148187619Y-88403333D01*
X148044761Y-88403333D01*
X147949523Y-88450952D01*
X147901904Y-88498571D01*
X147854285Y-88593810D01*
X147854285Y-88831905D01*
X147901904Y-88927143D01*
X147949523Y-88974762D01*
X148044761Y-89022381D01*
X148330476Y-89022381D01*
X148425714Y-88974762D01*
X148473333Y-88927143D01*
X135805238Y-88942381D02*
X136376667Y-88942381D01*
X136090953Y-88942381D02*
X136090953Y-87942381D01*
X136186191Y-88085238D01*
X136281429Y-88180476D01*
X136376667Y-88228095D01*
X135186191Y-87942381D02*
X135090952Y-87942381D01*
X134995714Y-87990000D01*
X134948095Y-88037619D01*
X134900476Y-88132857D01*
X134852857Y-88323333D01*
X134852857Y-88561429D01*
X134900476Y-88751905D01*
X134948095Y-88847143D01*
X134995714Y-88894762D01*
X135090952Y-88942381D01*
X135186191Y-88942381D01*
X135281429Y-88894762D01*
X135329048Y-88847143D01*
X135376667Y-88751905D01*
X135424286Y-88561429D01*
X135424286Y-88323333D01*
X135376667Y-88132857D01*
X135329048Y-88037619D01*
X135281429Y-87990000D01*
X135186191Y-87942381D01*
X134424286Y-88942381D02*
X134424286Y-87942381D01*
X134329048Y-88561429D02*
X134043333Y-88942381D01*
X134043333Y-88275714D02*
X134424286Y-88656667D01*
X148736666Y-94182381D02*
X149070000Y-93706190D01*
X149308095Y-94182381D02*
X149308095Y-93182381D01*
X148927142Y-93182381D01*
X148831904Y-93230000D01*
X148784285Y-93277619D01*
X148736666Y-93372857D01*
X148736666Y-93515714D01*
X148784285Y-93610952D01*
X148831904Y-93658571D01*
X148927142Y-93706190D01*
X149308095Y-93706190D01*
X147879523Y-93515714D02*
X147879523Y-94182381D01*
X148117619Y-93134762D02*
X148355714Y-93849048D01*
X147736666Y-93849048D01*
X135915238Y-94242381D02*
X136486667Y-94242381D01*
X136200953Y-94242381D02*
X136200953Y-93242381D01*
X136296191Y-93385238D01*
X136391429Y-93480476D01*
X136486667Y-93528095D01*
X135296191Y-93242381D02*
X135200952Y-93242381D01*
X135105714Y-93290000D01*
X135058095Y-93337619D01*
X135010476Y-93432857D01*
X134962857Y-93623333D01*
X134962857Y-93861429D01*
X135010476Y-94051905D01*
X135058095Y-94147143D01*
X135105714Y-94194762D01*
X135200952Y-94242381D01*
X135296191Y-94242381D01*
X135391429Y-94194762D01*
X135439048Y-94147143D01*
X135486667Y-94051905D01*
X135534286Y-93861429D01*
X135534286Y-93623333D01*
X135486667Y-93432857D01*
X135439048Y-93337619D01*
X135391429Y-93290000D01*
X135296191Y-93242381D01*
X134534286Y-94242381D02*
X134534286Y-93242381D01*
X134439048Y-93861429D02*
X134153333Y-94242381D01*
X134153333Y-93575714D02*
X134534286Y-93956667D01*
X148606666Y-99252381D02*
X148940000Y-98776190D01*
X149178095Y-99252381D02*
X149178095Y-98252381D01*
X148797142Y-98252381D01*
X148701904Y-98300000D01*
X148654285Y-98347619D01*
X148606666Y-98442857D01*
X148606666Y-98585714D01*
X148654285Y-98680952D01*
X148701904Y-98728571D01*
X148797142Y-98776190D01*
X149178095Y-98776190D01*
X147701904Y-98252381D02*
X148178095Y-98252381D01*
X148225714Y-98728571D01*
X148178095Y-98680952D01*
X148082857Y-98633333D01*
X147844761Y-98633333D01*
X147749523Y-98680952D01*
X147701904Y-98728571D01*
X147654285Y-98823810D01*
X147654285Y-99061905D01*
X147701904Y-99157143D01*
X147749523Y-99204762D01*
X147844761Y-99252381D01*
X148082857Y-99252381D01*
X148178095Y-99204762D01*
X148225714Y-99157143D01*
X135985238Y-99162381D02*
X136556667Y-99162381D01*
X136270953Y-99162381D02*
X136270953Y-98162381D01*
X136366191Y-98305238D01*
X136461429Y-98400476D01*
X136556667Y-98448095D01*
X135366191Y-98162381D02*
X135270952Y-98162381D01*
X135175714Y-98210000D01*
X135128095Y-98257619D01*
X135080476Y-98352857D01*
X135032857Y-98543333D01*
X135032857Y-98781429D01*
X135080476Y-98971905D01*
X135128095Y-99067143D01*
X135175714Y-99114762D01*
X135270952Y-99162381D01*
X135366191Y-99162381D01*
X135461429Y-99114762D01*
X135509048Y-99067143D01*
X135556667Y-98971905D01*
X135604286Y-98781429D01*
X135604286Y-98543333D01*
X135556667Y-98352857D01*
X135509048Y-98257619D01*
X135461429Y-98210000D01*
X135366191Y-98162381D01*
X134604286Y-99162381D02*
X134604286Y-98162381D01*
X134509048Y-98781429D02*
X134223333Y-99162381D01*
X134223333Y-98495714D02*
X134604286Y-98876667D01*
M02*
