G04 #@! TF.FileFunction,Copper,L2,Bot,Signal*
%FSLAX46Y46*%
G04 Gerber Fmt 4.6, Leading zero omitted, Abs format (unit mm)*
G04 Created by KiCad (PCBNEW 4.0.7) date 10/23/17 21:59:23*
%MOMM*%
%LPD*%
G01*
G04 APERTURE LIST*
%ADD10C,0.100000*%
%ADD11R,2.499360X4.500880*%
%ADD12O,2.499360X4.500880*%
%ADD13O,2.032000X1.727200*%
%ADD14R,2.032000X1.727200*%
%ADD15R,2.032000X2.032000*%
%ADD16O,2.032000X2.032000*%
%ADD17C,1.998980*%
%ADD18R,2.286000X1.574800*%
%ADD19O,2.286000X1.574800*%
%ADD20C,0.250000*%
%ADD21C,0.254000*%
G04 APERTURE END LIST*
D10*
D11*
X119305080Y-86060000D03*
D12*
X108129080Y-86060000D03*
D13*
X117120000Y-96570000D03*
X109520000Y-96570000D03*
X107020000Y-78970000D03*
D14*
X119620000Y-79010000D03*
D15*
X117470000Y-72810000D03*
D16*
X120010000Y-72810000D03*
D15*
X107070000Y-72920000D03*
D16*
X109610000Y-72920000D03*
D15*
X109630000Y-104570000D03*
D16*
X107090000Y-104570000D03*
D14*
X154880000Y-100000000D03*
D13*
X154880000Y-97460000D03*
X154880000Y-94920000D03*
X154880000Y-92380000D03*
X154880000Y-89840000D03*
X154880000Y-87300000D03*
X154880000Y-84760000D03*
X154880000Y-82220000D03*
D17*
X145790000Y-78570000D03*
X138170000Y-78570000D03*
X145770000Y-83550000D03*
X138150000Y-83550000D03*
X145800000Y-88550000D03*
X138180000Y-88550000D03*
X145920000Y-93740000D03*
X138300000Y-93740000D03*
X145880000Y-98820000D03*
X138260000Y-98820000D03*
D18*
X126900000Y-72200000D03*
D19*
X126940000Y-74700000D03*
X126940000Y-77240000D03*
X126940000Y-79780000D03*
X126940000Y-82320000D03*
X126940000Y-84860000D03*
X126940000Y-87400000D03*
X126940000Y-89940000D03*
X126940000Y-92480000D03*
X126940000Y-95020000D03*
X126940000Y-97560000D03*
X126940000Y-100100000D03*
X126940000Y-102640000D03*
X126940000Y-105180000D03*
X126940000Y-107720000D03*
X142180000Y-107720000D03*
X142180000Y-105180000D03*
X142180000Y-102640000D03*
X142180000Y-100100000D03*
X142180000Y-97560000D03*
X142180000Y-95020000D03*
X142180000Y-92480000D03*
X142180000Y-89940000D03*
X142180000Y-87400000D03*
X142180000Y-84860000D03*
X142180000Y-82320000D03*
X142180000Y-79780000D03*
X142180000Y-77240000D03*
X142180000Y-74700000D03*
X142180000Y-72160000D03*
D20*
X125040000Y-101350000D02*
X124020000Y-101350000D01*
X125040000Y-101350000D02*
X131110000Y-101350000D01*
X131110000Y-101350000D02*
X132810000Y-99650000D01*
X132810000Y-99650000D02*
X132810000Y-76460000D01*
X132810000Y-76460000D02*
X137110000Y-72160000D01*
X142180000Y-72160000D02*
X137110000Y-72160000D01*
X120800000Y-104570000D02*
X109630000Y-104570000D01*
X124020000Y-101350000D02*
X120800000Y-104570000D01*
D21*
G36*
X159223000Y-107173000D02*
X143882774Y-107173000D01*
X143576222Y-106714211D01*
X143180801Y-106450000D01*
X143576222Y-106185789D01*
X143884559Y-105724329D01*
X143992833Y-105180000D01*
X143884559Y-104635671D01*
X143576222Y-104174211D01*
X143180801Y-103910000D01*
X143576222Y-103645789D01*
X143884559Y-103184329D01*
X143992833Y-102640000D01*
X143884559Y-102095671D01*
X143576222Y-101634211D01*
X143181170Y-101370246D01*
X143197262Y-101365525D01*
X143631191Y-101015986D01*
X143898327Y-100526996D01*
X143915010Y-100447060D01*
X143792852Y-100227000D01*
X142307000Y-100227000D01*
X142307000Y-100247000D01*
X142053000Y-100247000D01*
X142053000Y-100227000D01*
X140567148Y-100227000D01*
X140444990Y-100447060D01*
X140461673Y-100526996D01*
X140728809Y-101015986D01*
X141162738Y-101365525D01*
X141178830Y-101370246D01*
X140783778Y-101634211D01*
X140475441Y-102095671D01*
X140367167Y-102640000D01*
X140475441Y-103184329D01*
X140783778Y-103645789D01*
X141179199Y-103910000D01*
X140783778Y-104174211D01*
X140475441Y-104635671D01*
X140367167Y-105180000D01*
X140475441Y-105724329D01*
X140783778Y-106185789D01*
X141179199Y-106450000D01*
X140783778Y-106714211D01*
X140477226Y-107173000D01*
X128642774Y-107173000D01*
X128336222Y-106714211D01*
X127941170Y-106450246D01*
X127957262Y-106445525D01*
X128391191Y-106095986D01*
X128658327Y-105606996D01*
X128675010Y-105527060D01*
X128552852Y-105307000D01*
X127067000Y-105307000D01*
X127067000Y-105327000D01*
X126813000Y-105327000D01*
X126813000Y-105307000D01*
X125327148Y-105307000D01*
X125204990Y-105527060D01*
X125221673Y-105606996D01*
X125488809Y-106095986D01*
X125922738Y-106445525D01*
X125938830Y-106450246D01*
X125543778Y-106714211D01*
X125237226Y-107173000D01*
X102477000Y-107173000D01*
X102477000Y-104952946D01*
X105484017Y-104952946D01*
X105752812Y-105538379D01*
X106225182Y-105976385D01*
X106707056Y-106175975D01*
X106963000Y-106056836D01*
X106963000Y-104697000D01*
X105602633Y-104697000D01*
X105484017Y-104952946D01*
X102477000Y-104952946D01*
X102477000Y-104187054D01*
X105484017Y-104187054D01*
X105602633Y-104443000D01*
X106963000Y-104443000D01*
X106963000Y-103083164D01*
X107217000Y-103083164D01*
X107217000Y-104443000D01*
X107237000Y-104443000D01*
X107237000Y-104697000D01*
X107217000Y-104697000D01*
X107217000Y-106056836D01*
X107472944Y-106175975D01*
X107954818Y-105976385D01*
X108052398Y-105885903D01*
X108149910Y-106037441D01*
X108362110Y-106182431D01*
X108614000Y-106233440D01*
X110646000Y-106233440D01*
X110881317Y-106189162D01*
X111097441Y-106050090D01*
X111242431Y-105837890D01*
X111293440Y-105586000D01*
X111293440Y-105330000D01*
X120800000Y-105330000D01*
X121090839Y-105272148D01*
X121337401Y-105107401D01*
X124334802Y-102110000D01*
X125232591Y-102110000D01*
X125127167Y-102640000D01*
X125235441Y-103184329D01*
X125543778Y-103645789D01*
X125938830Y-103909754D01*
X125922738Y-103914475D01*
X125488809Y-104264014D01*
X125221673Y-104753004D01*
X125204990Y-104832940D01*
X125327148Y-105053000D01*
X126813000Y-105053000D01*
X126813000Y-105033000D01*
X127067000Y-105033000D01*
X127067000Y-105053000D01*
X128552852Y-105053000D01*
X128675010Y-104832940D01*
X128658327Y-104753004D01*
X128391191Y-104264014D01*
X127957262Y-103914475D01*
X127941170Y-103909754D01*
X128336222Y-103645789D01*
X128644559Y-103184329D01*
X128752833Y-102640000D01*
X128647409Y-102110000D01*
X131110000Y-102110000D01*
X131400839Y-102052148D01*
X131647401Y-101887401D01*
X133347401Y-100187401D01*
X133512148Y-99940839D01*
X133570000Y-99650000D01*
X133570000Y-99143694D01*
X136625226Y-99143694D01*
X136873538Y-99744655D01*
X137332927Y-100204846D01*
X137933453Y-100454206D01*
X138583694Y-100454774D01*
X139184655Y-100206462D01*
X139644846Y-99747073D01*
X139894206Y-99146547D01*
X139894774Y-98496306D01*
X139646462Y-97895345D01*
X139187073Y-97435154D01*
X138586547Y-97185794D01*
X137936306Y-97185226D01*
X137335345Y-97433538D01*
X136875154Y-97892927D01*
X136625794Y-98493453D01*
X136625226Y-99143694D01*
X133570000Y-99143694D01*
X133570000Y-94063694D01*
X136665226Y-94063694D01*
X136913538Y-94664655D01*
X137372927Y-95124846D01*
X137973453Y-95374206D01*
X138623694Y-95374774D01*
X139224655Y-95126462D01*
X139684846Y-94667073D01*
X139934206Y-94066547D01*
X139934774Y-93416306D01*
X139686462Y-92815345D01*
X139227073Y-92355154D01*
X138626547Y-92105794D01*
X137976306Y-92105226D01*
X137375345Y-92353538D01*
X136915154Y-92812927D01*
X136665794Y-93413453D01*
X136665226Y-94063694D01*
X133570000Y-94063694D01*
X133570000Y-88873694D01*
X136545226Y-88873694D01*
X136793538Y-89474655D01*
X137252927Y-89934846D01*
X137853453Y-90184206D01*
X138503694Y-90184774D01*
X139104655Y-89936462D01*
X139564846Y-89477073D01*
X139814206Y-88876547D01*
X139814774Y-88226306D01*
X139566462Y-87625345D01*
X139107073Y-87165154D01*
X138506547Y-86915794D01*
X137856306Y-86915226D01*
X137255345Y-87163538D01*
X136795154Y-87622927D01*
X136545794Y-88223453D01*
X136545226Y-88873694D01*
X133570000Y-88873694D01*
X133570000Y-83873694D01*
X136515226Y-83873694D01*
X136763538Y-84474655D01*
X137222927Y-84934846D01*
X137823453Y-85184206D01*
X138473694Y-85184774D01*
X139074655Y-84936462D01*
X139534846Y-84477073D01*
X139784206Y-83876547D01*
X139784774Y-83226306D01*
X139536462Y-82625345D01*
X139077073Y-82165154D01*
X138476547Y-81915794D01*
X137826306Y-81915226D01*
X137225345Y-82163538D01*
X136765154Y-82622927D01*
X136515794Y-83223453D01*
X136515226Y-83873694D01*
X133570000Y-83873694D01*
X133570000Y-78893694D01*
X136535226Y-78893694D01*
X136783538Y-79494655D01*
X137242927Y-79954846D01*
X137843453Y-80204206D01*
X138493694Y-80204774D01*
X139094655Y-79956462D01*
X139554846Y-79497073D01*
X139804206Y-78896547D01*
X139804774Y-78246306D01*
X139556462Y-77645345D01*
X139097073Y-77185154D01*
X138496547Y-76935794D01*
X137846306Y-76935226D01*
X137245345Y-77183538D01*
X136785154Y-77642927D01*
X136535794Y-78243453D01*
X136535226Y-78893694D01*
X133570000Y-78893694D01*
X133570000Y-76774802D01*
X137424802Y-72920000D01*
X140619547Y-72920000D01*
X140783778Y-73165789D01*
X141179199Y-73430000D01*
X140783778Y-73694211D01*
X140475441Y-74155671D01*
X140367167Y-74700000D01*
X140475441Y-75244329D01*
X140783778Y-75705789D01*
X141179199Y-75970000D01*
X140783778Y-76234211D01*
X140475441Y-76695671D01*
X140367167Y-77240000D01*
X140475441Y-77784329D01*
X140783778Y-78245789D01*
X141179199Y-78510000D01*
X140783778Y-78774211D01*
X140475441Y-79235671D01*
X140367167Y-79780000D01*
X140475441Y-80324329D01*
X140783778Y-80785789D01*
X141179199Y-81050000D01*
X140783778Y-81314211D01*
X140475441Y-81775671D01*
X140367167Y-82320000D01*
X140475441Y-82864329D01*
X140783778Y-83325789D01*
X141179199Y-83590000D01*
X140783778Y-83854211D01*
X140475441Y-84315671D01*
X140367167Y-84860000D01*
X140475441Y-85404329D01*
X140783778Y-85865789D01*
X141179199Y-86130000D01*
X140783778Y-86394211D01*
X140475441Y-86855671D01*
X140367167Y-87400000D01*
X140475441Y-87944329D01*
X140783778Y-88405789D01*
X141179199Y-88670000D01*
X140783778Y-88934211D01*
X140475441Y-89395671D01*
X140367167Y-89940000D01*
X140475441Y-90484329D01*
X140783778Y-90945789D01*
X141179199Y-91210000D01*
X140783778Y-91474211D01*
X140475441Y-91935671D01*
X140367167Y-92480000D01*
X140475441Y-93024329D01*
X140783778Y-93485789D01*
X141179199Y-93750000D01*
X140783778Y-94014211D01*
X140475441Y-94475671D01*
X140367167Y-95020000D01*
X140475441Y-95564329D01*
X140783778Y-96025789D01*
X141179199Y-96290000D01*
X140783778Y-96554211D01*
X140475441Y-97015671D01*
X140367167Y-97560000D01*
X140475441Y-98104329D01*
X140783778Y-98565789D01*
X141178830Y-98829754D01*
X141162738Y-98834475D01*
X140728809Y-99184014D01*
X140461673Y-99673004D01*
X140444990Y-99752940D01*
X140567148Y-99973000D01*
X142053000Y-99973000D01*
X142053000Y-99953000D01*
X142307000Y-99953000D01*
X142307000Y-99973000D01*
X143792852Y-99973000D01*
X143915010Y-99752940D01*
X143898327Y-99673004D01*
X143631191Y-99184014D01*
X143581137Y-99143694D01*
X144245226Y-99143694D01*
X144493538Y-99744655D01*
X144952927Y-100204846D01*
X145553453Y-100454206D01*
X146203694Y-100454774D01*
X146804655Y-100206462D01*
X147264846Y-99747073D01*
X147514206Y-99146547D01*
X147514214Y-99136400D01*
X153216560Y-99136400D01*
X153216560Y-100863600D01*
X153260838Y-101098917D01*
X153399910Y-101315041D01*
X153612110Y-101460031D01*
X153864000Y-101511040D01*
X155896000Y-101511040D01*
X156131317Y-101466762D01*
X156347441Y-101327690D01*
X156492431Y-101115490D01*
X156543440Y-100863600D01*
X156543440Y-99136400D01*
X156499162Y-98901083D01*
X156360090Y-98684959D01*
X156147890Y-98539969D01*
X156053073Y-98520768D01*
X156230732Y-98362036D01*
X156484709Y-97834791D01*
X156487358Y-97819026D01*
X156366217Y-97587000D01*
X155007000Y-97587000D01*
X155007000Y-97607000D01*
X154753000Y-97607000D01*
X154753000Y-97587000D01*
X153393783Y-97587000D01*
X153272642Y-97819026D01*
X153275291Y-97834791D01*
X153529268Y-98362036D01*
X153704845Y-98518907D01*
X153628683Y-98533238D01*
X153412559Y-98672310D01*
X153267569Y-98884510D01*
X153216560Y-99136400D01*
X147514214Y-99136400D01*
X147514774Y-98496306D01*
X147266462Y-97895345D01*
X146807073Y-97435154D01*
X146206547Y-97185794D01*
X145556306Y-97185226D01*
X144955345Y-97433538D01*
X144495154Y-97892927D01*
X144245794Y-98493453D01*
X144245226Y-99143694D01*
X143581137Y-99143694D01*
X143197262Y-98834475D01*
X143181170Y-98829754D01*
X143576222Y-98565789D01*
X143884559Y-98104329D01*
X143992833Y-97560000D01*
X143884559Y-97015671D01*
X143576222Y-96554211D01*
X143180801Y-96290000D01*
X143576222Y-96025789D01*
X143884559Y-95564329D01*
X143992833Y-95020000D01*
X143884559Y-94475671D01*
X143609286Y-94063694D01*
X144285226Y-94063694D01*
X144533538Y-94664655D01*
X144992927Y-95124846D01*
X145593453Y-95374206D01*
X146243694Y-95374774D01*
X146475421Y-95279026D01*
X153272642Y-95279026D01*
X153275291Y-95294791D01*
X153529268Y-95822036D01*
X153941108Y-96190000D01*
X153529268Y-96557964D01*
X153275291Y-97085209D01*
X153272642Y-97100974D01*
X153393783Y-97333000D01*
X154753000Y-97333000D01*
X154753000Y-95047000D01*
X155007000Y-95047000D01*
X155007000Y-97333000D01*
X156366217Y-97333000D01*
X156487358Y-97100974D01*
X156484709Y-97085209D01*
X156230732Y-96557964D01*
X155818892Y-96190000D01*
X156230732Y-95822036D01*
X156484709Y-95294791D01*
X156487358Y-95279026D01*
X156366217Y-95047000D01*
X155007000Y-95047000D01*
X154753000Y-95047000D01*
X153393783Y-95047000D01*
X153272642Y-95279026D01*
X146475421Y-95279026D01*
X146844655Y-95126462D01*
X147304846Y-94667073D01*
X147554206Y-94066547D01*
X147554774Y-93416306D01*
X147306462Y-92815345D01*
X146847073Y-92355154D01*
X146246547Y-92105794D01*
X145596306Y-92105226D01*
X144995345Y-92353538D01*
X144535154Y-92812927D01*
X144285794Y-93413453D01*
X144285226Y-94063694D01*
X143609286Y-94063694D01*
X143576222Y-94014211D01*
X143180801Y-93750000D01*
X143576222Y-93485789D01*
X143884559Y-93024329D01*
X143992833Y-92480000D01*
X143884559Y-91935671D01*
X143576222Y-91474211D01*
X143180801Y-91210000D01*
X143576222Y-90945789D01*
X143884559Y-90484329D01*
X143992833Y-89940000D01*
X143884559Y-89395671D01*
X143576222Y-88934211D01*
X143485652Y-88873694D01*
X144165226Y-88873694D01*
X144413538Y-89474655D01*
X144872927Y-89934846D01*
X145473453Y-90184206D01*
X146123694Y-90184774D01*
X146724655Y-89936462D01*
X147184846Y-89477073D01*
X147434206Y-88876547D01*
X147434774Y-88226306D01*
X147186462Y-87625345D01*
X146727073Y-87165154D01*
X146126547Y-86915794D01*
X145476306Y-86915226D01*
X144875345Y-87163538D01*
X144415154Y-87622927D01*
X144165794Y-88223453D01*
X144165226Y-88873694D01*
X143485652Y-88873694D01*
X143180801Y-88670000D01*
X143576222Y-88405789D01*
X143884559Y-87944329D01*
X143992833Y-87400000D01*
X143884559Y-86855671D01*
X143576222Y-86394211D01*
X143180801Y-86130000D01*
X143576222Y-85865789D01*
X143884559Y-85404329D01*
X143992833Y-84860000D01*
X143884559Y-84315671D01*
X143589241Y-83873694D01*
X144135226Y-83873694D01*
X144383538Y-84474655D01*
X144842927Y-84934846D01*
X145443453Y-85184206D01*
X146093694Y-85184774D01*
X146694655Y-84936462D01*
X147154846Y-84477073D01*
X147404206Y-83876547D01*
X147404774Y-83226306D01*
X147156462Y-82625345D01*
X146751824Y-82220000D01*
X153196655Y-82220000D01*
X153310729Y-82793489D01*
X153635585Y-83279670D01*
X153950366Y-83490000D01*
X153635585Y-83700330D01*
X153310729Y-84186511D01*
X153196655Y-84760000D01*
X153310729Y-85333489D01*
X153635585Y-85819670D01*
X153950366Y-86030000D01*
X153635585Y-86240330D01*
X153310729Y-86726511D01*
X153196655Y-87300000D01*
X153310729Y-87873489D01*
X153635585Y-88359670D01*
X153950366Y-88570000D01*
X153635585Y-88780330D01*
X153310729Y-89266511D01*
X153196655Y-89840000D01*
X153310729Y-90413489D01*
X153635585Y-90899670D01*
X153950366Y-91110000D01*
X153635585Y-91320330D01*
X153310729Y-91806511D01*
X153196655Y-92380000D01*
X153310729Y-92953489D01*
X153635585Y-93439670D01*
X153945069Y-93646461D01*
X153529268Y-94017964D01*
X153275291Y-94545209D01*
X153272642Y-94560974D01*
X153393783Y-94793000D01*
X154753000Y-94793000D01*
X154753000Y-94773000D01*
X155007000Y-94773000D01*
X155007000Y-94793000D01*
X156366217Y-94793000D01*
X156487358Y-94560974D01*
X156484709Y-94545209D01*
X156230732Y-94017964D01*
X155814931Y-93646461D01*
X156124415Y-93439670D01*
X156449271Y-92953489D01*
X156563345Y-92380000D01*
X156449271Y-91806511D01*
X156124415Y-91320330D01*
X155809634Y-91110000D01*
X156124415Y-90899670D01*
X156449271Y-90413489D01*
X156563345Y-89840000D01*
X156449271Y-89266511D01*
X156124415Y-88780330D01*
X155809634Y-88570000D01*
X156124415Y-88359670D01*
X156449271Y-87873489D01*
X156563345Y-87300000D01*
X156449271Y-86726511D01*
X156124415Y-86240330D01*
X155809634Y-86030000D01*
X156124415Y-85819670D01*
X156449271Y-85333489D01*
X156563345Y-84760000D01*
X156449271Y-84186511D01*
X156124415Y-83700330D01*
X155809634Y-83490000D01*
X156124415Y-83279670D01*
X156449271Y-82793489D01*
X156563345Y-82220000D01*
X156449271Y-81646511D01*
X156124415Y-81160330D01*
X155638234Y-80835474D01*
X155064745Y-80721400D01*
X154695255Y-80721400D01*
X154121766Y-80835474D01*
X153635585Y-81160330D01*
X153310729Y-81646511D01*
X153196655Y-82220000D01*
X146751824Y-82220000D01*
X146697073Y-82165154D01*
X146096547Y-81915794D01*
X145446306Y-81915226D01*
X144845345Y-82163538D01*
X144385154Y-82622927D01*
X144135794Y-83223453D01*
X144135226Y-83873694D01*
X143589241Y-83873694D01*
X143576222Y-83854211D01*
X143180801Y-83590000D01*
X143576222Y-83325789D01*
X143884559Y-82864329D01*
X143992833Y-82320000D01*
X143884559Y-81775671D01*
X143576222Y-81314211D01*
X143180801Y-81050000D01*
X143576222Y-80785789D01*
X143884559Y-80324329D01*
X143992833Y-79780000D01*
X143884559Y-79235671D01*
X143656058Y-78893694D01*
X144155226Y-78893694D01*
X144403538Y-79494655D01*
X144862927Y-79954846D01*
X145463453Y-80204206D01*
X146113694Y-80204774D01*
X146714655Y-79956462D01*
X147174846Y-79497073D01*
X147424206Y-78896547D01*
X147424774Y-78246306D01*
X147176462Y-77645345D01*
X146717073Y-77185154D01*
X146116547Y-76935794D01*
X145466306Y-76935226D01*
X144865345Y-77183538D01*
X144405154Y-77642927D01*
X144155794Y-78243453D01*
X144155226Y-78893694D01*
X143656058Y-78893694D01*
X143576222Y-78774211D01*
X143180801Y-78510000D01*
X143576222Y-78245789D01*
X143884559Y-77784329D01*
X143992833Y-77240000D01*
X143884559Y-76695671D01*
X143576222Y-76234211D01*
X143180801Y-75970000D01*
X143576222Y-75705789D01*
X143884559Y-75244329D01*
X143992833Y-74700000D01*
X143884559Y-74155671D01*
X143576222Y-73694211D01*
X143180801Y-73430000D01*
X143576222Y-73165789D01*
X143884559Y-72704329D01*
X143992833Y-72160000D01*
X143884559Y-71615671D01*
X143576222Y-71154211D01*
X143114762Y-70845874D01*
X142570433Y-70737600D01*
X141789567Y-70737600D01*
X141245238Y-70845874D01*
X140783778Y-71154211D01*
X140619547Y-71400000D01*
X137110000Y-71400000D01*
X136819160Y-71457852D01*
X136572599Y-71622599D01*
X132272599Y-75922599D01*
X132107852Y-76169161D01*
X132050000Y-76460000D01*
X132050000Y-99335198D01*
X130795198Y-100590000D01*
X128655366Y-100590000D01*
X128752833Y-100100000D01*
X128644559Y-99555671D01*
X128336222Y-99094211D01*
X127940801Y-98830000D01*
X128336222Y-98565789D01*
X128644559Y-98104329D01*
X128752833Y-97560000D01*
X128644559Y-97015671D01*
X128336222Y-96554211D01*
X127940801Y-96290000D01*
X128336222Y-96025789D01*
X128644559Y-95564329D01*
X128752833Y-95020000D01*
X128644559Y-94475671D01*
X128336222Y-94014211D01*
X127940801Y-93750000D01*
X128336222Y-93485789D01*
X128644559Y-93024329D01*
X128752833Y-92480000D01*
X128644559Y-91935671D01*
X128336222Y-91474211D01*
X127940801Y-91210000D01*
X128336222Y-90945789D01*
X128644559Y-90484329D01*
X128752833Y-89940000D01*
X128644559Y-89395671D01*
X128336222Y-88934211D01*
X127940801Y-88670000D01*
X128336222Y-88405789D01*
X128644559Y-87944329D01*
X128752833Y-87400000D01*
X128644559Y-86855671D01*
X128336222Y-86394211D01*
X127940801Y-86130000D01*
X128336222Y-85865789D01*
X128644559Y-85404329D01*
X128752833Y-84860000D01*
X128644559Y-84315671D01*
X128336222Y-83854211D01*
X127940801Y-83590000D01*
X128336222Y-83325789D01*
X128644559Y-82864329D01*
X128752833Y-82320000D01*
X128644559Y-81775671D01*
X128336222Y-81314211D01*
X127940801Y-81050000D01*
X128336222Y-80785789D01*
X128644559Y-80324329D01*
X128752833Y-79780000D01*
X128644559Y-79235671D01*
X128336222Y-78774211D01*
X127940801Y-78510000D01*
X128336222Y-78245789D01*
X128644559Y-77784329D01*
X128752833Y-77240000D01*
X128644559Y-76695671D01*
X128336222Y-76234211D01*
X127940801Y-75970000D01*
X128336222Y-75705789D01*
X128644559Y-75244329D01*
X128752833Y-74700000D01*
X128644559Y-74155671D01*
X128336222Y-73694211D01*
X128202461Y-73604835D01*
X128278317Y-73590562D01*
X128494441Y-73451490D01*
X128639431Y-73239290D01*
X128690440Y-72987400D01*
X128690440Y-71412600D01*
X128646162Y-71177283D01*
X128507090Y-70961159D01*
X128294890Y-70816169D01*
X128043000Y-70765160D01*
X125757000Y-70765160D01*
X125521683Y-70809438D01*
X125305559Y-70948510D01*
X125160569Y-71160710D01*
X125109560Y-71412600D01*
X125109560Y-72987400D01*
X125153838Y-73222717D01*
X125292910Y-73438841D01*
X125505110Y-73583831D01*
X125661559Y-73615513D01*
X125543778Y-73694211D01*
X125235441Y-74155671D01*
X125127167Y-74700000D01*
X125235441Y-75244329D01*
X125543778Y-75705789D01*
X125939199Y-75970000D01*
X125543778Y-76234211D01*
X125235441Y-76695671D01*
X125127167Y-77240000D01*
X125235441Y-77784329D01*
X125543778Y-78245789D01*
X125939199Y-78510000D01*
X125543778Y-78774211D01*
X125235441Y-79235671D01*
X125127167Y-79780000D01*
X125235441Y-80324329D01*
X125543778Y-80785789D01*
X125939199Y-81050000D01*
X125543778Y-81314211D01*
X125235441Y-81775671D01*
X125127167Y-82320000D01*
X125235441Y-82864329D01*
X125543778Y-83325789D01*
X125939199Y-83590000D01*
X125543778Y-83854211D01*
X125235441Y-84315671D01*
X125127167Y-84860000D01*
X125235441Y-85404329D01*
X125543778Y-85865789D01*
X125939199Y-86130000D01*
X125543778Y-86394211D01*
X125235441Y-86855671D01*
X125127167Y-87400000D01*
X125235441Y-87944329D01*
X125543778Y-88405789D01*
X125939199Y-88670000D01*
X125543778Y-88934211D01*
X125235441Y-89395671D01*
X125127167Y-89940000D01*
X125235441Y-90484329D01*
X125543778Y-90945789D01*
X125939199Y-91210000D01*
X125543778Y-91474211D01*
X125235441Y-91935671D01*
X125127167Y-92480000D01*
X125235441Y-93024329D01*
X125543778Y-93485789D01*
X125939199Y-93750000D01*
X125543778Y-94014211D01*
X125235441Y-94475671D01*
X125127167Y-95020000D01*
X125235441Y-95564329D01*
X125543778Y-96025789D01*
X125939199Y-96290000D01*
X125543778Y-96554211D01*
X125235441Y-97015671D01*
X125127167Y-97560000D01*
X125235441Y-98104329D01*
X125543778Y-98565789D01*
X125939199Y-98830000D01*
X125543778Y-99094211D01*
X125235441Y-99555671D01*
X125127167Y-100100000D01*
X125224634Y-100590000D01*
X124020000Y-100590000D01*
X123729161Y-100647852D01*
X123482599Y-100812599D01*
X120485198Y-103810000D01*
X111293440Y-103810000D01*
X111293440Y-103554000D01*
X111249162Y-103318683D01*
X111110090Y-103102559D01*
X110897890Y-102957569D01*
X110646000Y-102906560D01*
X108614000Y-102906560D01*
X108378683Y-102950838D01*
X108162559Y-103089910D01*
X108051160Y-103252948D01*
X107954818Y-103163615D01*
X107472944Y-102964025D01*
X107217000Y-103083164D01*
X106963000Y-103083164D01*
X106707056Y-102964025D01*
X106225182Y-103163615D01*
X105752812Y-103601621D01*
X105484017Y-104187054D01*
X102477000Y-104187054D01*
X102477000Y-96570000D01*
X107836655Y-96570000D01*
X107950729Y-97143489D01*
X108275585Y-97629670D01*
X108761766Y-97954526D01*
X109335255Y-98068600D01*
X109704745Y-98068600D01*
X110278234Y-97954526D01*
X110764415Y-97629670D01*
X111089271Y-97143489D01*
X111131930Y-96929026D01*
X115512642Y-96929026D01*
X115515291Y-96944791D01*
X115769268Y-97472036D01*
X116205680Y-97861954D01*
X116758087Y-98055184D01*
X116993000Y-97910924D01*
X116993000Y-96697000D01*
X117247000Y-96697000D01*
X117247000Y-97910924D01*
X117481913Y-98055184D01*
X118034320Y-97861954D01*
X118470732Y-97472036D01*
X118724709Y-96944791D01*
X118727358Y-96929026D01*
X118606217Y-96697000D01*
X117247000Y-96697000D01*
X116993000Y-96697000D01*
X115633783Y-96697000D01*
X115512642Y-96929026D01*
X111131930Y-96929026D01*
X111203345Y-96570000D01*
X111131931Y-96210974D01*
X115512642Y-96210974D01*
X115633783Y-96443000D01*
X116993000Y-96443000D01*
X116993000Y-95229076D01*
X117247000Y-95229076D01*
X117247000Y-96443000D01*
X118606217Y-96443000D01*
X118727358Y-96210974D01*
X118724709Y-96195209D01*
X118470732Y-95667964D01*
X118034320Y-95278046D01*
X117481913Y-95084816D01*
X117247000Y-95229076D01*
X116993000Y-95229076D01*
X116758087Y-95084816D01*
X116205680Y-95278046D01*
X115769268Y-95667964D01*
X115515291Y-96195209D01*
X115512642Y-96210974D01*
X111131931Y-96210974D01*
X111089271Y-95996511D01*
X110764415Y-95510330D01*
X110278234Y-95185474D01*
X109704745Y-95071400D01*
X109335255Y-95071400D01*
X108761766Y-95185474D01*
X108275585Y-95510330D01*
X107950729Y-95996511D01*
X107836655Y-96570000D01*
X102477000Y-96570000D01*
X102477000Y-85002711D01*
X106244400Y-85002711D01*
X106244400Y-87117289D01*
X106387863Y-87838525D01*
X106796410Y-88449959D01*
X107407844Y-88858506D01*
X108129080Y-89001969D01*
X108850316Y-88858506D01*
X109461750Y-88449959D01*
X109870297Y-87838525D01*
X110013760Y-87117289D01*
X110013760Y-85002711D01*
X109870297Y-84281475D01*
X109554974Y-83809560D01*
X117407960Y-83809560D01*
X117407960Y-88310440D01*
X117452238Y-88545757D01*
X117591310Y-88761881D01*
X117803510Y-88906871D01*
X118055400Y-88957880D01*
X120554760Y-88957880D01*
X120790077Y-88913602D01*
X121006201Y-88774530D01*
X121151191Y-88562330D01*
X121202200Y-88310440D01*
X121202200Y-83809560D01*
X121157922Y-83574243D01*
X121018850Y-83358119D01*
X120806650Y-83213129D01*
X120554760Y-83162120D01*
X118055400Y-83162120D01*
X117820083Y-83206398D01*
X117603959Y-83345470D01*
X117458969Y-83557670D01*
X117407960Y-83809560D01*
X109554974Y-83809560D01*
X109461750Y-83670041D01*
X108850316Y-83261494D01*
X108129080Y-83118031D01*
X107407844Y-83261494D01*
X106796410Y-83670041D01*
X106387863Y-84281475D01*
X106244400Y-85002711D01*
X102477000Y-85002711D01*
X102477000Y-79329026D01*
X105412642Y-79329026D01*
X105415291Y-79344791D01*
X105669268Y-79872036D01*
X106105680Y-80261954D01*
X106658087Y-80455184D01*
X106893000Y-80310924D01*
X106893000Y-79097000D01*
X107147000Y-79097000D01*
X107147000Y-80310924D01*
X107381913Y-80455184D01*
X107934320Y-80261954D01*
X108370732Y-79872036D01*
X108624709Y-79344791D01*
X108627358Y-79329026D01*
X108506217Y-79097000D01*
X107147000Y-79097000D01*
X106893000Y-79097000D01*
X105533783Y-79097000D01*
X105412642Y-79329026D01*
X102477000Y-79329026D01*
X102477000Y-78610974D01*
X105412642Y-78610974D01*
X105533783Y-78843000D01*
X106893000Y-78843000D01*
X106893000Y-77629076D01*
X107147000Y-77629076D01*
X107147000Y-78843000D01*
X108506217Y-78843000D01*
X108627358Y-78610974D01*
X108624709Y-78595209D01*
X108408516Y-78146400D01*
X117956560Y-78146400D01*
X117956560Y-79873600D01*
X118000838Y-80108917D01*
X118139910Y-80325041D01*
X118352110Y-80470031D01*
X118604000Y-80521040D01*
X120636000Y-80521040D01*
X120871317Y-80476762D01*
X121087441Y-80337690D01*
X121232431Y-80125490D01*
X121283440Y-79873600D01*
X121283440Y-78146400D01*
X121239162Y-77911083D01*
X121100090Y-77694959D01*
X120887890Y-77549969D01*
X120636000Y-77498960D01*
X118604000Y-77498960D01*
X118368683Y-77543238D01*
X118152559Y-77682310D01*
X118007569Y-77894510D01*
X117956560Y-78146400D01*
X108408516Y-78146400D01*
X108370732Y-78067964D01*
X107934320Y-77678046D01*
X107381913Y-77484816D01*
X107147000Y-77629076D01*
X106893000Y-77629076D01*
X106658087Y-77484816D01*
X106105680Y-77678046D01*
X105669268Y-78067964D01*
X105415291Y-78595209D01*
X105412642Y-78610974D01*
X102477000Y-78610974D01*
X102477000Y-73205750D01*
X105419000Y-73205750D01*
X105419000Y-74062309D01*
X105515673Y-74295698D01*
X105694301Y-74474327D01*
X105927690Y-74571000D01*
X106784250Y-74571000D01*
X106943000Y-74412250D01*
X106943000Y-73047000D01*
X105577750Y-73047000D01*
X105419000Y-73205750D01*
X102477000Y-73205750D01*
X102477000Y-71777691D01*
X105419000Y-71777691D01*
X105419000Y-72634250D01*
X105577750Y-72793000D01*
X106943000Y-72793000D01*
X106943000Y-71427750D01*
X107197000Y-71427750D01*
X107197000Y-72793000D01*
X107217000Y-72793000D01*
X107217000Y-73047000D01*
X107197000Y-73047000D01*
X107197000Y-74412250D01*
X107355750Y-74571000D01*
X108212310Y-74571000D01*
X108445699Y-74474327D01*
X108624327Y-74295698D01*
X108641999Y-74253034D01*
X108978190Y-74477670D01*
X109610000Y-74603345D01*
X110241810Y-74477670D01*
X110777433Y-74119778D01*
X111135325Y-73584155D01*
X111261000Y-72952345D01*
X111261000Y-72887655D01*
X111135325Y-72255845D01*
X110826730Y-71794000D01*
X115806560Y-71794000D01*
X115806560Y-73826000D01*
X115850838Y-74061317D01*
X115989910Y-74277441D01*
X116202110Y-74422431D01*
X116454000Y-74473440D01*
X118486000Y-74473440D01*
X118721317Y-74429162D01*
X118937441Y-74290090D01*
X119039198Y-74141163D01*
X119378190Y-74367670D01*
X120010000Y-74493345D01*
X120641810Y-74367670D01*
X121177433Y-74009778D01*
X121535325Y-73474155D01*
X121661000Y-72842345D01*
X121661000Y-72777655D01*
X121535325Y-72145845D01*
X121177433Y-71610222D01*
X120641810Y-71252330D01*
X120010000Y-71126655D01*
X119378190Y-71252330D01*
X119038208Y-71479499D01*
X118950090Y-71342559D01*
X118737890Y-71197569D01*
X118486000Y-71146560D01*
X116454000Y-71146560D01*
X116218683Y-71190838D01*
X116002559Y-71329910D01*
X115857569Y-71542110D01*
X115806560Y-71794000D01*
X110826730Y-71794000D01*
X110777433Y-71720222D01*
X110241810Y-71362330D01*
X109610000Y-71236655D01*
X108978190Y-71362330D01*
X108641999Y-71586966D01*
X108624327Y-71544302D01*
X108445699Y-71365673D01*
X108212310Y-71269000D01*
X107355750Y-71269000D01*
X107197000Y-71427750D01*
X106943000Y-71427750D01*
X106784250Y-71269000D01*
X105927690Y-71269000D01*
X105694301Y-71365673D01*
X105515673Y-71544302D01*
X105419000Y-71777691D01*
X102477000Y-71777691D01*
X102477000Y-70427000D01*
X159223000Y-70427000D01*
X159223000Y-107173000D01*
X159223000Y-107173000D01*
G37*
X159223000Y-107173000D02*
X143882774Y-107173000D01*
X143576222Y-106714211D01*
X143180801Y-106450000D01*
X143576222Y-106185789D01*
X143884559Y-105724329D01*
X143992833Y-105180000D01*
X143884559Y-104635671D01*
X143576222Y-104174211D01*
X143180801Y-103910000D01*
X143576222Y-103645789D01*
X143884559Y-103184329D01*
X143992833Y-102640000D01*
X143884559Y-102095671D01*
X143576222Y-101634211D01*
X143181170Y-101370246D01*
X143197262Y-101365525D01*
X143631191Y-101015986D01*
X143898327Y-100526996D01*
X143915010Y-100447060D01*
X143792852Y-100227000D01*
X142307000Y-100227000D01*
X142307000Y-100247000D01*
X142053000Y-100247000D01*
X142053000Y-100227000D01*
X140567148Y-100227000D01*
X140444990Y-100447060D01*
X140461673Y-100526996D01*
X140728809Y-101015986D01*
X141162738Y-101365525D01*
X141178830Y-101370246D01*
X140783778Y-101634211D01*
X140475441Y-102095671D01*
X140367167Y-102640000D01*
X140475441Y-103184329D01*
X140783778Y-103645789D01*
X141179199Y-103910000D01*
X140783778Y-104174211D01*
X140475441Y-104635671D01*
X140367167Y-105180000D01*
X140475441Y-105724329D01*
X140783778Y-106185789D01*
X141179199Y-106450000D01*
X140783778Y-106714211D01*
X140477226Y-107173000D01*
X128642774Y-107173000D01*
X128336222Y-106714211D01*
X127941170Y-106450246D01*
X127957262Y-106445525D01*
X128391191Y-106095986D01*
X128658327Y-105606996D01*
X128675010Y-105527060D01*
X128552852Y-105307000D01*
X127067000Y-105307000D01*
X127067000Y-105327000D01*
X126813000Y-105327000D01*
X126813000Y-105307000D01*
X125327148Y-105307000D01*
X125204990Y-105527060D01*
X125221673Y-105606996D01*
X125488809Y-106095986D01*
X125922738Y-106445525D01*
X125938830Y-106450246D01*
X125543778Y-106714211D01*
X125237226Y-107173000D01*
X102477000Y-107173000D01*
X102477000Y-104952946D01*
X105484017Y-104952946D01*
X105752812Y-105538379D01*
X106225182Y-105976385D01*
X106707056Y-106175975D01*
X106963000Y-106056836D01*
X106963000Y-104697000D01*
X105602633Y-104697000D01*
X105484017Y-104952946D01*
X102477000Y-104952946D01*
X102477000Y-104187054D01*
X105484017Y-104187054D01*
X105602633Y-104443000D01*
X106963000Y-104443000D01*
X106963000Y-103083164D01*
X107217000Y-103083164D01*
X107217000Y-104443000D01*
X107237000Y-104443000D01*
X107237000Y-104697000D01*
X107217000Y-104697000D01*
X107217000Y-106056836D01*
X107472944Y-106175975D01*
X107954818Y-105976385D01*
X108052398Y-105885903D01*
X108149910Y-106037441D01*
X108362110Y-106182431D01*
X108614000Y-106233440D01*
X110646000Y-106233440D01*
X110881317Y-106189162D01*
X111097441Y-106050090D01*
X111242431Y-105837890D01*
X111293440Y-105586000D01*
X111293440Y-105330000D01*
X120800000Y-105330000D01*
X121090839Y-105272148D01*
X121337401Y-105107401D01*
X124334802Y-102110000D01*
X125232591Y-102110000D01*
X125127167Y-102640000D01*
X125235441Y-103184329D01*
X125543778Y-103645789D01*
X125938830Y-103909754D01*
X125922738Y-103914475D01*
X125488809Y-104264014D01*
X125221673Y-104753004D01*
X125204990Y-104832940D01*
X125327148Y-105053000D01*
X126813000Y-105053000D01*
X126813000Y-105033000D01*
X127067000Y-105033000D01*
X127067000Y-105053000D01*
X128552852Y-105053000D01*
X128675010Y-104832940D01*
X128658327Y-104753004D01*
X128391191Y-104264014D01*
X127957262Y-103914475D01*
X127941170Y-103909754D01*
X128336222Y-103645789D01*
X128644559Y-103184329D01*
X128752833Y-102640000D01*
X128647409Y-102110000D01*
X131110000Y-102110000D01*
X131400839Y-102052148D01*
X131647401Y-101887401D01*
X133347401Y-100187401D01*
X133512148Y-99940839D01*
X133570000Y-99650000D01*
X133570000Y-99143694D01*
X136625226Y-99143694D01*
X136873538Y-99744655D01*
X137332927Y-100204846D01*
X137933453Y-100454206D01*
X138583694Y-100454774D01*
X139184655Y-100206462D01*
X139644846Y-99747073D01*
X139894206Y-99146547D01*
X139894774Y-98496306D01*
X139646462Y-97895345D01*
X139187073Y-97435154D01*
X138586547Y-97185794D01*
X137936306Y-97185226D01*
X137335345Y-97433538D01*
X136875154Y-97892927D01*
X136625794Y-98493453D01*
X136625226Y-99143694D01*
X133570000Y-99143694D01*
X133570000Y-94063694D01*
X136665226Y-94063694D01*
X136913538Y-94664655D01*
X137372927Y-95124846D01*
X137973453Y-95374206D01*
X138623694Y-95374774D01*
X139224655Y-95126462D01*
X139684846Y-94667073D01*
X139934206Y-94066547D01*
X139934774Y-93416306D01*
X139686462Y-92815345D01*
X139227073Y-92355154D01*
X138626547Y-92105794D01*
X137976306Y-92105226D01*
X137375345Y-92353538D01*
X136915154Y-92812927D01*
X136665794Y-93413453D01*
X136665226Y-94063694D01*
X133570000Y-94063694D01*
X133570000Y-88873694D01*
X136545226Y-88873694D01*
X136793538Y-89474655D01*
X137252927Y-89934846D01*
X137853453Y-90184206D01*
X138503694Y-90184774D01*
X139104655Y-89936462D01*
X139564846Y-89477073D01*
X139814206Y-88876547D01*
X139814774Y-88226306D01*
X139566462Y-87625345D01*
X139107073Y-87165154D01*
X138506547Y-86915794D01*
X137856306Y-86915226D01*
X137255345Y-87163538D01*
X136795154Y-87622927D01*
X136545794Y-88223453D01*
X136545226Y-88873694D01*
X133570000Y-88873694D01*
X133570000Y-83873694D01*
X136515226Y-83873694D01*
X136763538Y-84474655D01*
X137222927Y-84934846D01*
X137823453Y-85184206D01*
X138473694Y-85184774D01*
X139074655Y-84936462D01*
X139534846Y-84477073D01*
X139784206Y-83876547D01*
X139784774Y-83226306D01*
X139536462Y-82625345D01*
X139077073Y-82165154D01*
X138476547Y-81915794D01*
X137826306Y-81915226D01*
X137225345Y-82163538D01*
X136765154Y-82622927D01*
X136515794Y-83223453D01*
X136515226Y-83873694D01*
X133570000Y-83873694D01*
X133570000Y-78893694D01*
X136535226Y-78893694D01*
X136783538Y-79494655D01*
X137242927Y-79954846D01*
X137843453Y-80204206D01*
X138493694Y-80204774D01*
X139094655Y-79956462D01*
X139554846Y-79497073D01*
X139804206Y-78896547D01*
X139804774Y-78246306D01*
X139556462Y-77645345D01*
X139097073Y-77185154D01*
X138496547Y-76935794D01*
X137846306Y-76935226D01*
X137245345Y-77183538D01*
X136785154Y-77642927D01*
X136535794Y-78243453D01*
X136535226Y-78893694D01*
X133570000Y-78893694D01*
X133570000Y-76774802D01*
X137424802Y-72920000D01*
X140619547Y-72920000D01*
X140783778Y-73165789D01*
X141179199Y-73430000D01*
X140783778Y-73694211D01*
X140475441Y-74155671D01*
X140367167Y-74700000D01*
X140475441Y-75244329D01*
X140783778Y-75705789D01*
X141179199Y-75970000D01*
X140783778Y-76234211D01*
X140475441Y-76695671D01*
X140367167Y-77240000D01*
X140475441Y-77784329D01*
X140783778Y-78245789D01*
X141179199Y-78510000D01*
X140783778Y-78774211D01*
X140475441Y-79235671D01*
X140367167Y-79780000D01*
X140475441Y-80324329D01*
X140783778Y-80785789D01*
X141179199Y-81050000D01*
X140783778Y-81314211D01*
X140475441Y-81775671D01*
X140367167Y-82320000D01*
X140475441Y-82864329D01*
X140783778Y-83325789D01*
X141179199Y-83590000D01*
X140783778Y-83854211D01*
X140475441Y-84315671D01*
X140367167Y-84860000D01*
X140475441Y-85404329D01*
X140783778Y-85865789D01*
X141179199Y-86130000D01*
X140783778Y-86394211D01*
X140475441Y-86855671D01*
X140367167Y-87400000D01*
X140475441Y-87944329D01*
X140783778Y-88405789D01*
X141179199Y-88670000D01*
X140783778Y-88934211D01*
X140475441Y-89395671D01*
X140367167Y-89940000D01*
X140475441Y-90484329D01*
X140783778Y-90945789D01*
X141179199Y-91210000D01*
X140783778Y-91474211D01*
X140475441Y-91935671D01*
X140367167Y-92480000D01*
X140475441Y-93024329D01*
X140783778Y-93485789D01*
X141179199Y-93750000D01*
X140783778Y-94014211D01*
X140475441Y-94475671D01*
X140367167Y-95020000D01*
X140475441Y-95564329D01*
X140783778Y-96025789D01*
X141179199Y-96290000D01*
X140783778Y-96554211D01*
X140475441Y-97015671D01*
X140367167Y-97560000D01*
X140475441Y-98104329D01*
X140783778Y-98565789D01*
X141178830Y-98829754D01*
X141162738Y-98834475D01*
X140728809Y-99184014D01*
X140461673Y-99673004D01*
X140444990Y-99752940D01*
X140567148Y-99973000D01*
X142053000Y-99973000D01*
X142053000Y-99953000D01*
X142307000Y-99953000D01*
X142307000Y-99973000D01*
X143792852Y-99973000D01*
X143915010Y-99752940D01*
X143898327Y-99673004D01*
X143631191Y-99184014D01*
X143581137Y-99143694D01*
X144245226Y-99143694D01*
X144493538Y-99744655D01*
X144952927Y-100204846D01*
X145553453Y-100454206D01*
X146203694Y-100454774D01*
X146804655Y-100206462D01*
X147264846Y-99747073D01*
X147514206Y-99146547D01*
X147514214Y-99136400D01*
X153216560Y-99136400D01*
X153216560Y-100863600D01*
X153260838Y-101098917D01*
X153399910Y-101315041D01*
X153612110Y-101460031D01*
X153864000Y-101511040D01*
X155896000Y-101511040D01*
X156131317Y-101466762D01*
X156347441Y-101327690D01*
X156492431Y-101115490D01*
X156543440Y-100863600D01*
X156543440Y-99136400D01*
X156499162Y-98901083D01*
X156360090Y-98684959D01*
X156147890Y-98539969D01*
X156053073Y-98520768D01*
X156230732Y-98362036D01*
X156484709Y-97834791D01*
X156487358Y-97819026D01*
X156366217Y-97587000D01*
X155007000Y-97587000D01*
X155007000Y-97607000D01*
X154753000Y-97607000D01*
X154753000Y-97587000D01*
X153393783Y-97587000D01*
X153272642Y-97819026D01*
X153275291Y-97834791D01*
X153529268Y-98362036D01*
X153704845Y-98518907D01*
X153628683Y-98533238D01*
X153412559Y-98672310D01*
X153267569Y-98884510D01*
X153216560Y-99136400D01*
X147514214Y-99136400D01*
X147514774Y-98496306D01*
X147266462Y-97895345D01*
X146807073Y-97435154D01*
X146206547Y-97185794D01*
X145556306Y-97185226D01*
X144955345Y-97433538D01*
X144495154Y-97892927D01*
X144245794Y-98493453D01*
X144245226Y-99143694D01*
X143581137Y-99143694D01*
X143197262Y-98834475D01*
X143181170Y-98829754D01*
X143576222Y-98565789D01*
X143884559Y-98104329D01*
X143992833Y-97560000D01*
X143884559Y-97015671D01*
X143576222Y-96554211D01*
X143180801Y-96290000D01*
X143576222Y-96025789D01*
X143884559Y-95564329D01*
X143992833Y-95020000D01*
X143884559Y-94475671D01*
X143609286Y-94063694D01*
X144285226Y-94063694D01*
X144533538Y-94664655D01*
X144992927Y-95124846D01*
X145593453Y-95374206D01*
X146243694Y-95374774D01*
X146475421Y-95279026D01*
X153272642Y-95279026D01*
X153275291Y-95294791D01*
X153529268Y-95822036D01*
X153941108Y-96190000D01*
X153529268Y-96557964D01*
X153275291Y-97085209D01*
X153272642Y-97100974D01*
X153393783Y-97333000D01*
X154753000Y-97333000D01*
X154753000Y-95047000D01*
X155007000Y-95047000D01*
X155007000Y-97333000D01*
X156366217Y-97333000D01*
X156487358Y-97100974D01*
X156484709Y-97085209D01*
X156230732Y-96557964D01*
X155818892Y-96190000D01*
X156230732Y-95822036D01*
X156484709Y-95294791D01*
X156487358Y-95279026D01*
X156366217Y-95047000D01*
X155007000Y-95047000D01*
X154753000Y-95047000D01*
X153393783Y-95047000D01*
X153272642Y-95279026D01*
X146475421Y-95279026D01*
X146844655Y-95126462D01*
X147304846Y-94667073D01*
X147554206Y-94066547D01*
X147554774Y-93416306D01*
X147306462Y-92815345D01*
X146847073Y-92355154D01*
X146246547Y-92105794D01*
X145596306Y-92105226D01*
X144995345Y-92353538D01*
X144535154Y-92812927D01*
X144285794Y-93413453D01*
X144285226Y-94063694D01*
X143609286Y-94063694D01*
X143576222Y-94014211D01*
X143180801Y-93750000D01*
X143576222Y-93485789D01*
X143884559Y-93024329D01*
X143992833Y-92480000D01*
X143884559Y-91935671D01*
X143576222Y-91474211D01*
X143180801Y-91210000D01*
X143576222Y-90945789D01*
X143884559Y-90484329D01*
X143992833Y-89940000D01*
X143884559Y-89395671D01*
X143576222Y-88934211D01*
X143485652Y-88873694D01*
X144165226Y-88873694D01*
X144413538Y-89474655D01*
X144872927Y-89934846D01*
X145473453Y-90184206D01*
X146123694Y-90184774D01*
X146724655Y-89936462D01*
X147184846Y-89477073D01*
X147434206Y-88876547D01*
X147434774Y-88226306D01*
X147186462Y-87625345D01*
X146727073Y-87165154D01*
X146126547Y-86915794D01*
X145476306Y-86915226D01*
X144875345Y-87163538D01*
X144415154Y-87622927D01*
X144165794Y-88223453D01*
X144165226Y-88873694D01*
X143485652Y-88873694D01*
X143180801Y-88670000D01*
X143576222Y-88405789D01*
X143884559Y-87944329D01*
X143992833Y-87400000D01*
X143884559Y-86855671D01*
X143576222Y-86394211D01*
X143180801Y-86130000D01*
X143576222Y-85865789D01*
X143884559Y-85404329D01*
X143992833Y-84860000D01*
X143884559Y-84315671D01*
X143589241Y-83873694D01*
X144135226Y-83873694D01*
X144383538Y-84474655D01*
X144842927Y-84934846D01*
X145443453Y-85184206D01*
X146093694Y-85184774D01*
X146694655Y-84936462D01*
X147154846Y-84477073D01*
X147404206Y-83876547D01*
X147404774Y-83226306D01*
X147156462Y-82625345D01*
X146751824Y-82220000D01*
X153196655Y-82220000D01*
X153310729Y-82793489D01*
X153635585Y-83279670D01*
X153950366Y-83490000D01*
X153635585Y-83700330D01*
X153310729Y-84186511D01*
X153196655Y-84760000D01*
X153310729Y-85333489D01*
X153635585Y-85819670D01*
X153950366Y-86030000D01*
X153635585Y-86240330D01*
X153310729Y-86726511D01*
X153196655Y-87300000D01*
X153310729Y-87873489D01*
X153635585Y-88359670D01*
X153950366Y-88570000D01*
X153635585Y-88780330D01*
X153310729Y-89266511D01*
X153196655Y-89840000D01*
X153310729Y-90413489D01*
X153635585Y-90899670D01*
X153950366Y-91110000D01*
X153635585Y-91320330D01*
X153310729Y-91806511D01*
X153196655Y-92380000D01*
X153310729Y-92953489D01*
X153635585Y-93439670D01*
X153945069Y-93646461D01*
X153529268Y-94017964D01*
X153275291Y-94545209D01*
X153272642Y-94560974D01*
X153393783Y-94793000D01*
X154753000Y-94793000D01*
X154753000Y-94773000D01*
X155007000Y-94773000D01*
X155007000Y-94793000D01*
X156366217Y-94793000D01*
X156487358Y-94560974D01*
X156484709Y-94545209D01*
X156230732Y-94017964D01*
X155814931Y-93646461D01*
X156124415Y-93439670D01*
X156449271Y-92953489D01*
X156563345Y-92380000D01*
X156449271Y-91806511D01*
X156124415Y-91320330D01*
X155809634Y-91110000D01*
X156124415Y-90899670D01*
X156449271Y-90413489D01*
X156563345Y-89840000D01*
X156449271Y-89266511D01*
X156124415Y-88780330D01*
X155809634Y-88570000D01*
X156124415Y-88359670D01*
X156449271Y-87873489D01*
X156563345Y-87300000D01*
X156449271Y-86726511D01*
X156124415Y-86240330D01*
X155809634Y-86030000D01*
X156124415Y-85819670D01*
X156449271Y-85333489D01*
X156563345Y-84760000D01*
X156449271Y-84186511D01*
X156124415Y-83700330D01*
X155809634Y-83490000D01*
X156124415Y-83279670D01*
X156449271Y-82793489D01*
X156563345Y-82220000D01*
X156449271Y-81646511D01*
X156124415Y-81160330D01*
X155638234Y-80835474D01*
X155064745Y-80721400D01*
X154695255Y-80721400D01*
X154121766Y-80835474D01*
X153635585Y-81160330D01*
X153310729Y-81646511D01*
X153196655Y-82220000D01*
X146751824Y-82220000D01*
X146697073Y-82165154D01*
X146096547Y-81915794D01*
X145446306Y-81915226D01*
X144845345Y-82163538D01*
X144385154Y-82622927D01*
X144135794Y-83223453D01*
X144135226Y-83873694D01*
X143589241Y-83873694D01*
X143576222Y-83854211D01*
X143180801Y-83590000D01*
X143576222Y-83325789D01*
X143884559Y-82864329D01*
X143992833Y-82320000D01*
X143884559Y-81775671D01*
X143576222Y-81314211D01*
X143180801Y-81050000D01*
X143576222Y-80785789D01*
X143884559Y-80324329D01*
X143992833Y-79780000D01*
X143884559Y-79235671D01*
X143656058Y-78893694D01*
X144155226Y-78893694D01*
X144403538Y-79494655D01*
X144862927Y-79954846D01*
X145463453Y-80204206D01*
X146113694Y-80204774D01*
X146714655Y-79956462D01*
X147174846Y-79497073D01*
X147424206Y-78896547D01*
X147424774Y-78246306D01*
X147176462Y-77645345D01*
X146717073Y-77185154D01*
X146116547Y-76935794D01*
X145466306Y-76935226D01*
X144865345Y-77183538D01*
X144405154Y-77642927D01*
X144155794Y-78243453D01*
X144155226Y-78893694D01*
X143656058Y-78893694D01*
X143576222Y-78774211D01*
X143180801Y-78510000D01*
X143576222Y-78245789D01*
X143884559Y-77784329D01*
X143992833Y-77240000D01*
X143884559Y-76695671D01*
X143576222Y-76234211D01*
X143180801Y-75970000D01*
X143576222Y-75705789D01*
X143884559Y-75244329D01*
X143992833Y-74700000D01*
X143884559Y-74155671D01*
X143576222Y-73694211D01*
X143180801Y-73430000D01*
X143576222Y-73165789D01*
X143884559Y-72704329D01*
X143992833Y-72160000D01*
X143884559Y-71615671D01*
X143576222Y-71154211D01*
X143114762Y-70845874D01*
X142570433Y-70737600D01*
X141789567Y-70737600D01*
X141245238Y-70845874D01*
X140783778Y-71154211D01*
X140619547Y-71400000D01*
X137110000Y-71400000D01*
X136819160Y-71457852D01*
X136572599Y-71622599D01*
X132272599Y-75922599D01*
X132107852Y-76169161D01*
X132050000Y-76460000D01*
X132050000Y-99335198D01*
X130795198Y-100590000D01*
X128655366Y-100590000D01*
X128752833Y-100100000D01*
X128644559Y-99555671D01*
X128336222Y-99094211D01*
X127940801Y-98830000D01*
X128336222Y-98565789D01*
X128644559Y-98104329D01*
X128752833Y-97560000D01*
X128644559Y-97015671D01*
X128336222Y-96554211D01*
X127940801Y-96290000D01*
X128336222Y-96025789D01*
X128644559Y-95564329D01*
X128752833Y-95020000D01*
X128644559Y-94475671D01*
X128336222Y-94014211D01*
X127940801Y-93750000D01*
X128336222Y-93485789D01*
X128644559Y-93024329D01*
X128752833Y-92480000D01*
X128644559Y-91935671D01*
X128336222Y-91474211D01*
X127940801Y-91210000D01*
X128336222Y-90945789D01*
X128644559Y-90484329D01*
X128752833Y-89940000D01*
X128644559Y-89395671D01*
X128336222Y-88934211D01*
X127940801Y-88670000D01*
X128336222Y-88405789D01*
X128644559Y-87944329D01*
X128752833Y-87400000D01*
X128644559Y-86855671D01*
X128336222Y-86394211D01*
X127940801Y-86130000D01*
X128336222Y-85865789D01*
X128644559Y-85404329D01*
X128752833Y-84860000D01*
X128644559Y-84315671D01*
X128336222Y-83854211D01*
X127940801Y-83590000D01*
X128336222Y-83325789D01*
X128644559Y-82864329D01*
X128752833Y-82320000D01*
X128644559Y-81775671D01*
X128336222Y-81314211D01*
X127940801Y-81050000D01*
X128336222Y-80785789D01*
X128644559Y-80324329D01*
X128752833Y-79780000D01*
X128644559Y-79235671D01*
X128336222Y-78774211D01*
X127940801Y-78510000D01*
X128336222Y-78245789D01*
X128644559Y-77784329D01*
X128752833Y-77240000D01*
X128644559Y-76695671D01*
X128336222Y-76234211D01*
X127940801Y-75970000D01*
X128336222Y-75705789D01*
X128644559Y-75244329D01*
X128752833Y-74700000D01*
X128644559Y-74155671D01*
X128336222Y-73694211D01*
X128202461Y-73604835D01*
X128278317Y-73590562D01*
X128494441Y-73451490D01*
X128639431Y-73239290D01*
X128690440Y-72987400D01*
X128690440Y-71412600D01*
X128646162Y-71177283D01*
X128507090Y-70961159D01*
X128294890Y-70816169D01*
X128043000Y-70765160D01*
X125757000Y-70765160D01*
X125521683Y-70809438D01*
X125305559Y-70948510D01*
X125160569Y-71160710D01*
X125109560Y-71412600D01*
X125109560Y-72987400D01*
X125153838Y-73222717D01*
X125292910Y-73438841D01*
X125505110Y-73583831D01*
X125661559Y-73615513D01*
X125543778Y-73694211D01*
X125235441Y-74155671D01*
X125127167Y-74700000D01*
X125235441Y-75244329D01*
X125543778Y-75705789D01*
X125939199Y-75970000D01*
X125543778Y-76234211D01*
X125235441Y-76695671D01*
X125127167Y-77240000D01*
X125235441Y-77784329D01*
X125543778Y-78245789D01*
X125939199Y-78510000D01*
X125543778Y-78774211D01*
X125235441Y-79235671D01*
X125127167Y-79780000D01*
X125235441Y-80324329D01*
X125543778Y-80785789D01*
X125939199Y-81050000D01*
X125543778Y-81314211D01*
X125235441Y-81775671D01*
X125127167Y-82320000D01*
X125235441Y-82864329D01*
X125543778Y-83325789D01*
X125939199Y-83590000D01*
X125543778Y-83854211D01*
X125235441Y-84315671D01*
X125127167Y-84860000D01*
X125235441Y-85404329D01*
X125543778Y-85865789D01*
X125939199Y-86130000D01*
X125543778Y-86394211D01*
X125235441Y-86855671D01*
X125127167Y-87400000D01*
X125235441Y-87944329D01*
X125543778Y-88405789D01*
X125939199Y-88670000D01*
X125543778Y-88934211D01*
X125235441Y-89395671D01*
X125127167Y-89940000D01*
X125235441Y-90484329D01*
X125543778Y-90945789D01*
X125939199Y-91210000D01*
X125543778Y-91474211D01*
X125235441Y-91935671D01*
X125127167Y-92480000D01*
X125235441Y-93024329D01*
X125543778Y-93485789D01*
X125939199Y-93750000D01*
X125543778Y-94014211D01*
X125235441Y-94475671D01*
X125127167Y-95020000D01*
X125235441Y-95564329D01*
X125543778Y-96025789D01*
X125939199Y-96290000D01*
X125543778Y-96554211D01*
X125235441Y-97015671D01*
X125127167Y-97560000D01*
X125235441Y-98104329D01*
X125543778Y-98565789D01*
X125939199Y-98830000D01*
X125543778Y-99094211D01*
X125235441Y-99555671D01*
X125127167Y-100100000D01*
X125224634Y-100590000D01*
X124020000Y-100590000D01*
X123729161Y-100647852D01*
X123482599Y-100812599D01*
X120485198Y-103810000D01*
X111293440Y-103810000D01*
X111293440Y-103554000D01*
X111249162Y-103318683D01*
X111110090Y-103102559D01*
X110897890Y-102957569D01*
X110646000Y-102906560D01*
X108614000Y-102906560D01*
X108378683Y-102950838D01*
X108162559Y-103089910D01*
X108051160Y-103252948D01*
X107954818Y-103163615D01*
X107472944Y-102964025D01*
X107217000Y-103083164D01*
X106963000Y-103083164D01*
X106707056Y-102964025D01*
X106225182Y-103163615D01*
X105752812Y-103601621D01*
X105484017Y-104187054D01*
X102477000Y-104187054D01*
X102477000Y-96570000D01*
X107836655Y-96570000D01*
X107950729Y-97143489D01*
X108275585Y-97629670D01*
X108761766Y-97954526D01*
X109335255Y-98068600D01*
X109704745Y-98068600D01*
X110278234Y-97954526D01*
X110764415Y-97629670D01*
X111089271Y-97143489D01*
X111131930Y-96929026D01*
X115512642Y-96929026D01*
X115515291Y-96944791D01*
X115769268Y-97472036D01*
X116205680Y-97861954D01*
X116758087Y-98055184D01*
X116993000Y-97910924D01*
X116993000Y-96697000D01*
X117247000Y-96697000D01*
X117247000Y-97910924D01*
X117481913Y-98055184D01*
X118034320Y-97861954D01*
X118470732Y-97472036D01*
X118724709Y-96944791D01*
X118727358Y-96929026D01*
X118606217Y-96697000D01*
X117247000Y-96697000D01*
X116993000Y-96697000D01*
X115633783Y-96697000D01*
X115512642Y-96929026D01*
X111131930Y-96929026D01*
X111203345Y-96570000D01*
X111131931Y-96210974D01*
X115512642Y-96210974D01*
X115633783Y-96443000D01*
X116993000Y-96443000D01*
X116993000Y-95229076D01*
X117247000Y-95229076D01*
X117247000Y-96443000D01*
X118606217Y-96443000D01*
X118727358Y-96210974D01*
X118724709Y-96195209D01*
X118470732Y-95667964D01*
X118034320Y-95278046D01*
X117481913Y-95084816D01*
X117247000Y-95229076D01*
X116993000Y-95229076D01*
X116758087Y-95084816D01*
X116205680Y-95278046D01*
X115769268Y-95667964D01*
X115515291Y-96195209D01*
X115512642Y-96210974D01*
X111131931Y-96210974D01*
X111089271Y-95996511D01*
X110764415Y-95510330D01*
X110278234Y-95185474D01*
X109704745Y-95071400D01*
X109335255Y-95071400D01*
X108761766Y-95185474D01*
X108275585Y-95510330D01*
X107950729Y-95996511D01*
X107836655Y-96570000D01*
X102477000Y-96570000D01*
X102477000Y-85002711D01*
X106244400Y-85002711D01*
X106244400Y-87117289D01*
X106387863Y-87838525D01*
X106796410Y-88449959D01*
X107407844Y-88858506D01*
X108129080Y-89001969D01*
X108850316Y-88858506D01*
X109461750Y-88449959D01*
X109870297Y-87838525D01*
X110013760Y-87117289D01*
X110013760Y-85002711D01*
X109870297Y-84281475D01*
X109554974Y-83809560D01*
X117407960Y-83809560D01*
X117407960Y-88310440D01*
X117452238Y-88545757D01*
X117591310Y-88761881D01*
X117803510Y-88906871D01*
X118055400Y-88957880D01*
X120554760Y-88957880D01*
X120790077Y-88913602D01*
X121006201Y-88774530D01*
X121151191Y-88562330D01*
X121202200Y-88310440D01*
X121202200Y-83809560D01*
X121157922Y-83574243D01*
X121018850Y-83358119D01*
X120806650Y-83213129D01*
X120554760Y-83162120D01*
X118055400Y-83162120D01*
X117820083Y-83206398D01*
X117603959Y-83345470D01*
X117458969Y-83557670D01*
X117407960Y-83809560D01*
X109554974Y-83809560D01*
X109461750Y-83670041D01*
X108850316Y-83261494D01*
X108129080Y-83118031D01*
X107407844Y-83261494D01*
X106796410Y-83670041D01*
X106387863Y-84281475D01*
X106244400Y-85002711D01*
X102477000Y-85002711D01*
X102477000Y-79329026D01*
X105412642Y-79329026D01*
X105415291Y-79344791D01*
X105669268Y-79872036D01*
X106105680Y-80261954D01*
X106658087Y-80455184D01*
X106893000Y-80310924D01*
X106893000Y-79097000D01*
X107147000Y-79097000D01*
X107147000Y-80310924D01*
X107381913Y-80455184D01*
X107934320Y-80261954D01*
X108370732Y-79872036D01*
X108624709Y-79344791D01*
X108627358Y-79329026D01*
X108506217Y-79097000D01*
X107147000Y-79097000D01*
X106893000Y-79097000D01*
X105533783Y-79097000D01*
X105412642Y-79329026D01*
X102477000Y-79329026D01*
X102477000Y-78610974D01*
X105412642Y-78610974D01*
X105533783Y-78843000D01*
X106893000Y-78843000D01*
X106893000Y-77629076D01*
X107147000Y-77629076D01*
X107147000Y-78843000D01*
X108506217Y-78843000D01*
X108627358Y-78610974D01*
X108624709Y-78595209D01*
X108408516Y-78146400D01*
X117956560Y-78146400D01*
X117956560Y-79873600D01*
X118000838Y-80108917D01*
X118139910Y-80325041D01*
X118352110Y-80470031D01*
X118604000Y-80521040D01*
X120636000Y-80521040D01*
X120871317Y-80476762D01*
X121087441Y-80337690D01*
X121232431Y-80125490D01*
X121283440Y-79873600D01*
X121283440Y-78146400D01*
X121239162Y-77911083D01*
X121100090Y-77694959D01*
X120887890Y-77549969D01*
X120636000Y-77498960D01*
X118604000Y-77498960D01*
X118368683Y-77543238D01*
X118152559Y-77682310D01*
X118007569Y-77894510D01*
X117956560Y-78146400D01*
X108408516Y-78146400D01*
X108370732Y-78067964D01*
X107934320Y-77678046D01*
X107381913Y-77484816D01*
X107147000Y-77629076D01*
X106893000Y-77629076D01*
X106658087Y-77484816D01*
X106105680Y-77678046D01*
X105669268Y-78067964D01*
X105415291Y-78595209D01*
X105412642Y-78610974D01*
X102477000Y-78610974D01*
X102477000Y-73205750D01*
X105419000Y-73205750D01*
X105419000Y-74062309D01*
X105515673Y-74295698D01*
X105694301Y-74474327D01*
X105927690Y-74571000D01*
X106784250Y-74571000D01*
X106943000Y-74412250D01*
X106943000Y-73047000D01*
X105577750Y-73047000D01*
X105419000Y-73205750D01*
X102477000Y-73205750D01*
X102477000Y-71777691D01*
X105419000Y-71777691D01*
X105419000Y-72634250D01*
X105577750Y-72793000D01*
X106943000Y-72793000D01*
X106943000Y-71427750D01*
X107197000Y-71427750D01*
X107197000Y-72793000D01*
X107217000Y-72793000D01*
X107217000Y-73047000D01*
X107197000Y-73047000D01*
X107197000Y-74412250D01*
X107355750Y-74571000D01*
X108212310Y-74571000D01*
X108445699Y-74474327D01*
X108624327Y-74295698D01*
X108641999Y-74253034D01*
X108978190Y-74477670D01*
X109610000Y-74603345D01*
X110241810Y-74477670D01*
X110777433Y-74119778D01*
X111135325Y-73584155D01*
X111261000Y-72952345D01*
X111261000Y-72887655D01*
X111135325Y-72255845D01*
X110826730Y-71794000D01*
X115806560Y-71794000D01*
X115806560Y-73826000D01*
X115850838Y-74061317D01*
X115989910Y-74277441D01*
X116202110Y-74422431D01*
X116454000Y-74473440D01*
X118486000Y-74473440D01*
X118721317Y-74429162D01*
X118937441Y-74290090D01*
X119039198Y-74141163D01*
X119378190Y-74367670D01*
X120010000Y-74493345D01*
X120641810Y-74367670D01*
X121177433Y-74009778D01*
X121535325Y-73474155D01*
X121661000Y-72842345D01*
X121661000Y-72777655D01*
X121535325Y-72145845D01*
X121177433Y-71610222D01*
X120641810Y-71252330D01*
X120010000Y-71126655D01*
X119378190Y-71252330D01*
X119038208Y-71479499D01*
X118950090Y-71342559D01*
X118737890Y-71197569D01*
X118486000Y-71146560D01*
X116454000Y-71146560D01*
X116218683Y-71190838D01*
X116002559Y-71329910D01*
X115857569Y-71542110D01*
X115806560Y-71794000D01*
X110826730Y-71794000D01*
X110777433Y-71720222D01*
X110241810Y-71362330D01*
X109610000Y-71236655D01*
X108978190Y-71362330D01*
X108641999Y-71586966D01*
X108624327Y-71544302D01*
X108445699Y-71365673D01*
X108212310Y-71269000D01*
X107355750Y-71269000D01*
X107197000Y-71427750D01*
X106943000Y-71427750D01*
X106784250Y-71269000D01*
X105927690Y-71269000D01*
X105694301Y-71365673D01*
X105515673Y-71544302D01*
X105419000Y-71777691D01*
X102477000Y-71777691D01*
X102477000Y-70427000D01*
X159223000Y-70427000D01*
X159223000Y-107173000D01*
M02*
