G04 #@! TF.FileFunction,Soldermask,Bot*
%FSLAX46Y46*%
G04 Gerber Fmt 4.6, Leading zero omitted, Abs format (unit mm)*
G04 Created by KiCad (PCBNEW 4.0.7) date 10/23/17 21:59:23*
%MOMM*%
%LPD*%
G01*
G04 APERTURE LIST*
%ADD10C,0.100000*%
%ADD11R,2.899360X4.900880*%
%ADD12O,2.899360X4.900880*%
%ADD13O,2.432000X2.127200*%
%ADD14R,2.432000X2.127200*%
%ADD15R,2.432000X2.432000*%
%ADD16O,2.432000X2.432000*%
%ADD17C,2.398980*%
%ADD18R,2.686000X1.974800*%
%ADD19O,2.686000X1.974800*%
G04 APERTURE END LIST*
D10*
D11*
X119305080Y-86060000D03*
D12*
X108129080Y-86060000D03*
D13*
X117120000Y-96570000D03*
X109520000Y-96570000D03*
X107020000Y-78970000D03*
D14*
X119620000Y-79010000D03*
D15*
X117470000Y-72810000D03*
D16*
X120010000Y-72810000D03*
D15*
X107070000Y-72920000D03*
D16*
X109610000Y-72920000D03*
D15*
X109630000Y-104570000D03*
D16*
X107090000Y-104570000D03*
D14*
X154880000Y-100000000D03*
D13*
X154880000Y-97460000D03*
X154880000Y-94920000D03*
X154880000Y-92380000D03*
X154880000Y-89840000D03*
X154880000Y-87300000D03*
X154880000Y-84760000D03*
X154880000Y-82220000D03*
D17*
X145790000Y-78570000D03*
X138170000Y-78570000D03*
X145770000Y-83550000D03*
X138150000Y-83550000D03*
X145800000Y-88550000D03*
X138180000Y-88550000D03*
X145920000Y-93740000D03*
X138300000Y-93740000D03*
X145880000Y-98820000D03*
X138260000Y-98820000D03*
D18*
X126900000Y-72200000D03*
D19*
X126940000Y-74700000D03*
X126940000Y-77240000D03*
X126940000Y-79780000D03*
X126940000Y-82320000D03*
X126940000Y-84860000D03*
X126940000Y-87400000D03*
X126940000Y-89940000D03*
X126940000Y-92480000D03*
X126940000Y-95020000D03*
X126940000Y-97560000D03*
X126940000Y-100100000D03*
X126940000Y-102640000D03*
X126940000Y-105180000D03*
X126940000Y-107720000D03*
X142180000Y-107720000D03*
X142180000Y-105180000D03*
X142180000Y-102640000D03*
X142180000Y-100100000D03*
X142180000Y-97560000D03*
X142180000Y-95020000D03*
X142180000Y-92480000D03*
X142180000Y-89940000D03*
X142180000Y-87400000D03*
X142180000Y-84860000D03*
X142180000Y-82320000D03*
X142180000Y-79780000D03*
X142180000Y-77240000D03*
X142180000Y-74700000D03*
X142180000Y-72160000D03*
M02*
