M48
METRIC,TZ
T1C0.400
T2C0.813
T3C1.001
T4C1.016
T5C1.501
%
G90
G05
T1
X120310Y-102430
X147070Y-84920
X147200Y-87480
X147250Y-89930
X149720Y-93330
X151500Y-82800
X153110Y-78640
T2
X125630Y-72200
X125670Y-74700
X125670Y-77240
X125670Y-79780
X125670Y-82320
X125670Y-84860
X125670Y-87400
X125670Y-89940
X125670Y-92480
X125670Y-95020
X125670Y-97560
X125670Y-100100
X125670Y-102640
X125670Y-105180
X125670Y-107720
X140910Y-72160
X140910Y-74700
X140910Y-77240
X140910Y-79780
X140910Y-82320
X140910Y-84860
X140910Y-87400
X140910Y-89940
X140910Y-92480
X140910Y-95020
X140910Y-97560
X140910Y-100100
X140910Y-102640
X140910Y-105180
X140910Y-107720
T3
X145740Y-74640
X153360Y-74640
T4
X106650Y-72880
X106670Y-78920
X107090Y-104570
X109170Y-96520
X109190Y-72880
X109630Y-104570
X116770Y-96520
X117050Y-72770
X119270Y-78960
X119590Y-72770
X154880Y-82220
X154880Y-84760
X154880Y-87300
X154880Y-89840
X154880Y-92380
X154880Y-94920
X154880Y-97460
X154880Y-100000
T5
X108079Y-86170
X119255Y-86170
T0
M30
