G04 #@! TF.FileFunction,Legend,Top*
%FSLAX46Y46*%
G04 Gerber Fmt 4.6, Leading zero omitted, Abs format (unit mm)*
G04 Created by KiCad (PCBNEW 4.0.7) date 11/02/17 22:13:09*
%MOMM*%
%LPD*%
G01*
G04 APERTURE LIST*
%ADD10C,0.100000*%
%ADD11C,0.300000*%
%ADD12C,0.150000*%
%ADD13C,0.381000*%
%ADD14C,0.120000*%
%ADD15C,0.304800*%
G04 APERTURE END LIST*
D10*
D11*
X158598571Y-106229999D02*
X157098571Y-106229999D01*
X157098571Y-105872856D01*
X157170000Y-105658571D01*
X157312857Y-105515713D01*
X157455714Y-105444285D01*
X157741429Y-105372856D01*
X157955714Y-105372856D01*
X158241429Y-105444285D01*
X158384286Y-105515713D01*
X158527143Y-105658571D01*
X158598571Y-105872856D01*
X158598571Y-106229999D01*
X158598571Y-104729999D02*
X157598571Y-104729999D01*
X157098571Y-104729999D02*
X157170000Y-104801428D01*
X157241429Y-104729999D01*
X157170000Y-104658571D01*
X157098571Y-104729999D01*
X157241429Y-104729999D01*
X158527143Y-103372856D02*
X158598571Y-103515713D01*
X158598571Y-103801427D01*
X158527143Y-103944285D01*
X158455714Y-104015713D01*
X158312857Y-104087142D01*
X157884286Y-104087142D01*
X157741429Y-104015713D01*
X157670000Y-103944285D01*
X157598571Y-103801427D01*
X157598571Y-103515713D01*
X157670000Y-103372856D01*
X158527143Y-102158571D02*
X158598571Y-102301428D01*
X158598571Y-102587142D01*
X158527143Y-102729999D01*
X158384286Y-102801428D01*
X157812857Y-102801428D01*
X157670000Y-102729999D01*
X157598571Y-102587142D01*
X157598571Y-102301428D01*
X157670000Y-102158571D01*
X157812857Y-102087142D01*
X157955714Y-102087142D01*
X158098571Y-102801428D01*
X158598571Y-101444285D02*
X157098571Y-101444285D01*
X158170000Y-100944285D01*
X157098571Y-100444285D01*
X158598571Y-100444285D01*
X158598571Y-99087142D02*
X157812857Y-99087142D01*
X157670000Y-99158571D01*
X157598571Y-99301428D01*
X157598571Y-99587142D01*
X157670000Y-99729999D01*
X158527143Y-99087142D02*
X158598571Y-99229999D01*
X158598571Y-99587142D01*
X158527143Y-99729999D01*
X158384286Y-99801428D01*
X158241429Y-99801428D01*
X158098571Y-99729999D01*
X158027143Y-99587142D01*
X158027143Y-99229999D01*
X157955714Y-99087142D01*
X158527143Y-97729999D02*
X158598571Y-97872856D01*
X158598571Y-98158570D01*
X158527143Y-98301428D01*
X158455714Y-98372856D01*
X158312857Y-98444285D01*
X157884286Y-98444285D01*
X157741429Y-98372856D01*
X157670000Y-98301428D01*
X157598571Y-98158570D01*
X157598571Y-97872856D01*
X157670000Y-97729999D01*
X158598571Y-97087142D02*
X157098571Y-97087142D01*
X158598571Y-96444285D02*
X157812857Y-96444285D01*
X157670000Y-96515714D01*
X157598571Y-96658571D01*
X157598571Y-96872856D01*
X157670000Y-97015714D01*
X157741429Y-97087142D01*
X158598571Y-95729999D02*
X157598571Y-95729999D01*
X157098571Y-95729999D02*
X157170000Y-95801428D01*
X157241429Y-95729999D01*
X157170000Y-95658571D01*
X157098571Y-95729999D01*
X157241429Y-95729999D01*
X157598571Y-95015713D02*
X158598571Y-95015713D01*
X157741429Y-95015713D02*
X157670000Y-94944285D01*
X157598571Y-94801427D01*
X157598571Y-94587142D01*
X157670000Y-94444285D01*
X157812857Y-94372856D01*
X158598571Y-94372856D01*
X158527143Y-93087142D02*
X158598571Y-93229999D01*
X158598571Y-93515713D01*
X158527143Y-93658570D01*
X158384286Y-93729999D01*
X157812857Y-93729999D01*
X157670000Y-93658570D01*
X157598571Y-93515713D01*
X157598571Y-93229999D01*
X157670000Y-93087142D01*
X157812857Y-93015713D01*
X157955714Y-93015713D01*
X158098571Y-93729999D01*
X157598571Y-91372856D02*
X158598571Y-91015713D01*
X157598571Y-90658571D01*
X158598571Y-89301428D02*
X158598571Y-90158571D01*
X158598571Y-89729999D02*
X157098571Y-89729999D01*
X157312857Y-89872856D01*
X157455714Y-90015714D01*
X157527143Y-90158571D01*
X158455714Y-88658571D02*
X158527143Y-88587143D01*
X158598571Y-88658571D01*
X158527143Y-88730000D01*
X158455714Y-88658571D01*
X158598571Y-88658571D01*
X158598571Y-87158571D02*
X158598571Y-88015714D01*
X158598571Y-87587142D02*
X157098571Y-87587142D01*
X157312857Y-87729999D01*
X157455714Y-87872857D01*
X157527143Y-88015714D01*
X110161428Y-75442857D02*
X109018571Y-75442857D01*
X109590000Y-74871429D02*
X109590000Y-76014286D01*
X107161428Y-75442857D02*
X106018571Y-75442857D01*
D12*
X114683080Y-86170000D02*
X117223080Y-86170000D01*
X112651080Y-86170000D02*
X110111080Y-86170000D01*
X114683080Y-86170000D02*
X112651080Y-87694000D01*
X112651080Y-87694000D02*
X112651080Y-84646000D01*
X112651080Y-84646000D02*
X114683080Y-86170000D01*
X114683080Y-87694000D02*
X114683080Y-84646000D01*
X105539080Y-83376000D02*
X105539080Y-88964000D01*
X105539080Y-88964000D02*
X121795080Y-88964000D01*
X121795080Y-88964000D02*
X121795080Y-83376000D01*
X121795080Y-83376000D02*
X105539080Y-83376000D01*
X118040000Y-97790000D02*
X118040000Y-95110000D01*
X118040000Y-95110000D02*
X115500000Y-95110000D01*
X115500000Y-95110000D02*
X115500000Y-97790000D01*
X115500000Y-97790000D02*
X118040000Y-97790000D01*
X107900000Y-97790000D02*
X110440000Y-97790000D01*
X107900000Y-95110000D02*
X107900000Y-97790000D01*
X110440000Y-95110000D02*
X107900000Y-95110000D01*
X110440000Y-97790000D02*
X110440000Y-95110000D01*
X107940000Y-80190000D02*
X107940000Y-77510000D01*
X107940000Y-77510000D02*
X105400000Y-77510000D01*
X105400000Y-77510000D02*
X105400000Y-80190000D01*
X105400000Y-80190000D02*
X107940000Y-80190000D01*
X117720000Y-78810000D02*
X117720000Y-77260000D01*
X120820000Y-77360000D02*
X120820000Y-78910000D01*
X120820000Y-77310000D02*
X117720000Y-77310000D01*
X118320000Y-71500000D02*
X120860000Y-71500000D01*
X115500000Y-71220000D02*
X117050000Y-71220000D01*
X118320000Y-71500000D02*
X118320000Y-74040000D01*
X117050000Y-74320000D02*
X115500000Y-74320000D01*
X115500000Y-74320000D02*
X115500000Y-71220000D01*
X118320000Y-74040000D02*
X120860000Y-74040000D01*
X120860000Y-74040000D02*
X120860000Y-71500000D01*
X107920000Y-71610000D02*
X110460000Y-71610000D01*
X105100000Y-71330000D02*
X106650000Y-71330000D01*
X107920000Y-71610000D02*
X107920000Y-74150000D01*
X106650000Y-74430000D02*
X105100000Y-74430000D01*
X105100000Y-74430000D02*
X105100000Y-71330000D01*
X107920000Y-74150000D02*
X110460000Y-74150000D01*
X110460000Y-74150000D02*
X110460000Y-71610000D01*
X108360000Y-105840000D02*
X105820000Y-105840000D01*
X111180000Y-106120000D02*
X109630000Y-106120000D01*
X108360000Y-105840000D02*
X108360000Y-103300000D01*
X109630000Y-103020000D02*
X111180000Y-103020000D01*
X111180000Y-103020000D02*
X111180000Y-106120000D01*
X108360000Y-103300000D02*
X105820000Y-103300000D01*
X105820000Y-103300000D02*
X105820000Y-105840000D01*
X153610000Y-98730000D02*
X153610000Y-80950000D01*
X153610000Y-80950000D02*
X156150000Y-80950000D01*
X156150000Y-80950000D02*
X156150000Y-98730000D01*
X153330000Y-101550000D02*
X153330000Y-100000000D01*
X153610000Y-98730000D02*
X156150000Y-98730000D01*
X156430000Y-100000000D02*
X156430000Y-101550000D01*
X156430000Y-101550000D02*
X153330000Y-101550000D01*
D13*
X139640000Y-68350000D02*
X139640000Y-111530000D01*
X139640000Y-111530000D02*
X126940000Y-111530000D01*
X126940000Y-111530000D02*
X126940000Y-68350000D01*
X126940000Y-68350000D02*
X139640000Y-68350000D01*
X132020000Y-68350000D02*
X132020000Y-69620000D01*
X132020000Y-69620000D02*
X134560000Y-69620000D01*
X134560000Y-69620000D02*
X134560000Y-68350000D01*
D14*
X119240000Y-103570000D02*
X117240000Y-103570000D01*
X117240000Y-105610000D02*
X119240000Y-105610000D01*
X150550000Y-79650000D02*
X150550000Y-81650000D01*
X152590000Y-81650000D02*
X152590000Y-79650000D01*
D12*
X115261905Y-90222381D02*
X115261905Y-89222381D01*
X115500000Y-89222381D01*
X115642858Y-89270000D01*
X115738096Y-89365238D01*
X115785715Y-89460476D01*
X115833334Y-89650952D01*
X115833334Y-89793810D01*
X115785715Y-89984286D01*
X115738096Y-90079524D01*
X115642858Y-90174762D01*
X115500000Y-90222381D01*
X115261905Y-90222381D01*
X116785715Y-90222381D02*
X116214286Y-90222381D01*
X116500000Y-90222381D02*
X116500000Y-89222381D01*
X116404762Y-89365238D01*
X116309524Y-89460476D01*
X116214286Y-89508095D01*
X110888985Y-84812667D02*
X111365176Y-84812667D01*
X110793747Y-85098381D02*
X111127080Y-84098381D01*
X111460414Y-85098381D01*
X111431905Y-78312381D02*
X111431905Y-77312381D01*
X111670000Y-77312381D01*
X111812858Y-77360000D01*
X111908096Y-77455238D01*
X111955715Y-77550476D01*
X112003334Y-77740952D01*
X112003334Y-77883810D01*
X111955715Y-78074286D01*
X111908096Y-78169524D01*
X111812858Y-78264762D01*
X111670000Y-78312381D01*
X111431905Y-78312381D01*
X113003334Y-78217143D02*
X112955715Y-78264762D01*
X112812858Y-78312381D01*
X112717620Y-78312381D01*
X112574762Y-78264762D01*
X112479524Y-78169524D01*
X112431905Y-78074286D01*
X112384286Y-77883810D01*
X112384286Y-77740952D01*
X112431905Y-77550476D01*
X112479524Y-77455238D01*
X112574762Y-77360000D01*
X112717620Y-77312381D01*
X112812858Y-77312381D01*
X112955715Y-77360000D01*
X113003334Y-77407619D01*
X113431905Y-78312381D02*
X113431905Y-77312381D01*
X113670000Y-77312381D01*
X113812858Y-77360000D01*
X113908096Y-77455238D01*
X113955715Y-77550476D01*
X114003334Y-77740952D01*
X114003334Y-77883810D01*
X113955715Y-78074286D01*
X113908096Y-78169524D01*
X113812858Y-78264762D01*
X113670000Y-78312381D01*
X113431905Y-78312381D01*
X115003334Y-78217143D02*
X114955715Y-78264762D01*
X114812858Y-78312381D01*
X114717620Y-78312381D01*
X114574762Y-78264762D01*
X114479524Y-78169524D01*
X114431905Y-78074286D01*
X114384286Y-77883810D01*
X114384286Y-77740952D01*
X114431905Y-77550476D01*
X114479524Y-77455238D01*
X114574762Y-77360000D01*
X114717620Y-77312381D01*
X114812858Y-77312381D01*
X114955715Y-77360000D01*
X115003334Y-77407619D01*
X115955715Y-78312381D02*
X115384286Y-78312381D01*
X115670000Y-78312381D02*
X115670000Y-77312381D01*
X115574762Y-77455238D01*
X115479524Y-77550476D01*
X115384286Y-77598095D01*
X121522381Y-97679048D02*
X121522381Y-97488571D01*
X121570000Y-97393333D01*
X121665238Y-97298095D01*
X121855714Y-97250476D01*
X122189048Y-97250476D01*
X122379524Y-97298095D01*
X122474762Y-97393333D01*
X122522381Y-97488571D01*
X122522381Y-97679048D01*
X122474762Y-97774286D01*
X122379524Y-97869524D01*
X122189048Y-97917143D01*
X121855714Y-97917143D01*
X121665238Y-97869524D01*
X121570000Y-97774286D01*
X121522381Y-97679048D01*
X121522381Y-96821905D02*
X122331905Y-96821905D01*
X122427143Y-96774286D01*
X122474762Y-96726667D01*
X122522381Y-96631429D01*
X122522381Y-96440952D01*
X122474762Y-96345714D01*
X122427143Y-96298095D01*
X122331905Y-96250476D01*
X121522381Y-96250476D01*
X121522381Y-95917143D02*
X121522381Y-95345714D01*
X122522381Y-95631429D02*
X121522381Y-95631429D01*
X122141429Y-95012381D02*
X122141429Y-94250476D01*
X103722381Y-97879048D02*
X103722381Y-97688571D01*
X103770000Y-97593333D01*
X103865238Y-97498095D01*
X104055714Y-97450476D01*
X104389048Y-97450476D01*
X104579524Y-97498095D01*
X104674762Y-97593333D01*
X104722381Y-97688571D01*
X104722381Y-97879048D01*
X104674762Y-97974286D01*
X104579524Y-98069524D01*
X104389048Y-98117143D01*
X104055714Y-98117143D01*
X103865238Y-98069524D01*
X103770000Y-97974286D01*
X103722381Y-97879048D01*
X103722381Y-97021905D02*
X104531905Y-97021905D01*
X104627143Y-96974286D01*
X104674762Y-96926667D01*
X104722381Y-96831429D01*
X104722381Y-96640952D01*
X104674762Y-96545714D01*
X104627143Y-96498095D01*
X104531905Y-96450476D01*
X103722381Y-96450476D01*
X103722381Y-96117143D02*
X103722381Y-95545714D01*
X104722381Y-95831429D02*
X103722381Y-95831429D01*
X104341429Y-95212381D02*
X104341429Y-94450476D01*
X104722381Y-94831428D02*
X103960476Y-94831428D01*
X104522381Y-80002857D02*
X103522381Y-80002857D01*
X104522381Y-79526667D02*
X103522381Y-79526667D01*
X104522381Y-78955238D01*
X103522381Y-78955238D01*
X104141429Y-78479048D02*
X104141429Y-77717143D01*
X122522381Y-80102857D02*
X121522381Y-80102857D01*
X122522381Y-79626667D02*
X121522381Y-79626667D01*
X122522381Y-79055238D01*
X121522381Y-79055238D01*
X122141429Y-78579048D02*
X122141429Y-77817143D01*
X122522381Y-78198095D02*
X121760476Y-78198095D01*
X121662381Y-73113333D02*
X122376667Y-73113333D01*
X122519524Y-73160953D01*
X122614762Y-73256191D01*
X122662381Y-73399048D01*
X122662381Y-73494286D01*
X122662381Y-72113333D02*
X122662381Y-72684762D01*
X122662381Y-72399048D02*
X121662381Y-72399048D01*
X121805238Y-72494286D01*
X121900476Y-72589524D01*
X121948095Y-72684762D01*
X111282381Y-73333333D02*
X111996667Y-73333333D01*
X112139524Y-73380953D01*
X112234762Y-73476191D01*
X112282381Y-73619048D01*
X112282381Y-73714286D01*
X111377619Y-72904762D02*
X111330000Y-72857143D01*
X111282381Y-72761905D01*
X111282381Y-72523809D01*
X111330000Y-72428571D01*
X111377619Y-72380952D01*
X111472857Y-72333333D01*
X111568095Y-72333333D01*
X111710952Y-72380952D01*
X112282381Y-72952381D01*
X112282381Y-72333333D01*
X111842381Y-104873333D02*
X112556667Y-104873333D01*
X112699524Y-104920953D01*
X112794762Y-105016191D01*
X112842381Y-105159048D01*
X112842381Y-105254286D01*
X111842381Y-104492381D02*
X111842381Y-103873333D01*
X112223333Y-104206667D01*
X112223333Y-104063809D01*
X112270952Y-103968571D01*
X112318571Y-103920952D01*
X112413810Y-103873333D01*
X112651905Y-103873333D01*
X112747143Y-103920952D01*
X112794762Y-103968571D01*
X112842381Y-104063809D01*
X112842381Y-104349524D01*
X112794762Y-104444762D01*
X112747143Y-104492381D01*
X152582381Y-100995714D02*
X151582381Y-100995714D01*
X152582381Y-100424285D01*
X151582381Y-100424285D01*
X151582381Y-99757619D02*
X151582381Y-99567142D01*
X151630000Y-99471904D01*
X151725238Y-99376666D01*
X151915714Y-99329047D01*
X152249048Y-99329047D01*
X152439524Y-99376666D01*
X152534762Y-99471904D01*
X152582381Y-99567142D01*
X152582381Y-99757619D01*
X152534762Y-99852857D01*
X152439524Y-99948095D01*
X152249048Y-99995714D01*
X151915714Y-99995714D01*
X151725238Y-99948095D01*
X151630000Y-99852857D01*
X151582381Y-99757619D01*
X152582381Y-98900476D02*
X151582381Y-98900476D01*
X152582381Y-98329047D02*
X152010952Y-98757619D01*
X151582381Y-98329047D02*
X152153810Y-98900476D01*
X152582381Y-97376666D02*
X152582381Y-97948095D01*
X152582381Y-97662381D02*
X151582381Y-97662381D01*
X151725238Y-97757619D01*
X151820476Y-97852857D01*
X151868095Y-97948095D01*
D15*
X136286333Y-73214667D02*
X137725667Y-73214667D01*
X137895000Y-73130000D01*
X137979667Y-73045333D01*
X138064333Y-72876000D01*
X138064333Y-72537333D01*
X137979667Y-72368000D01*
X137895000Y-72283333D01*
X137725667Y-72198667D01*
X136286333Y-72198667D01*
X138064333Y-70420666D02*
X138064333Y-71436666D01*
X138064333Y-70928666D02*
X136286333Y-70928666D01*
X136540333Y-71098000D01*
X136709667Y-71267333D01*
X136794333Y-71436666D01*
X130919333Y-97898669D02*
X129988000Y-97898669D01*
X129818667Y-97983335D01*
X129734000Y-98152669D01*
X129734000Y-98491335D01*
X129818667Y-98660669D01*
X130834667Y-97898669D02*
X130919333Y-98068002D01*
X130919333Y-98491335D01*
X130834667Y-98660669D01*
X130665333Y-98745335D01*
X130496000Y-98745335D01*
X130326667Y-98660669D01*
X130242000Y-98491335D01*
X130242000Y-98068002D01*
X130157333Y-97898669D01*
X130919333Y-97052002D02*
X129734000Y-97052002D01*
X130072667Y-97052002D02*
X129903333Y-96967335D01*
X129818667Y-96882668D01*
X129734000Y-96713335D01*
X129734000Y-96544002D01*
X130919333Y-95189335D02*
X129141333Y-95189335D01*
X130834667Y-95189335D02*
X130919333Y-95358668D01*
X130919333Y-95697335D01*
X130834667Y-95866668D01*
X130750000Y-95951335D01*
X130580667Y-96036001D01*
X130072667Y-96036001D01*
X129903333Y-95951335D01*
X129818667Y-95866668D01*
X129734000Y-95697335D01*
X129734000Y-95358668D01*
X129818667Y-95189335D01*
X129734000Y-93580668D02*
X130919333Y-93580668D01*
X129734000Y-94342668D02*
X130665333Y-94342668D01*
X130834667Y-94258001D01*
X130919333Y-94088668D01*
X130919333Y-93834668D01*
X130834667Y-93665334D01*
X130750000Y-93580668D01*
X130919333Y-92734001D02*
X129734000Y-92734001D01*
X129141333Y-92734001D02*
X129226000Y-92818667D01*
X129310667Y-92734001D01*
X129226000Y-92649334D01*
X129141333Y-92734001D01*
X129310667Y-92734001D01*
X129734000Y-91887334D02*
X130919333Y-91887334D01*
X129903333Y-91887334D02*
X129818667Y-91802667D01*
X129734000Y-91633334D01*
X129734000Y-91379334D01*
X129818667Y-91210000D01*
X129988000Y-91125334D01*
X130919333Y-91125334D01*
X130919333Y-90024667D02*
X130834667Y-90194000D01*
X130750000Y-90278667D01*
X130580667Y-90363333D01*
X130072667Y-90363333D01*
X129903333Y-90278667D01*
X129818667Y-90194000D01*
X129734000Y-90024667D01*
X129734000Y-89770667D01*
X129818667Y-89601333D01*
X129903333Y-89516667D01*
X130072667Y-89432000D01*
X130580667Y-89432000D01*
X130750000Y-89516667D01*
X130834667Y-89601333D01*
X130919333Y-89770667D01*
X130919333Y-90024667D01*
X131088667Y-89093333D02*
X131088667Y-87738666D01*
X130919333Y-87315333D02*
X129734000Y-87315333D01*
X129903333Y-87315333D02*
X129818667Y-87230666D01*
X129734000Y-87061333D01*
X129734000Y-86807333D01*
X129818667Y-86637999D01*
X129988000Y-86553333D01*
X130919333Y-86553333D01*
X129988000Y-86553333D02*
X129818667Y-86468666D01*
X129734000Y-86299333D01*
X129734000Y-86045333D01*
X129818667Y-85875999D01*
X129988000Y-85791333D01*
X130919333Y-85791333D01*
X130919333Y-84944666D02*
X129734000Y-84944666D01*
X129141333Y-84944666D02*
X129226000Y-85029332D01*
X129310667Y-84944666D01*
X129226000Y-84859999D01*
X129141333Y-84944666D01*
X129310667Y-84944666D01*
X129734000Y-84097999D02*
X130919333Y-84097999D01*
X129903333Y-84097999D02*
X129818667Y-84013332D01*
X129734000Y-83843999D01*
X129734000Y-83589999D01*
X129818667Y-83420665D01*
X129988000Y-83335999D01*
X130919333Y-83335999D01*
X130919333Y-82489332D02*
X129734000Y-82489332D01*
X129141333Y-82489332D02*
X129226000Y-82573998D01*
X129310667Y-82489332D01*
X129226000Y-82404665D01*
X129141333Y-82489332D01*
X129310667Y-82489332D01*
D12*
X118073334Y-103197143D02*
X118025715Y-103244762D01*
X117882858Y-103292381D01*
X117787620Y-103292381D01*
X117644762Y-103244762D01*
X117549524Y-103149524D01*
X117501905Y-103054286D01*
X117454286Y-102863810D01*
X117454286Y-102720952D01*
X117501905Y-102530476D01*
X117549524Y-102435238D01*
X117644762Y-102340000D01*
X117787620Y-102292381D01*
X117882858Y-102292381D01*
X118025715Y-102340000D01*
X118073334Y-102387619D01*
X119025715Y-103292381D02*
X118454286Y-103292381D01*
X118740000Y-103292381D02*
X118740000Y-102292381D01*
X118644762Y-102435238D01*
X118549524Y-102530476D01*
X118454286Y-102578095D01*
X150177143Y-80816666D02*
X150224762Y-80864285D01*
X150272381Y-81007142D01*
X150272381Y-81102380D01*
X150224762Y-81245238D01*
X150129524Y-81340476D01*
X150034286Y-81388095D01*
X149843810Y-81435714D01*
X149700952Y-81435714D01*
X149510476Y-81388095D01*
X149415238Y-81340476D01*
X149320000Y-81245238D01*
X149272381Y-81102380D01*
X149272381Y-81007142D01*
X149320000Y-80864285D01*
X149367619Y-80816666D01*
X149367619Y-80435714D02*
X149320000Y-80388095D01*
X149272381Y-80292857D01*
X149272381Y-80054761D01*
X149320000Y-79959523D01*
X149367619Y-79911904D01*
X149462857Y-79864285D01*
X149558095Y-79864285D01*
X149700952Y-79911904D01*
X150272381Y-80483333D01*
X150272381Y-79864285D01*
M02*
