M48
METRIC,TZ
T1C0.813
T2C1.001
T3C1.016
T4C1.501
%
G90
G05
T1
X126900Y-72200
X126940Y-74700
X126940Y-77240
X126940Y-79780
X126940Y-82320
X126940Y-84860
X126940Y-87400
X126940Y-89940
X126940Y-92480
X126940Y-95020
X126940Y-97560
X126940Y-100100
X126940Y-102640
X126940Y-105180
X126940Y-107720
X142180Y-72160
X142180Y-74700
X142180Y-77240
X142180Y-79780
X142180Y-82320
X142180Y-84860
X142180Y-87400
X142180Y-89940
X142180Y-92480
X142180Y-95020
X142180Y-97560
X142180Y-100100
X142180Y-102640
X142180Y-105180
X142180Y-107720
T2
X138150Y-83550
X138170Y-78570
X138180Y-88550
X138260Y-98820
X138300Y-93740
X145770Y-83550
X145790Y-78570
X145800Y-88550
X145880Y-98820
X145920Y-93740
T3
X107020Y-78970
X107070Y-72920
X107090Y-104570
X109520Y-96570
X109610Y-72920
X109630Y-104570
X117120Y-96570
X117470Y-72810
X119620Y-79010
X120010Y-72810
X154880Y-82220
X154880Y-84760
X154880Y-87300
X154880Y-89840
X154880Y-92380
X154880Y-94920
X154880Y-97460
X154880Y-100000
T4
X108129Y-86060
X119305Y-86060
T0
M30
