G04 #@! TF.FileFunction,Legend,Top*
%FSLAX46Y46*%
G04 Gerber Fmt 4.6, Leading zero omitted, Abs format (unit mm)*
G04 Created by KiCad (PCBNEW 4.0.7) date 10/23/17 21:59:23*
%MOMM*%
%LPD*%
G01*
G04 APERTURE LIST*
%ADD10C,0.100000*%
%ADD11C,0.300000*%
%ADD12C,0.150000*%
%ADD13C,0.381000*%
%ADD14C,0.304800*%
G04 APERTURE END LIST*
D10*
D11*
X158598571Y-106229999D02*
X157098571Y-106229999D01*
X157098571Y-105872856D01*
X157170000Y-105658571D01*
X157312857Y-105515713D01*
X157455714Y-105444285D01*
X157741429Y-105372856D01*
X157955714Y-105372856D01*
X158241429Y-105444285D01*
X158384286Y-105515713D01*
X158527143Y-105658571D01*
X158598571Y-105872856D01*
X158598571Y-106229999D01*
X158598571Y-104729999D02*
X157598571Y-104729999D01*
X157098571Y-104729999D02*
X157170000Y-104801428D01*
X157241429Y-104729999D01*
X157170000Y-104658571D01*
X157098571Y-104729999D01*
X157241429Y-104729999D01*
X158527143Y-103372856D02*
X158598571Y-103515713D01*
X158598571Y-103801427D01*
X158527143Y-103944285D01*
X158455714Y-104015713D01*
X158312857Y-104087142D01*
X157884286Y-104087142D01*
X157741429Y-104015713D01*
X157670000Y-103944285D01*
X157598571Y-103801427D01*
X157598571Y-103515713D01*
X157670000Y-103372856D01*
X158527143Y-102158571D02*
X158598571Y-102301428D01*
X158598571Y-102587142D01*
X158527143Y-102729999D01*
X158384286Y-102801428D01*
X157812857Y-102801428D01*
X157670000Y-102729999D01*
X157598571Y-102587142D01*
X157598571Y-102301428D01*
X157670000Y-102158571D01*
X157812857Y-102087142D01*
X157955714Y-102087142D01*
X158098571Y-102801428D01*
X158598571Y-101444285D02*
X157098571Y-101444285D01*
X158170000Y-100944285D01*
X157098571Y-100444285D01*
X158598571Y-100444285D01*
X158598571Y-99087142D02*
X157812857Y-99087142D01*
X157670000Y-99158571D01*
X157598571Y-99301428D01*
X157598571Y-99587142D01*
X157670000Y-99729999D01*
X158527143Y-99087142D02*
X158598571Y-99229999D01*
X158598571Y-99587142D01*
X158527143Y-99729999D01*
X158384286Y-99801428D01*
X158241429Y-99801428D01*
X158098571Y-99729999D01*
X158027143Y-99587142D01*
X158027143Y-99229999D01*
X157955714Y-99087142D01*
X158527143Y-97729999D02*
X158598571Y-97872856D01*
X158598571Y-98158570D01*
X158527143Y-98301428D01*
X158455714Y-98372856D01*
X158312857Y-98444285D01*
X157884286Y-98444285D01*
X157741429Y-98372856D01*
X157670000Y-98301428D01*
X157598571Y-98158570D01*
X157598571Y-97872856D01*
X157670000Y-97729999D01*
X158598571Y-97087142D02*
X157098571Y-97087142D01*
X158598571Y-96444285D02*
X157812857Y-96444285D01*
X157670000Y-96515714D01*
X157598571Y-96658571D01*
X157598571Y-96872856D01*
X157670000Y-97015714D01*
X157741429Y-97087142D01*
X158598571Y-95729999D02*
X157598571Y-95729999D01*
X157098571Y-95729999D02*
X157170000Y-95801428D01*
X157241429Y-95729999D01*
X157170000Y-95658571D01*
X157098571Y-95729999D01*
X157241429Y-95729999D01*
X157598571Y-95015713D02*
X158598571Y-95015713D01*
X157741429Y-95015713D02*
X157670000Y-94944285D01*
X157598571Y-94801427D01*
X157598571Y-94587142D01*
X157670000Y-94444285D01*
X157812857Y-94372856D01*
X158598571Y-94372856D01*
X158527143Y-93087142D02*
X158598571Y-93229999D01*
X158598571Y-93515713D01*
X158527143Y-93658570D01*
X158384286Y-93729999D01*
X157812857Y-93729999D01*
X157670000Y-93658570D01*
X157598571Y-93515713D01*
X157598571Y-93229999D01*
X157670000Y-93087142D01*
X157812857Y-93015713D01*
X157955714Y-93015713D01*
X158098571Y-93729999D01*
X157598571Y-91372856D02*
X158598571Y-91015713D01*
X157598571Y-90658571D01*
X158598571Y-89301428D02*
X158598571Y-90158571D01*
X158598571Y-89729999D02*
X157098571Y-89729999D01*
X157312857Y-89872856D01*
X157455714Y-90015714D01*
X157527143Y-90158571D01*
X158455714Y-88658571D02*
X158527143Y-88587143D01*
X158598571Y-88658571D01*
X158527143Y-88730000D01*
X158455714Y-88658571D01*
X158598571Y-88658571D01*
X157098571Y-87658571D02*
X157098571Y-87515714D01*
X157170000Y-87372857D01*
X157241429Y-87301428D01*
X157384286Y-87229999D01*
X157670000Y-87158571D01*
X158027143Y-87158571D01*
X158312857Y-87229999D01*
X158455714Y-87301428D01*
X158527143Y-87372857D01*
X158598571Y-87515714D01*
X158598571Y-87658571D01*
X158527143Y-87801428D01*
X158455714Y-87872857D01*
X158312857Y-87944285D01*
X158027143Y-88015714D01*
X157670000Y-88015714D01*
X157384286Y-87944285D01*
X157241429Y-87872857D01*
X157170000Y-87801428D01*
X157098571Y-87658571D01*
X110161428Y-75442857D02*
X109018571Y-75442857D01*
X109590000Y-74871429D02*
X109590000Y-76014286D01*
X107161428Y-75442857D02*
X106018571Y-75442857D01*
D12*
X118390000Y-97840000D02*
X118390000Y-95160000D01*
X118390000Y-95160000D02*
X115850000Y-95160000D01*
X115850000Y-95160000D02*
X115850000Y-97840000D01*
X115850000Y-97840000D02*
X118390000Y-97840000D01*
X108250000Y-97840000D02*
X110790000Y-97840000D01*
X108250000Y-95160000D02*
X108250000Y-97840000D01*
X110790000Y-95160000D02*
X108250000Y-95160000D01*
X110790000Y-97840000D02*
X110790000Y-95160000D01*
X108290000Y-80240000D02*
X108290000Y-77560000D01*
X108290000Y-77560000D02*
X105750000Y-77560000D01*
X105750000Y-77560000D02*
X105750000Y-80240000D01*
X105750000Y-80240000D02*
X108290000Y-80240000D01*
X118070000Y-78860000D02*
X118070000Y-77310000D01*
X121170000Y-77410000D02*
X121170000Y-78960000D01*
X121170000Y-77360000D02*
X118070000Y-77360000D01*
X118740000Y-71540000D02*
X121280000Y-71540000D01*
X115920000Y-71260000D02*
X117470000Y-71260000D01*
X118740000Y-71540000D02*
X118740000Y-74080000D01*
X117470000Y-74360000D02*
X115920000Y-74360000D01*
X115920000Y-74360000D02*
X115920000Y-71260000D01*
X118740000Y-74080000D02*
X121280000Y-74080000D01*
X121280000Y-74080000D02*
X121280000Y-71540000D01*
X108340000Y-71650000D02*
X110880000Y-71650000D01*
X105520000Y-71370000D02*
X107070000Y-71370000D01*
X108340000Y-71650000D02*
X108340000Y-74190000D01*
X107070000Y-74470000D02*
X105520000Y-74470000D01*
X105520000Y-74470000D02*
X105520000Y-71370000D01*
X108340000Y-74190000D02*
X110880000Y-74190000D01*
X110880000Y-74190000D02*
X110880000Y-71650000D01*
X108360000Y-105840000D02*
X105820000Y-105840000D01*
X111180000Y-106120000D02*
X109630000Y-106120000D01*
X108360000Y-105840000D02*
X108360000Y-103300000D01*
X109630000Y-103020000D02*
X111180000Y-103020000D01*
X111180000Y-103020000D02*
X111180000Y-106120000D01*
X108360000Y-103300000D02*
X105820000Y-103300000D01*
X105820000Y-103300000D02*
X105820000Y-105840000D01*
X153610000Y-98730000D02*
X153610000Y-80950000D01*
X153610000Y-80950000D02*
X156150000Y-80950000D01*
X156150000Y-80950000D02*
X156150000Y-98730000D01*
X153330000Y-101550000D02*
X153330000Y-100000000D01*
X153610000Y-98730000D02*
X156150000Y-98730000D01*
X156430000Y-100000000D02*
X156430000Y-101550000D01*
X156430000Y-101550000D02*
X153330000Y-101550000D01*
D13*
X140910000Y-68350000D02*
X140910000Y-111530000D01*
X140910000Y-111530000D02*
X128210000Y-111530000D01*
X128210000Y-111530000D02*
X128210000Y-68350000D01*
X128210000Y-68350000D02*
X140910000Y-68350000D01*
X133290000Y-68350000D02*
X133290000Y-69620000D01*
X133290000Y-69620000D02*
X135830000Y-69620000D01*
X135830000Y-69620000D02*
X135830000Y-68350000D01*
D12*
X111781905Y-78362381D02*
X111781905Y-77362381D01*
X112020000Y-77362381D01*
X112162858Y-77410000D01*
X112258096Y-77505238D01*
X112305715Y-77600476D01*
X112353334Y-77790952D01*
X112353334Y-77933810D01*
X112305715Y-78124286D01*
X112258096Y-78219524D01*
X112162858Y-78314762D01*
X112020000Y-78362381D01*
X111781905Y-78362381D01*
X113353334Y-78267143D02*
X113305715Y-78314762D01*
X113162858Y-78362381D01*
X113067620Y-78362381D01*
X112924762Y-78314762D01*
X112829524Y-78219524D01*
X112781905Y-78124286D01*
X112734286Y-77933810D01*
X112734286Y-77790952D01*
X112781905Y-77600476D01*
X112829524Y-77505238D01*
X112924762Y-77410000D01*
X113067620Y-77362381D01*
X113162858Y-77362381D01*
X113305715Y-77410000D01*
X113353334Y-77457619D01*
X113781905Y-78362381D02*
X113781905Y-77362381D01*
X114020000Y-77362381D01*
X114162858Y-77410000D01*
X114258096Y-77505238D01*
X114305715Y-77600476D01*
X114353334Y-77790952D01*
X114353334Y-77933810D01*
X114305715Y-78124286D01*
X114258096Y-78219524D01*
X114162858Y-78314762D01*
X114020000Y-78362381D01*
X113781905Y-78362381D01*
X115353334Y-78267143D02*
X115305715Y-78314762D01*
X115162858Y-78362381D01*
X115067620Y-78362381D01*
X114924762Y-78314762D01*
X114829524Y-78219524D01*
X114781905Y-78124286D01*
X114734286Y-77933810D01*
X114734286Y-77790952D01*
X114781905Y-77600476D01*
X114829524Y-77505238D01*
X114924762Y-77410000D01*
X115067620Y-77362381D01*
X115162858Y-77362381D01*
X115305715Y-77410000D01*
X115353334Y-77457619D01*
X116305715Y-78362381D02*
X115734286Y-78362381D01*
X116020000Y-78362381D02*
X116020000Y-77362381D01*
X115924762Y-77505238D01*
X115829524Y-77600476D01*
X115734286Y-77648095D01*
X121872381Y-97729048D02*
X121872381Y-97538571D01*
X121920000Y-97443333D01*
X122015238Y-97348095D01*
X122205714Y-97300476D01*
X122539048Y-97300476D01*
X122729524Y-97348095D01*
X122824762Y-97443333D01*
X122872381Y-97538571D01*
X122872381Y-97729048D01*
X122824762Y-97824286D01*
X122729524Y-97919524D01*
X122539048Y-97967143D01*
X122205714Y-97967143D01*
X122015238Y-97919524D01*
X121920000Y-97824286D01*
X121872381Y-97729048D01*
X121872381Y-96871905D02*
X122681905Y-96871905D01*
X122777143Y-96824286D01*
X122824762Y-96776667D01*
X122872381Y-96681429D01*
X122872381Y-96490952D01*
X122824762Y-96395714D01*
X122777143Y-96348095D01*
X122681905Y-96300476D01*
X121872381Y-96300476D01*
X121872381Y-95967143D02*
X121872381Y-95395714D01*
X122872381Y-95681429D02*
X121872381Y-95681429D01*
X122491429Y-95062381D02*
X122491429Y-94300476D01*
X104072381Y-97929048D02*
X104072381Y-97738571D01*
X104120000Y-97643333D01*
X104215238Y-97548095D01*
X104405714Y-97500476D01*
X104739048Y-97500476D01*
X104929524Y-97548095D01*
X105024762Y-97643333D01*
X105072381Y-97738571D01*
X105072381Y-97929048D01*
X105024762Y-98024286D01*
X104929524Y-98119524D01*
X104739048Y-98167143D01*
X104405714Y-98167143D01*
X104215238Y-98119524D01*
X104120000Y-98024286D01*
X104072381Y-97929048D01*
X104072381Y-97071905D02*
X104881905Y-97071905D01*
X104977143Y-97024286D01*
X105024762Y-96976667D01*
X105072381Y-96881429D01*
X105072381Y-96690952D01*
X105024762Y-96595714D01*
X104977143Y-96548095D01*
X104881905Y-96500476D01*
X104072381Y-96500476D01*
X104072381Y-96167143D02*
X104072381Y-95595714D01*
X105072381Y-95881429D02*
X104072381Y-95881429D01*
X104691429Y-95262381D02*
X104691429Y-94500476D01*
X105072381Y-94881428D02*
X104310476Y-94881428D01*
X104872381Y-80052857D02*
X103872381Y-80052857D01*
X104872381Y-79576667D02*
X103872381Y-79576667D01*
X104872381Y-79005238D01*
X103872381Y-79005238D01*
X104491429Y-78529048D02*
X104491429Y-77767143D01*
X122872381Y-80152857D02*
X121872381Y-80152857D01*
X122872381Y-79676667D02*
X121872381Y-79676667D01*
X122872381Y-79105238D01*
X121872381Y-79105238D01*
X122491429Y-78629048D02*
X122491429Y-77867143D01*
X122872381Y-78248095D02*
X122110476Y-78248095D01*
X122082381Y-73153333D02*
X122796667Y-73153333D01*
X122939524Y-73200953D01*
X123034762Y-73296191D01*
X123082381Y-73439048D01*
X123082381Y-73534286D01*
X123082381Y-72153333D02*
X123082381Y-72724762D01*
X123082381Y-72439048D02*
X122082381Y-72439048D01*
X122225238Y-72534286D01*
X122320476Y-72629524D01*
X122368095Y-72724762D01*
X111702381Y-73373333D02*
X112416667Y-73373333D01*
X112559524Y-73420953D01*
X112654762Y-73516191D01*
X112702381Y-73659048D01*
X112702381Y-73754286D01*
X111797619Y-72944762D02*
X111750000Y-72897143D01*
X111702381Y-72801905D01*
X111702381Y-72563809D01*
X111750000Y-72468571D01*
X111797619Y-72420952D01*
X111892857Y-72373333D01*
X111988095Y-72373333D01*
X112130952Y-72420952D01*
X112702381Y-72992381D01*
X112702381Y-72373333D01*
X111842381Y-104873333D02*
X112556667Y-104873333D01*
X112699524Y-104920953D01*
X112794762Y-105016191D01*
X112842381Y-105159048D01*
X112842381Y-105254286D01*
X111842381Y-104492381D02*
X111842381Y-103873333D01*
X112223333Y-104206667D01*
X112223333Y-104063809D01*
X112270952Y-103968571D01*
X112318571Y-103920952D01*
X112413810Y-103873333D01*
X112651905Y-103873333D01*
X112747143Y-103920952D01*
X112794762Y-103968571D01*
X112842381Y-104063809D01*
X112842381Y-104349524D01*
X112794762Y-104444762D01*
X112747143Y-104492381D01*
X152782381Y-84655714D02*
X151782381Y-84655714D01*
X152782381Y-84084285D01*
X151782381Y-84084285D01*
X151782381Y-83417619D02*
X151782381Y-83227142D01*
X151830000Y-83131904D01*
X151925238Y-83036666D01*
X152115714Y-82989047D01*
X152449048Y-82989047D01*
X152639524Y-83036666D01*
X152734762Y-83131904D01*
X152782381Y-83227142D01*
X152782381Y-83417619D01*
X152734762Y-83512857D01*
X152639524Y-83608095D01*
X152449048Y-83655714D01*
X152115714Y-83655714D01*
X151925238Y-83608095D01*
X151830000Y-83512857D01*
X151782381Y-83417619D01*
X152782381Y-82560476D02*
X151782381Y-82560476D01*
X152782381Y-81989047D02*
X152210952Y-82417619D01*
X151782381Y-81989047D02*
X152353810Y-82560476D01*
X152782381Y-81036666D02*
X152782381Y-81608095D01*
X152782381Y-81322381D02*
X151782381Y-81322381D01*
X151925238Y-81417619D01*
X152020476Y-81512857D01*
X152068095Y-81608095D01*
D14*
X137556333Y-73214667D02*
X138995667Y-73214667D01*
X139165000Y-73130000D01*
X139249667Y-73045333D01*
X139334333Y-72876000D01*
X139334333Y-72537333D01*
X139249667Y-72368000D01*
X139165000Y-72283333D01*
X138995667Y-72198667D01*
X137556333Y-72198667D01*
X139334333Y-70420666D02*
X139334333Y-71436666D01*
X139334333Y-70928666D02*
X137556333Y-70928666D01*
X137810333Y-71098000D01*
X137979667Y-71267333D01*
X138064333Y-71436666D01*
X132189333Y-97898669D02*
X131258000Y-97898669D01*
X131088667Y-97983335D01*
X131004000Y-98152669D01*
X131004000Y-98491335D01*
X131088667Y-98660669D01*
X132104667Y-97898669D02*
X132189333Y-98068002D01*
X132189333Y-98491335D01*
X132104667Y-98660669D01*
X131935333Y-98745335D01*
X131766000Y-98745335D01*
X131596667Y-98660669D01*
X131512000Y-98491335D01*
X131512000Y-98068002D01*
X131427333Y-97898669D01*
X132189333Y-97052002D02*
X131004000Y-97052002D01*
X131342667Y-97052002D02*
X131173333Y-96967335D01*
X131088667Y-96882668D01*
X131004000Y-96713335D01*
X131004000Y-96544002D01*
X132189333Y-95189335D02*
X130411333Y-95189335D01*
X132104667Y-95189335D02*
X132189333Y-95358668D01*
X132189333Y-95697335D01*
X132104667Y-95866668D01*
X132020000Y-95951335D01*
X131850667Y-96036001D01*
X131342667Y-96036001D01*
X131173333Y-95951335D01*
X131088667Y-95866668D01*
X131004000Y-95697335D01*
X131004000Y-95358668D01*
X131088667Y-95189335D01*
X131004000Y-93580668D02*
X132189333Y-93580668D01*
X131004000Y-94342668D02*
X131935333Y-94342668D01*
X132104667Y-94258001D01*
X132189333Y-94088668D01*
X132189333Y-93834668D01*
X132104667Y-93665334D01*
X132020000Y-93580668D01*
X132189333Y-92734001D02*
X131004000Y-92734001D01*
X130411333Y-92734001D02*
X130496000Y-92818667D01*
X130580667Y-92734001D01*
X130496000Y-92649334D01*
X130411333Y-92734001D01*
X130580667Y-92734001D01*
X131004000Y-91887334D02*
X132189333Y-91887334D01*
X131173333Y-91887334D02*
X131088667Y-91802667D01*
X131004000Y-91633334D01*
X131004000Y-91379334D01*
X131088667Y-91210000D01*
X131258000Y-91125334D01*
X132189333Y-91125334D01*
X132189333Y-90024667D02*
X132104667Y-90194000D01*
X132020000Y-90278667D01*
X131850667Y-90363333D01*
X131342667Y-90363333D01*
X131173333Y-90278667D01*
X131088667Y-90194000D01*
X131004000Y-90024667D01*
X131004000Y-89770667D01*
X131088667Y-89601333D01*
X131173333Y-89516667D01*
X131342667Y-89432000D01*
X131850667Y-89432000D01*
X132020000Y-89516667D01*
X132104667Y-89601333D01*
X132189333Y-89770667D01*
X132189333Y-90024667D01*
X132358667Y-89093333D02*
X132358667Y-87738666D01*
X132189333Y-87315333D02*
X131004000Y-87315333D01*
X131173333Y-87315333D02*
X131088667Y-87230666D01*
X131004000Y-87061333D01*
X131004000Y-86807333D01*
X131088667Y-86637999D01*
X131258000Y-86553333D01*
X132189333Y-86553333D01*
X131258000Y-86553333D02*
X131088667Y-86468666D01*
X131004000Y-86299333D01*
X131004000Y-86045333D01*
X131088667Y-85875999D01*
X131258000Y-85791333D01*
X132189333Y-85791333D01*
X132189333Y-84944666D02*
X131004000Y-84944666D01*
X130411333Y-84944666D02*
X130496000Y-85029332D01*
X130580667Y-84944666D01*
X130496000Y-84859999D01*
X130411333Y-84944666D01*
X130580667Y-84944666D01*
X131004000Y-84097999D02*
X132189333Y-84097999D01*
X131173333Y-84097999D02*
X131088667Y-84013332D01*
X131004000Y-83843999D01*
X131004000Y-83589999D01*
X131088667Y-83420665D01*
X131258000Y-83335999D01*
X132189333Y-83335999D01*
X132189333Y-82489332D02*
X131004000Y-82489332D01*
X130411333Y-82489332D02*
X130496000Y-82573998D01*
X130580667Y-82489332D01*
X130496000Y-82404665D01*
X130411333Y-82489332D01*
X130580667Y-82489332D01*
M02*
