G04 #@! TF.FileFunction,Soldermask,Top*
%FSLAX46Y46*%
G04 Gerber Fmt 4.6, Leading zero omitted, Abs format (unit mm)*
G04 Created by KiCad (PCBNEW 4.0.7) date 11/02/17 22:13:09*
%MOMM*%
%LPD*%
G01*
G04 APERTURE LIST*
%ADD10C,0.100000*%
%ADD11R,2.899360X4.900880*%
%ADD12O,2.899360X4.900880*%
%ADD13O,2.432000X2.127200*%
%ADD14R,2.432000X2.127200*%
%ADD15R,2.432000X2.432000*%
%ADD16O,2.432000X2.432000*%
%ADD17C,2.398980*%
%ADD18R,2.686000X1.974800*%
%ADD19O,2.686000X1.974800*%
%ADD20R,2.400000X2.000000*%
%ADD21R,2.000000X2.400000*%
G04 APERTURE END LIST*
D10*
D11*
X119255080Y-86170000D03*
D12*
X108079080Y-86170000D03*
D13*
X116770000Y-96520000D03*
X109170000Y-96520000D03*
X106670000Y-78920000D03*
D14*
X119270000Y-78960000D03*
D15*
X117050000Y-72770000D03*
D16*
X119590000Y-72770000D03*
D15*
X106650000Y-72880000D03*
D16*
X109190000Y-72880000D03*
D15*
X109630000Y-104570000D03*
D16*
X107090000Y-104570000D03*
D14*
X154880000Y-100000000D03*
D13*
X154880000Y-97460000D03*
X154880000Y-94920000D03*
X154880000Y-92380000D03*
X154880000Y-89840000D03*
X154880000Y-87300000D03*
X154880000Y-84760000D03*
X154880000Y-82220000D03*
D17*
X153360000Y-74640000D03*
X145740000Y-74640000D03*
D18*
X125630000Y-72200000D03*
D19*
X125670000Y-74700000D03*
X125670000Y-77240000D03*
X125670000Y-79780000D03*
X125670000Y-82320000D03*
X125670000Y-84860000D03*
X125670000Y-87400000D03*
X125670000Y-89940000D03*
X125670000Y-92480000D03*
X125670000Y-95020000D03*
X125670000Y-97560000D03*
X125670000Y-100100000D03*
X125670000Y-102640000D03*
X125670000Y-105180000D03*
X125670000Y-107720000D03*
X140910000Y-107720000D03*
X140910000Y-105180000D03*
X140910000Y-102640000D03*
X140910000Y-100100000D03*
X140910000Y-97560000D03*
X140910000Y-95020000D03*
X140910000Y-92480000D03*
X140910000Y-89940000D03*
X140910000Y-87400000D03*
X140910000Y-84860000D03*
X140910000Y-82320000D03*
X140910000Y-79780000D03*
X140910000Y-77240000D03*
X140910000Y-74700000D03*
X140910000Y-72160000D03*
D20*
X116240000Y-104590000D03*
X120240000Y-104590000D03*
D21*
X151570000Y-82650000D03*
X151570000Y-78650000D03*
M02*
